<svg width="37" height="22" viewBox="0 0 37 22" fill="none" xmlns="http://www.w3.org/2000/svg">
<path d="M33.5314 22H12.659C11.6145 22 10.6356 21.6329 9.97268 20.9911L0.260864 11.5801C-0.0869545 11.2426 -0.0869545 10.7574 0.260864 10.4199L9.97383 1.00794C10.6355 0.366961 11.6145 -1.90735e-06 12.659 -1.90735e-06H33.5313C35.4441 -1.90735e-06 37 1.2336 37 2.74999V19.25C37.0001 20.7665 35.4441 22 33.5314 22ZM34.6876 2.74999C34.6876 2.24419 34.1693 1.83335 33.5314 1.83335H12.659C12.3101 1.83335 11.9837 1.95601 11.7635 2.16906L2.65017 11L11.7624 19.8301C11.9837 20.0441 12.31 20.1667 12.659 20.1667H33.5313C34.1693 20.1667 34.6875 19.7558 34.6875 19.2501C34.6876 19.25 34.6876 2.74999 34.6876 2.74999Z" fill="white"/>
<path d="M26.7611 16L23 12.2389L19.2389 16L18 14.7611L21.7611 11L18 7.23886L19.2389 6L23 9.76114L26.7611 6L28 7.23886L24.2389 11L28 14.7611L26.7611 16Z" fill="white"/>
</svg>
