<?xml version="1.0" encoding="utf-8"?>
<!-- Generator: Adobe Illustrator 27.5.0, SVG Export Plug-In . SVG Version: 6.00 Build 0)  -->
<svg version="1.1" xmlns="http://www.w3.org/2000/svg" xmlns:xlink="http://www.w3.org/1999/xlink" x="0px" y="0px"
	 viewBox="0 0 750 500" style="enable-background:new 0 0 750 500;" xml:space="preserve">
<g id="Background_Complete">
	<g>
		<path style="fill:#EBEBEB;" d="M377.547,384.271h109.237c0,0-9.66-17.579-37.778-15.02c-26.854,2.444-28.22-8.648-41.874-10.013
			C393.477,357.872,382.098,368.341,377.547,384.271z"/>
	</g>
	<g>
		<path style="fill:#EBEBEB;" d="M520.833,307.153h59.876c0,0-5.295-9.635-20.707-8.233c-14.719,1.339-15.468-4.74-22.952-5.489
			C529.565,292.683,523.328,298.421,520.833,307.153z"/>
	</g>
	<g>
		<path style="fill:#E0E0E0;" d="M69.728,157.059h90.306c0,0-7.986-14.532-31.231-12.417c-22.2,2.02-23.329-7.149-34.617-8.278
			C82.898,135.235,73.491,143.889,69.728,157.059z"/>
	</g>
	<g>
		<g>
			<path style="fill:#EBEBEB;" d="M555.496,424.288c-13.492-8.832-16.918-25.74-16.768-41.016c0.025-2.551-0.324-5.23,0.849-7.494
				c1.174-2.265,4.001-3.861,6.339-2.843c1.938,0.844,2.829,3.026,3.946,4.821c1.486,2.387,3.661,4.341,6.194,5.563
				c1.665,0.803,3.711,1.269,5.313,0.346c2.197-1.266,2.385-4.308,2.307-6.843c-0.146-4.721-0.291-9.443-0.437-14.165
				c-0.078-2.534-0.15-5.12,0.59-7.545c0.74-2.424,2.449-4.7,4.875-5.434c2.426-0.733,5.481,0.585,6.058,3.052
				c0.24,1.027,0.053,2.104,0.15,3.154c0.097,1.05,0.623,2.202,1.642,2.472c1.031,0.272,2.041-0.471,2.791-1.231
				c2.587-2.622,4.305-5.961,5.905-9.28c1.601-3.318,3.149-6.712,5.485-9.56c2.336-2.848,5.609-5.139,9.28-5.433
				c3.672-0.294,7.645,1.853,8.662,5.394c1.02,3.55-1.004,7.225-3.231,10.172c-3.304,4.372-7.244,8.263-11.657,11.511
				c-0.796,0.586-1.658,1.22-1.945,2.166c-0.516,1.702,1.148,3.342,2.851,3.857c1.93,0.583,4.002,0.337,6.009,0.522
				c2.008,0.185,4.199,1.004,5.002,2.853c1.115,2.566-1.014,5.333-3.13,7.162c-4.237,3.664-9.107,6.595-14.328,8.625
				c-1.872,0.728-3.845,1.373-5.336,2.72c-1.491,1.347-2.354,3.646-1.391,5.408c0.965,1.765,3.341,2.28,5.31,1.87
				c1.969-0.409,3.714-1.511,5.583-2.259c3.496-1.399,8.059-1.267,10.393,1.688c1.534,1.943,1.732,4.695,1.039,7.071
				c-0.693,2.376-2.167,4.443-3.739,6.355c-5.495,6.684-12.606,12.129-20.722,15.125C571.268,426.09,563.703,427.03,555.496,424.288
				"/>
		</g>
		<g>
			<g>
				<path style="fill:#E0E0E0;" d="M604.883,334.859c0,0-0.079,0.087-0.246,0.243c-0.181,0.165-0.43,0.393-0.749,0.685
					c-0.66,0.601-1.632,1.488-2.852,2.665c-2.443,2.345-5.869,5.872-9.564,10.674c-1.855,2.394-3.777,5.101-5.787,8.042
					c-2.004,2.947-4.125,6.109-6.229,9.517c-2.105,3.405-4.206,7.052-6.075,10.984c-0.943,1.962-1.777,4.011-2.626,6.1
					c-0.846,2.088-1.703,4.206-2.571,6.349c-3.44,8.586-6.447,16.879-8.55,24.61c-2.117,7.725-3.313,14.866-3.762,20.904
					c-0.463,6.041-0.212,10.955,0.125,14.323c0.178,1.684,0.344,2.99,0.489,3.87c0.063,0.428,0.112,0.761,0.148,1.004
					c0.032,0.227,0.037,0.345,0.037,0.345s-0.426-1.831-0.822-5.203c-0.383-3.37-0.677-8.297-0.246-14.358
					c0.416-6.058,1.587-13.228,3.691-20.977c2.089-7.755,5.093-16.068,8.535-24.659c0.869-2.144,1.727-4.263,2.574-6.351
					c0.849-2.084,1.69-4.147,2.64-6.117c1.882-3.947,3.996-7.601,6.112-11.009c2.117-3.409,4.251-6.569,6.268-9.51
					c2.024-2.937,3.962-5.64,5.835-8.028c3.732-4.793,7.198-8.302,9.675-10.616c1.238-1.162,2.226-2.032,2.904-2.615
					c0.33-0.28,0.587-0.498,0.774-0.657C604.786,334.926,604.883,334.859,604.883,334.859z"/>
			</g>
		</g>
		<g>
			<g>
				<path style="fill:#E0E0E0;" d="M573.137,377.467c-0.026,0.005-0.117-0.379-0.26-1.078c-0.146-0.698-0.328-1.714-0.536-2.971
					c-0.417-2.516-0.879-6.008-1.378-9.86c-0.5-3.854-1.021-7.33-1.492-9.83c-0.231-1.251-0.431-2.262-0.58-2.957
					c-0.144-0.697-0.212-1.086-0.186-1.093c0.025-0.006,0.142,0.371,0.331,1.058c0.194,0.687,0.434,1.692,0.7,2.939
					c0.541,2.494,1.106,5.976,1.606,9.833c0.49,3.819,0.933,7.276,1.266,9.87c0.168,1.207,0.308,2.212,0.415,2.987
					C573.121,377.07,573.163,377.462,573.137,377.467z"/>
			</g>
		</g>
		<g>
			<g>
				<path style="fill:#E0E0E0;" d="M605.999,370.59c0.001,0.013-0.116,0.034-0.338,0.063c-0.268,0.03-0.589,0.065-0.975,0.107
					c-0.846,0.089-2.071,0.215-3.579,0.42c-3.016,0.386-7.166,1.07-11.708,2.027c-4.542,0.966-8.613,2.017-11.535,2.867
					c-1.464,0.414-2.639,0.783-3.452,1.034c-0.371,0.113-0.681,0.207-0.939,0.285c-0.216,0.061-0.331,0.087-0.336,0.075
					c-0.004-0.013,0.103-0.063,0.311-0.148c0.251-0.096,0.553-0.213,0.916-0.353c0.799-0.295,1.965-0.704,3.422-1.152
					c2.908-0.917,6.981-2.013,11.534-2.981c4.553-0.96,8.721-1.604,11.755-1.922c1.515-0.171,2.747-0.257,3.598-0.3
					c0.389-0.014,0.712-0.026,0.982-0.036C605.879,370.572,605.998,370.576,605.999,370.59z"/>
			</g>
		</g>
		<g>
			<g>
				<path style="fill:#E0E0E0;" d="M559.645,414.014c-0.012,0.006-0.09-0.131-0.227-0.396c-0.153-0.304-0.347-0.691-0.587-1.169
					c-0.506-1.016-1.202-2.504-2.038-4.353c-1.677-3.697-3.836-8.874-6.145-14.617c-2.311-5.744-4.427-10.931-6.039-14.652
					c-0.799-1.824-1.452-3.316-1.926-4.4c-0.213-0.49-0.385-0.887-0.521-1.198c-0.115-0.276-0.17-0.424-0.158-0.429
					c0.012-0.006,0.09,0.131,0.228,0.396c0.152,0.303,0.346,0.69,0.586,1.168c0.506,1.016,1.201,2.504,2.038,4.353
					c1.677,3.697,3.836,8.874,6.146,14.619c2.31,5.742,4.427,10.929,6.038,14.65c0.799,1.823,1.452,3.316,1.926,4.4
					c0.213,0.49,0.385,0.887,0.521,1.198C559.602,413.861,559.657,414.009,559.645,414.014z"/>
			</g>
		</g>
		<g>
			<g>
				<path style="fill:#E0E0E0;" d="M603.169,399.014c0.004,0.012-0.146,0.074-0.433,0.179c-0.328,0.115-0.748,0.262-1.267,0.443
					c-1.148,0.394-2.73,0.937-4.666,1.601c-3.937,1.357-9.353,3.297-15.331,5.456c-5.98,2.159-11.414,4.061-15.377,5.353
					c-1.982,0.647-3.589,1.155-4.706,1.486c-0.528,0.154-0.956,0.279-1.288,0.376c-0.296,0.082-0.453,0.118-0.457,0.105
					c-0.004-0.013,0.146-0.074,0.434-0.18c0.327-0.115,0.747-0.262,1.266-0.443c1.147-0.394,2.729-0.937,4.665-1.601
					c3.938-1.356,9.354-3.299,15.334-5.457c5.978-2.158,11.412-4.061,15.374-5.352c1.981-0.647,3.589-1.155,4.707-1.486
					c0.528-0.154,0.955-0.279,1.288-0.376C603.008,399.038,603.165,399.001,603.169,399.014z"/>
			</g>
		</g>
	</g>
</g>
<g id="Background_Simple" style="display:none;">
	<path style="display:inline;fill:#EBEBEB;" d="M161.759,183.868c-13.673-36.073-3.373-79.962,24.921-106.185
		c28.293-26.223,72.837-33.165,107.769-16.796c23.003,10.779,40.757,29.933,59.19,47.413c18.433,17.479,39.417,34.302,64.499,38.329
		c38.617,6.201,76.432-19.309,115.407-16.056c28.957,2.417,55.8,22.113,66.796,49.01c10.996,26.896,16.286,64.332-2.684,86.343
		c-20.046,23.259-41.819,38.654-88.482,52.706c-65.524,19.732-143.64,15.951-208.044-7.176
		c-26.823-9.632-53.646-24.169-78.064-38.865c-13.278-7.991-22.275-25.45-33.294-36.347
		C178.754,225.347,162.947,199.319,161.759,183.868"/>
</g>
<g id="Floor">
	<g>
		<path style="fill:#263238;" d="M701.274,455.172c0,0.144-146.089,0.26-326.258,0.26c-180.231,0-326.29-0.117-326.29-0.26
			s146.058-0.26,326.29-0.26C555.184,454.912,701.274,455.028,701.274,455.172z"/>
	</g>
</g>
<g id="Map_1_">
	<g>
		<g>
			<path style="fill:#455A64;" d="M662.575,312.921c-0.305,1.533-1.278,3.236-2.555,4.299c-0.922,0.771-3.854,2.329-4.19,0.125
				c-0.093-0.614,0.571-3.465,0.815-4.054c0.723-1.721,1.494-0.596,2.659-0.369C660.499,313.154,661.622,312.053,662.575,312.921z"
				/>
			<path style="fill:#455A64;" d="M654.602,134.343c0.416,1.473,0.7,2.925,1.025,4.299c-1.128,1.684-3.356,1.061-5.008,1.963
				c-0.777,0.425-0.991,1.976-1.74,2.211c-0.601,0.189-1.066-0.627-1.634-0.614c-1.468,0.034-2.186,2.952-3.988,2.211
				c-1.03,0.738,0.041,3.566-1.226,3.805c-0.901,0.171-1.396-1.228-1.944-2.087c-0.661-1.042-1.606-1.613-1.632-2.457
				c-0.028-0.875,1.466-2.339,1.938-2.946c0.581-0.747,1.721-2.14,2.453-2.335c1.363-0.36,2.746,0.158,3.785-0.366
				c0.895-0.459,0.947-2.153,1.43-2.58c0.41-0.363,0.877-0.264,1.229-0.49c0.948-0.617,1.972-2.742,1.43-4.913
				c-0.341-1.371-2.233-2.872-1.02-4.547c1.81,0.233,4.198,2.376,4.496,4.547c0.117,0.847-0.274,1.694-0.206,2.578
				C654.026,133.13,654.418,133.676,654.602,134.343z"/>
			<path style="fill:#455A64;" d="M655.012,120.954c-0.23,0.626-0.692,0.496-1.123,0.859c-0.418,0.354-0.914,1.48-1.43,1.598
				c-0.822,0.186-1.743-0.968-2.559-0.735c-0.957,0.273-0.397,1.157-0.715,2.208c-0.839-0.214-2.215-1.337-2.248-2.456
				c-0.023-0.704,0.738-1.138,0.922-1.963c0.302-1.405-0.483-2.112-0.922-3.44c-0.031-0.198,0.097-0.211,0.101-0.369
				c0.998-0.251,2.96,2.01,5.214,2.456C653.709,119.4,654.927,119.245,655.012,120.954z"/>
			<path style="fill:#455A64;" d="M651.233,245.619c0.104,1.021-1.378,0.902-1.534,0.242
				C649.728,245.07,651.05,244.822,651.233,245.619z"/>
			<path style="fill:#455A64;" d="M644.075,110.638c1.012,0.642,3.464,2.1,1.737,3.44
				C644.766,113.613,643.678,112.024,644.075,110.638z"/>
			<path style="fill:#455A64;" d="M639.375,240.216c1.169-0.766,2.447-2.447,4.496-1.601c-0.449,1.529-1.99,1.498-2.963,2.212
				c-0.986,0.722-1.82,1.947-3.067,2.087c-0.096-0.218-0.229-0.382-0.41-0.493C637.426,241.05,638.564,240.737,639.375,240.216z"/>
			<path style="fill:#455A64;" d="M636.615,217.122c1.2,0.003,2.331-0.444,3.164,0.124c-0.155,3.071-4.119,0.736-6.742,1.229
				c-0.56,0.103-0.725,0.623-1.332,0.365c0.034-1.038,0.969-2.089,1.942-2.208C634.397,216.539,635.518,217.119,636.615,217.122z"/>
			<path style="fill:#455A64;" d="M637.635,220.928c0.116,1.7-1.815,1.888-2.352,3.198c0.849,1.56,1.18,3.74,2.148,5.154
				c-0.041,0.937,0.158,2.162-0.308,2.58c-2.057,0.474-3.164-3.969-3.987-5.524c-1.573,0.354-0.137,6.399-2.246,5.649
				c-1.035-0.37,0.013-2.097-0.206-3.437c-0.191-1.179-1.151-1.421-1.226-2.339c-0.059-0.757,0.694-1.56,0.919-2.332
				c0.325-1.114,0.118-3.257,1.226-3.313c0.547-0.03,1.281,1.381,1.636,1.471C634.46,222.351,635.911,220.54,637.635,220.928z"/>
			<path style="fill:#455A64;" d="M633.853,239.23c-0.376,0.93-2.478,0.483-2.655-0.37
				C631.555,237.893,633.677,238.184,633.853,239.23z"/>
			<path style="fill:#455A64;" d="M631.909,242.176c-0.118,0.183-0.255,0.348-0.405,0.494c-0.777-0.299-1.606-0.525-1.84-1.474
				C630.237,240.185,631.884,241.022,631.909,242.176z"/>
			<path style="fill:#455A64;" d="M629.15,239.105c-0.518,0.885-2.317-0.071-2.963,0.859c-1.064-0.031-2.134-0.047-2.352-1.104
				c0.307-0.899,1.276-0.282,2.044-0.368C627.114,238.358,628.822,237.316,629.15,239.105z"/>
			<path style="fill:#455A64;" d="M614.739,286.146c-0.008-1.085-0.573-2.04-0.718-3.191c-0.051-0.416,0.051-0.953,0-1.477
				c-0.067-0.76-0.38-1.392-0.307-1.842c0.142-0.812,0.931-0.899,1.127-1.596c0.321-1.145-0.392-1.328-0.41-2.702
				c-0.013-0.97,0.612-1.442,1.025-2.702c0.189-0.583,0.197-1.672,0.406-2.087c0.266-0.523,1.397-0.967,1.84-1.225
				c1.567-0.924,2.824-2.642,4.399-2.95c0.397-0.077,0.939,0.06,1.226,0c0.927-0.195,2.091-1.128,3.373-1.473
				c1.24-0.338,2.337-0.211,3.271-0.863c1.026-0.71,2.476-2.571,2.86-3.684c0.467-1.349,0.33-2.487,1.227-2.947
				c0.441-0.223,0.872,0.019,1.329-0.121c0.473-0.149,1.49-0.729,1.841-1.106c0.713-0.766,0.829-2.022,1.635-2.825
				c0.559-0.553,1.61-1.406,2.353-1.839c0.436-0.264,1.247-0.537,1.632-0.494c1.443,0.148,2.114,2.566,3.681,2.087
				c0.56-0.17,1.131-1.6,1.639-2.456c0.736-1.253,1.273-2.94,2.554-3.315c1.034-0.305,2.191,0.477,2.759-0.615
				c0.129-0.776-0.483-1.237,0-1.721c1.193,0.09,3.206,2.021,5.008,2.086c0.971,0.038,2.772-1.271,2.966,0.494
				c0.085,0.781-0.727,1.411-0.919,2.211c-0.137,0.564,0.201,0.869-0.103,1.474c-0.832,0.394-1.712,0.601-1.737,1.718
				c-0.031,1.402,1.649,2.059,2.655,2.828c0.692,0.524,1.268,1.327,1.637,1.594c0.315,0.223,0.813,0.329,1.022,0.49
				c0.664,0.518,1.134,1.691,2.047,1.722c1.038,0.03,2.075-1.561,2.656-3.075c0.68-1.768,0.718-3.914,1.02-5.771
				c0.103-0.621,0.47-1.226,0.614-1.842c0.395-1.679,0.93-3.949,2.145-4.544c1.221,1.553,1.637,4.575,1.435,7.128
				c0.815,0.744,2.251,0.496,2.45,2.211c0.07,0.592-0.245,1.349-0.204,1.961c0.07,1.035,0.71,1.941,0.821,2.825
				c0.204,1.637-0.227,2.987,0.405,4.177c0.798,1.502,2.362,1.452,3.374,3.075c-0.018,1.007,0.315,1.414,0.511,2.205
				c0.096,0.376,0.005,0.987,0.104,1.232c0.328,0.821,1.213,0.902,1.533,1.593c0.158,0.341,0.113,0.984,0.307,1.597
				c0.28,0.902,0.953,1.575,1.431,2.457c0.462,0.853,1.218,1.781,1.329,2.459c0.205,1.223-0.534,2.062-0.717,3.068
				c-0.22,1.221,0,2.797-0.405,4.053c-0.475,1.476-1.645,2.931-2.558,4.789c-0.749,1.528-1.769,3.25-2.863,4.298
				c-0.646,0.621-1.412,0.98-2.045,1.6c-0.978,0.958-1.781,2.202-2.656,3.315c-0.921,1.169-2.036,2.062-2.762,3.067
				c-1.05,1.461-1.572,3.818-3.371,4.054c-1.053,0.139-1.998,0.03-2.966,0.493c-1.513,0.722-2.517,2.053-3.268,2.087
				c-0.79,0.03-1.52-1.114-2.251-1.229c-0.818-0.127-1.461,0.745-2.656,0.736c-0.488-0.003-0.733-0.348-1.43-0.614
				c-1.461-0.555-3.067-0.533-3.271-2.454c-0.116-1.048,0.555-1.519,0.509-2.459c-0.045-0.937-0.809-1.172-1.126-1.964
				c0.201-0.846,0.234-1.913-0.511-2.459c-0.025-0.763,0.137-1.309,0.41-1.718c-0.593,0.304-1.376,0.493-2.047,0.986
				c-0.744,0.539-1.281,1.78-2.142,1.594c-0.808-0.341-0.188-1.306-0.307-2.087c-0.09-0.596-1.221-3.136-1.74-3.561
				c-0.591-0.487-2.754-1.463-3.474-1.6c-3.159-0.593-5.172,1.436-7.669,1.725c-0.64,0.071-1.337-0.13-1.939,0
				c-2.054,0.431-4.344,2.391-5.624,3.682c-2.115,0.251-4.257-0.521-6.441,0.248c-2.166,0.759-3.406,2.928-6.742,2.329
				c-0.661-0.683-1.836-1.021-1.841-2.209c-0.008-0.937,1.154-1.541,1.533-2.211c0.403-0.717,1.092-2.404,1.123-3.44
				c0.021-0.816-0.457-1.792-0.41-2.822C614.367,287.802,614.744,286.944,614.739,286.146z"/>
			<path style="fill:#455A64;" d="M613.002,234.931c0.558-0.093,0.973-0.588,1.533-0.61c1.19-0.056,2.37,1.057,3.779,0.855
				c0.307,0.398,0.098,0.727,0.106,1.356c1.195,0.766,3.156,0.626,3.779,2.084c-0.896,1.141-2.225,0.322-3.373,0.121
				c-1.038-0.177-2.142-0.09-3.271-0.245c-1.43-0.199-2.724-1.148-4.086-1.349c-0.829-0.124-1.675,0.142-2.455,0
				c-0.919-0.171-4.346-1.725-4.395-2.822c-0.05-1.132,1.543-1.452,2.963-1.232C609.418,233.377,610.645,235.326,613.002,234.931z"
				/>
			<path style="fill:#455A64;" d="M615.758,226.458c-0.772-0.261-1.497-0.118-1.835-0.37c-0.7-0.517-0.597-1.988-0.821-2.825
				c-0.225-0.847-1.073-1.299-1.53-2.456c-0.667-1.675-0.953-5.425,0.815-5.772c0.712-0.143,1.445,0.515,1.941,0.369
				c0.986-0.292,0.813-1.824,1.636-2.46c0.456-0.354,1.294-0.205,1.944-0.49c0.669-0.295,1.172-1.06,1.634-1.719
				c0.429-0.613,0.764-1.643,1.329-2.086c0.635-0.504,1.224-0.515,1.737-0.984c1.34-1.228,1.383-2.941,2.453-4.423
				c0.909-1.253,2.344,1.207,2.455,2.212c0.508,0.781,1.507,0.973,1.941,1.842c-0.601,2.161-2.3,2.348-1.941,5.403
				c0.059,0.499,0.341,1.424,0.614,2.09c0.292,0.719,1.156,1.495,1.123,1.963c-0.067,0.918-1.606,0.878-1.944,1.842
				c-0.31,0.893,0.023,0.952-0.101,2.332c-0.43,1.002-1.585,1.243-1.944,2.46c-0.431,1.46,0.065,3.349-0.918,4.423
				c-0.68-0.044-1.423,0.707-2.246,0.61c-0.896-0.098-1.75-1.576-3.173-1.598c-0.542-0.005-1.182,0.417-1.737,0.369
				C616.755,227.155,616.401,226.672,615.758,226.458z"/>
			<path style="fill:#455A64;" d="M609.145,223.725c2.6,0,2.6,4.849,0,4.849C606.543,228.574,606.543,223.725,609.145,223.725z"/>
			<path style="fill:#455A64;" d="M605.332,223.139c0.32,0.052,1.451,1.942,1.432,2.459c-0.036,0.866-1.117,0.819-1.432,1.964
				c-0.48,1.765,0.217,3.764-0.612,4.67c-0.464,0.338-1.303,0.237-2.044,0.243c-1.854-1.567-3.322-3.434-4.908-5.527
				c-0.575-0.76-1.277-1.421-1.636-2.212c-0.532-1.172-0.721-2.462-1.327-3.56c-0.537-0.964-1.52-1.653-2.046-2.701
				c-0.427-0.863-0.468-1.995-0.917-2.826c-0.422-0.771-1.135-1.103-1.639-1.721c-0.325-0.403-0.511-1.032-0.815-1.473
				c-1.285-1.849-3.756-2.813-3.882-5.527c0.524-0.719,1.064,0.27,2.042,0.493c0.634,0.143,1.383-0.062,1.84,0.122
				c0.929,0.375,1.569,2.118,2.555,3.07c0.552,0.534,1.273,0.902,1.837,1.473c0.607,0.611,1.051,1.486,1.534,1.842
				c0.666,0.49,1.587,0.812,2.454,1.477c1.182,0.902,3.292,1.841,3.578,3.687c0.07,0.456-0.179,1.231-0.104,1.591
				c0.142,0.645,0.821,0.924,1.227,1.474c0.503,0.685,0.606,1.708,1.328,1.844C604.519,224.243,604.552,223.018,605.332,223.139z"/>
			<path style="fill:#455A64;" d="M557.085,197.347c0.88,0.347,3.818,4.636,2.964,7.003c-0.243,0.673-1.256,1.539-2.249,1.349
				c-2.024-0.385-1.637-5.796-1.022-7.984C556.835,197.539,556.941,197.415,557.085,197.347z"/>
			<path style="fill:#455A64;" d="M489.109,259.498c0.091-0.989,0.677-2.612,1.329-3.198c0.943-0.841,2.217-0.754,3.169-1.349
				c0.785-0.493,1.872-1.309,2.453-2.211c0.493-0.766,0.519-1.64,0.922-2.212c0.273-0.394,0.893-0.499,1.223-0.98
				c0.297-0.434,0.233-1.24,0.718-1.718c1.419-0.73,1.827,2.394,2.047,4.54c0.064,0.67,0.354,1.387,0.302,1.719
				c-0.147,0.98-1.045,1.182-1.327,1.849c-0.07,2.691-0.949,5.03-1.74,7.241c-0.679,1.912-1.073,4.005-1.633,5.652
				c-0.204,0.599-0.633,1.067-0.816,1.594c-0.738,2.09-1.009,5.372-2.353,6.265c-0.483,0.319-2.35,0.868-2.863,0.859
				c-1.252-0.022-2.337-1.151-2.656-2.454c-0.173-0.698-0.003-1.427-0.103-2.212c-0.125-0.986-0.612-1.827-0.511-2.949
				c0.227-2.5,2.253-3.713,2.351-5.772C489.696,262.612,488.967,261.071,489.109,259.498z"/>
			<path style="fill:#455A64;" d="M439.841,84.722c0.119,2.059-2.62,1.802-2.966,3.563c-0.155,0.797,0.32,1.861,0.207,2.578
				c-0.209,1.29-1.247,0.915-2.556,1.597c-0.668,0.348-1.316,1.625-2.044,1.718c-0.673,0.087-1.084-0.472-1.533-0.366
				c-0.671,0.152-0.447,1.141-1.432,1.349c-0.785,0.164-2.158-0.844-2.249,0.369c-0.059,0.778,1.234,1.2,2.045,1.104
				c0.643-0.074,1.113-0.605,1.737-0.614c1.21-0.013,1.998,1.079,2.759,1.107c1.755,0.059,3.477-1.948,5.318-1.721
				c0.831,0.102,1.324,0.809,1.941,0.738c0.986-0.112,1.825-1.48,2.555-1.966c-0.31-2.068,0.028-4.798,1.637-4.913
				c1.105-0.077,2.762,2.27,2.963,0c0.088-0.986-0.872-1.858-1.533-1.842c-0.588,0.015-1.36,1.399-1.84,0.248
				c0.003-1.126,1.053-0.828,1.637-1.107c0.433-0.208,0.741-0.775,1.226-0.983c2.431-1.026,5.802,1.008,6.746-1.473
				c-2.157-2.211-5.83,0.806-8.28,0.614c-1.045-0.081-2.424-1.014-2.759-2.211c-0.106-0.378-0.018-0.887-0.103-1.594
				c-0.093-0.784-0.431-1.606-0.408-2.09c0.103-2.218,4.7-2.636,4.7-5.402c-0.877-1.011-3.451-0.841-4.292,0.245
				c-0.302,0.391-0.287,1.181-0.715,1.966c-0.917,1.678-3.877,1.876-4.804,3.929c-0.207,0.456-0.565,1.703-0.41,2.456
				C437.629,83.184,439.771,83.5,439.841,84.722z M415.512,204.84c-2.945-0.518-5.958,0.909-7.974,1.963
				c-1.164,0.611-2.349,1.542-3.373,1.598c-0.971,0.057-1.926-0.62-2.86-0.735c-1.218-0.152-2.78-0.012-3.988,0.245
				c-1.174,0.251-2.235,1.259-3.271,1.349c-1.983,0.18-3.867-2.146-5.111-3.315c-0.761-0.713-1.536-1.297-2.248-1.964
				c-0.764-0.719-1.755-1.154-2.351-1.842c-0.805-0.936-0.805-2.565-1.226-3.808c-0.498-1.464-2.013-2.54-3.169-3.93
				c-0.865-1.039-2.85-2.592-3.067-3.929c-0.109-0.683,0.243-1.47,0.204-2.211c-0.054-1.077-0.728-1.687-0.715-2.457
				c0.021-1.079,1.079-1.914,1.329-2.825c0.129-0.465,0.067-1.123,0.204-1.718c0.287-1.247,0.974-1.985,0.819-3.808
				c-0.062-0.726-0.581-1.39-0.614-2.332c-0.021-0.645,0.353-1.005,0.307-1.597c-0.078-1.048-1.211-1.253-1.33-2.456
				c-0.119-1.244,0.989-2.271,1.637-3.685c0.292-0.633,0.452-1.604,0.715-2.087c0.573-1.045,1.508-1.551,1.944-2.58
				c0.32-0.76,0.423-1.886,0.715-2.456c0.377-0.732,1.125-1.126,1.84-2.087c0.581-0.785,0.818-1.734,1.226-2.087
				c0.514-0.447,1.281-0.555,1.841-0.859c1.892-1.036,3.276-2.37,4.19-4.547c-0.279-1.975,0.142-2.81,0.818-4.174
				c0.625-1.262,1.082-2.469,2.148-3.195c1.278-0.868,2.478-0.949,3.371-2.577c0.447-0.815,1.118-2.224,1.126-3.07
				c0.01-1.216-1.038-2.773-1.942-2.95c-0.924-0.176-2.344,0.844-2.862-0.366c-0.165-0.388,0.062-1.293,0-1.721
				c-0.118-0.804-0.692-1.371-0.715-1.964c-0.049-1.154,0.944-2.354,1.226-3.684c0.383-1.812,0.013-3.197-0.103-5.282
				c1.43-2.708,4.605-1.365,7.77-1.107c0.475,0.04,1.019-0.137,1.533-0.121c1.877,0.052,3.353,0.732,3.985-1.229
				c0.238-0.738,0.45-3.483,0.307-4.177c-0.168-0.822-1.51-2.953-2.148-3.437c-1.014-0.776-2.486-0.438-3.066-1.842
				c0.472-2.425,2.733-0.406,4.089-0.983c0.692-0.295,0.614-1.734,1.229-1.967c0.418-0.158,0.952,0.506,1.533,0.493
				c0.495-0.012,2.29-1.095,2.759-1.477c0.653-0.53,0.854-1.631,1.43-2.087c0.39-0.307,0.903-0.27,1.329-0.49
				c0.87-0.45,1.97-1.364,2.555-2.211c0.844-1.216,1.224-2.723,2.248-2.946c1.371-0.301,4.471,0.326,4.703-1.476
				c0.219-1.715-1.257-3.064-0.715-4.913c0.429-1.461,1.52-1.203,3.067-2.087c0.746,0.636,0.529,2.453,0.612,3.563
				c0.95,0.009,2.883-0.338,3.066-1.352c0.23-1.265-1.384-2.553-1.737-3.316c-0.382-0.828-0.464-2.283-1.226-2.456
				c-1.556-0.36-3.069,2.578-5.01,2.578c-1.275,0-2.628-1.182-2.964-2.333c-0.191-0.657-0.018-1.278-0.103-1.966
				c-0.124-1.005-0.625-2.047-0.408-3.437c0.782-1.613,2.586-1.873,3.885-2.704c0.491-0.313,0.885-0.983,1.43-1.228
				c0.917-0.407,2.271,0.003,3.17-0.615c0.568-0.387,0.408-1.058,0.818-1.842c0.255-0.493,0.88-0.781,1.226-1.349
				c0.24-0.394,0.269-0.99,0.511-1.352c0.888-1.327,2.509-1.817,3.167-3.192c0.291-0.608-0.503-0.834-0.304-1.721
				c0.33-0.856,1.605-0.227,2.349-0.369c1.017-0.189,1.957-1.675,3.066-1.963c1.159-0.301,2.401-0.118,3.477-0.614
				c0.643-0.298,1.234-0.999,1.841-1.107c0.214-0.037,0.818,0.14,1.123,0.124c0.389-0.018,0.81-0.307,1.329-0.369
				c0.751-0.09,1.683,0.22,2.659,0.245c1.616,0.043,3.152-0.583,4.497,0.124c0.704,0.369,0.624,1.327,1.532,1.718
				c0.457,0.198,1.061-0.077,1.738,0c1.001,0.115,2.047,0.946,3.373,1.107c0.472,0.056,0.96-0.071,1.43,0
				c1.461,0.214,3.067,1.138,4.5,1.718c1.197,0.487,3.735,1.092,3.781,2.456c0.057,1.616-2.207,2.087-3.169,2.087
				c-1.608,0-3.738-1.129-5.415-0.49c0.025,2.779,2.521,4.882,4.804,4.544c0.201-1.306-1.291-0.58-1.126-1.842
				c1.019-0.924,2.24,0.62,3.681,0.369c0.562-0.183,0.467-1.16,0.611-1.842c1.216-0.887,2.738-2.189,4.6-1.228
				c0.092-0.217,0.229-0.382,0.41-0.49c0.121-1.349-1.227-2.053-0.511-3.318c0.356-0.871,2.262-0.57,2.555,0.124
				c0.147,0.831-0.472,0.741-0.41,1.473c0.362,0.98,1.195,1.135,1.637,1.107c1.004-0.065,1.202-1.144,2.147-1.721
				c0.382-0.233,0.942-0.257,1.43-0.49c0.579-0.276,1.069-0.834,1.534-0.983c0.341-0.108,0.855,0,1.329-0.124
				c0.604-0.155,1.241-0.738,1.737-0.735c0.617,0,1.058,0.856,1.84,0.983c0.426,0.068,0.911-0.292,1.533-0.369
				c0.501-0.065,1.019,0.071,1.431,0c0.976-0.171,1.647-0.788,2.454-0.738c0.571,0.037,1.549,0.961,1.941,0.493
				c0.661-0.788-0.883-1.374-0.405-2.09c1.566,0.142,3.232,0.099,4.804,0.369c2.336,0.4,4.535,1.79,6.641,1.842
				c-0.199-1.706-1.825-1.216-2.555-1.963c-0.222-0.23-1.136-2.028-1.123-2.58c0.005-0.276,1.157-2.64,1.431-2.947
				c0.901-1.017,3.856-1.011,4.7,0.366c0.578,0.943,0.387,2.363,1.226,2.335c0.723-0.025,1.107-2.159,1.944-2.211
				c0.692-0.043,1.043,1.368,1.737,1.352c0.847-0.021,1.436-1.917,2.556-1.966c0.604-0.028,0.805,0.372,1.736,0.49
				c0.64-0.494-0.214-1.145,0.104-1.842c1.143-0.999,3.753-0.239,5.212-0.859c0.408-0.583-0.519-0.996-0.101-1.597
				c1.26-1.057,3.377-1.154,5.522-1.594c1.311-0.27,2.547-1.365,3.575-1.477c1.074-0.115,2.099,0.757,3.067,0.738
				c0.589-0.012,1.273-0.226,1.841-0.49c0.575-0.27,0.968-0.94,1.535-1.107c0.896-0.264,2.029,0.127,3.067,0
				c1.097-0.133,2.066-0.645,2.86-0.49c0.743,0.142,1.34,1.094,2.045,1.228c2.153,0.403,4.375-0.388,6.337,0.245
				c0.351,0.115,0.705,0.552,1.126,0.738c1.314,0.577,2.209,0.397,2.455,2.332c1.032,0.44,1.639,1.579,2.86,1.966
				c0.815,0.257,1.636-0.124,2.555-0.124c1.208,0,2.754,0.056,3.781,0.245c0.586,0.109,1.069,0.627,1.637,0.739
				c0.413,0.08,0.96-0.053,1.43,0c0.64,0.071,1.215,0.388,1.737,0.369c1.071-0.04,1.884-1.188,2.759-1.352
				c0.471-0.086,1.095,0.201,1.533,0.245c1.722,0.174,3.707-0.27,5.112,0.125c0.751,0.21,2.034,1.203,2.863,1.963
				c0.601,0.552,0.965,1.429,1.533,1.842c0.538,0.391,1.9,1.092,2.455,0.984c0.653-0.124,0.681-0.999,1.327-1.349
				c2.029-0.543,5.627,0.776,7.259-0.124c0.632-0.35,0.508-1.154,1.022-1.597c3.067-0.18,6.123,0.152,8.995,0.245
				c1.01,0.034,2.053-0.31,2.966-0.121c1.012,0.211,1.75,1.43,2.757,1.842c0.671,0.273,1.853,0.13,2.863,0.369
				c0.678,0.159,1.234,0.649,1.736,0.735c1.092,0.186,2.135-0.146,3.173-0.245c2.344-0.227,5.356-0.375,7.666,0.738
				c1.229,0.592,1.745,1.79,3.064,1.963c1.89,0.251,4.815-0.186,6.748,0c0.462,0.047,0.893,0.276,1.226,0.245
				c0.648-0.056,1.043-0.716,1.841-0.735c1.012-0.028,2.622,1.895,4.091,1.597c0.633-0.515-0.509-1.231,0.098-1.721
				c0.576-0.574,1.363-0.006,2.251,0c0.483,0.006,1.077-0.295,1.533-0.245c1.123,0.117,2.189,1.331,3.577,1.718
				c1.102,0.31,2.618,0.425,3.988,0.248c0.981-0.13,1.823-0.527,2.759-0.369c0.452,0.075,0.855,0.468,1.327,0.614
				c0.437,0.133,0.863,0.006,1.227,0.121c0.341,0.111,0.679,0.496,1.025,0.614c1.899,0.654,4.429,0.977,6.44,1.721
				c1.182,0.437,2.391,1.318,3.373,1.349c0.484,0.019,0.914-0.251,1.533-0.245c3.088,0.025,6.72,1.57,6.436,5.037
				c-3.614,0.952-6.637-2.99-10.426-1.842c-0.604,0.183-1.276,0.98-1.224,1.718c0.14,2.14,4.629,1.96,5.005,4.054
				c-0.735,0.661-1.538,0.037-2.145,0.124c-0.922,0.13-2.475,1.3-3.067,1.963c-0.692,0.779-1.298,2.773-2.044,2.949
				c-0.914,0.214-2.308-1.082-3.681-0.738c-0.504,0.127-0.986,0.881-1.43,0.983c-1.128,0.258-2.564-0.738-3.268,0.86
				c0.371,1.123,0.145,2.686,0.918,3.316c0.498,0.409,1.123,0.093,1.737,0.368c0.718,0.323,1.115,1.375,1.735,1.966
				c0.509,0.481,1.051,0.494,1.332,1.104c0.065,0.905-0.3,1.005-0.206,1.597c0.16,1.03,1.5,1.263,1.533,1.964
				c0.046,0.887-0.844,0.698-1.019,1.597c-0.064,0.571,0.55,0.723,0.612,1.474c0.041,0.502-0.338,1.026-0.305,1.597
				c0.044,0.819,0.581,1.364,0.509,2.087c-0.059,0.62-0.509,1.104-0.922,1.352c-1.957-1.51-3.719-3.592-5.826-5.527
				c-2.155-1.985-5.573-4.423-5.927-8.597c-0.012-0.639,1.128-1.142,1.328-2.087c0.082-0.388-0.127-0.94-0.101-1.473
				c0.072-1.442,1.064-2.828,1.024-3.684c-0.049-0.94-1.507-2.686-2.251-2.95c-0.593,0.375-0.007,1.119-0.103,1.721
				c-0.118,0.741-0.867,1.647-1.533,1.719c-1.933,0.201-2.15-2.993-5.214-2.087c-0.793,0.235-1.907,1.672-1.634,3.439
				c0.084,0.537,1.314,1.114,1.226,1.842c-0.085,0.707-2.785,0.915-3.374,0.859c-1.649-0.159-2.498-1.641-3.985-1.597
				c-0.73,0.021-1.37,0.735-1.944,0.859c-3.219,0.707-7.997-1.904-9.094,1.473c-0.158,0.478-0.07,1.101-0.206,1.598
				c-0.199,0.71-0.669,1.268-0.818,1.721c-0.125,0.379-0.104,1.126-0.307,1.718c-0.186,0.536-2.119,2.633-0.408,3.195
				c0.408,0.13,0.599-0.211,1.126-0.124c0.877,0.142,2.338,1.836,3.371,1.842c0.617,0.003,1.471-0.834,1.942-0.859
				c0.947-0.055,1.631,0.679,2.35,1.104c0.688,0.406,1.738,1.259,2.251,1.228c0.965-0.059,0.504-0.862,1.431-1.228
				c1.768,0.63,2.596,2.881,4.292,4.668c0.615,0.645,1.524,1.2,2.352,2.087c0.462,0.496,1.884,1.827,1.944,2.456
				c0.054,0.586-0.398,0.838-0.514,1.352c-0.166,0.747,0.222,1.297-0.204,1.842c-1.631-0.725-1.998-2.658-3.169-4.299
				c-0.434-0.611-0.87-1.337-1.531-2.211c-0.3-0.394-1.384-1.777-2.047-1.473c-1.285,0.586,0.705,2.927,1.023,3.439
				c0.679,1.082,1.58,2.54,1.639,3.685c0.038,0.732-0.397,2.062-0.41,3.315c-0.008,0.847,0.178,1.616,0.103,2.332
				c-0.078,0.72-0.503,1.542-0.717,2.336c-0.24,0.899-0.294,1.976-0.509,2.577c-0.397,1.107-1.734,2.41-2.662,2.456
				c-0.849,0.043-1.213-0.785-2.044-0.735c-1.257,0.071-1.49,1.464-2.246,2.577c0.065,1.21,0.38,1.625,0.204,2.457
				c-0.276,1.303-1.783,1.529-1.737,2.825c0.042,1.2,1.378,1.433,2.042,1.966c0.914,0.729,2.509,2.351,3.376,3.684
				c0.568,0.874,1.389,2.509,1.33,3.437c-0.078,1.216-2.989,2.906-4.195,2.456c-1.143-0.425-0.751-1.737-1.019-2.946
				c-0.209-0.93-0.815-1.33-1.122-2.087c-0.164-0.397-0.089-1.027-0.31-1.473c-0.617-1.25-1.694-0.567-2.967-1.353
				c-0.833-0.514-0.591-1.597-0.918-2.58c-0.439-1.322-2.292-1.945-3.779-1.594c-1.094,0.254-1.435,1.358-2.455,1.594
				c-1.499-1.067,0.307-3.701-1.533-3.93c-1.41-0.177-2.344,2.431-3.17,3.194c-0.558,0.512-1.569,0.617-1.633,1.349
				c-0.121,1.355,1.19,1.079,2.245,1.598c0.958,0.471,1.069,1.774,1.944,1.842c0.731,0.059,1.216-0.906,1.942-0.983
				c1.256-0.133,2.277,0.546,3.066,1.107c-0.51,1.488-3.263,2.58-3.271,4.544c-0.004,1.138,1.098,1.334,1.944,2.087
				c0.713,0.636,1.653,2.432,2.656,3.685c0.434,0.54,1.136,0.896,1.332,1.228c0.472,0.812,0.397,1.802,0.917,2.335
				c0.088,0.673-0.255,0.837-0.204,1.473c0.253,0.884,1.384,0.717,1.636,1.598c-0.209,2.118,0.524,4.112-0.919,4.913
				c-0.666,3.799-1.417,6.771-3.577,8.842c-1.944,1.858-4.51,2.407-6.85,3.316c-0.607,0.236-1.093,1.005-1.634,1.228
				c-1.36,0.555-3.782,0.217-3.882,2.211c-0.057,0.984,1.038,1.576,1.123,2.578c0.129,1.538-1.017,3.085-1.841,3.194
				c-0.593,0.077-1.873-0.419-1.944-1.721c-0.08-1.464,1.512-2.063,1.637-2.946c0.217-1.563-1.123-3.086-2.656-2.947
				c-1.35,0.121-4.421,3.378-4.496,5.158c-0.059,1.33,2.194,4.1,2.963,4.913c2.871,3.04,5.919,4.863,5.416,12.282
				c-0.717,1.88-2.55,2.28-3.985,3.316c-1.093,0.788-1.637,3.232-3.477,3.44c-0.739-0.304-0.307-1.691-0.511-2.333
				c-0.279-0.88-1.742-1.312-2.656-2.211c-0.748-0.739-1.063-1.902-1.636-2.581c-0.715-0.846-1.784-1.023-2.659-1.597
				c-0.55-0.36-0.978-1.625-1.533-1.594c-0.901,0.044-0.588,1.086-0.815,2.822c-0.227,1.709-1.265,3.021-0.922,5.037
				c0.145,0.825,1.002,1.492,1.43,2.332c0.71,1.393,0.809,3.015,1.534,3.809c0.479,0.525,1.296,0.639,1.84,1.104
				c1.084,0.931,2.992,2.947,3.374,4.054c0.444,1.293,0.015,2.816,0.307,4.177c0.341,1.572,2.053,2.699,1.025,4.299
				c-0.978-0.218-1.832-0.987-2.661-1.597c-1.404-1.045-2.05-1.945-2.964-3.685c-0.268-0.509-0.666-1.005-0.818-1.473
				c-0.356-1.101-0.279-2.348-0.612-3.685c-0.287-1.15-1.397-2.969-2.251-3.933c-0.717-0.812-1.99-1.286-2.044-2.456
				c-0.075-1.648,0.464-3.586,0.41-5.528c-0.013-0.419-0.25-0.841-0.305-1.349c-0.108-0.943,0.078-2.097-0.105-2.95
				c-0.168-0.785-0.643-1.492-0.919-2.208c-0.273-0.707-0.552-1.417-0.815-2.335c-0.416-1.42-0.881-4.159-1.841-4.299
				c-1.025-0.149-2.037,2.308-3.374,2.335c-0.686,0.013-1.6-0.648-1.737-1.476c-0.129-0.754,0.322-1.514,0.307-2.332
				c-0.038-1.647-1.011-2.283-1.739-3.44c-0.295-0.468-0.372-1.126-0.615-1.473c-0.464-0.667-1.352-1.039-1.941-1.718
				c-0.56-0.652-1.174-1.588-1.432-2.211c-0.395-0.961-0.522-2.209-1.123-2.335c-0.576-0.121-1.241,0.871-1.84,1.107
				c-0.623,0.245-2.153,0.562-2.76,0.614c-2.052,0.171-3.717-0.487-3.474,2.457c-0.32,1.321-1.481,1.336-2.25,1.963
				c-0.979,0.8-1.691,2.404-2.759,3.684c-0.519,0.627-1.27,1.018-1.737,1.598c-0.39,0.484-0.511,1.259-0.922,1.721
				c-1.09,1.238-2.726,1.343-3.472,3.071c-0.044,2.041,0.802,3.585,0.612,5.523c-0.088,0.884-0.638,1.669-0.717,2.581
				c-0.065,0.781,0.268,1.622,0.105,2.456c-0.091,0.446-0.504,0.682-0.821,1.228c-0.284,0.49-0.398,1.141-0.609,1.473
				c-0.346,0.53-0.911,0.899-1.232,1.353c-0.518,0.738-0.627,1.265-1.123,1.352c-2.24,0.387-2.792-4.733-3.781-6.879
				c-0.457-0.986-1.386-1.876-1.841-3.07c-0.524-1.377-0.684-3.105-1.432-4.668c-0.635-1.334-1.512-2.67-1.941-4.054
				c-0.364-1.169-0.679-2.633-1.022-3.93c-0.364-1.371-0.759-3.095-0.818-4.175c-0.085-1.594,0.255-2.577-0.819-3.194
				c-0.985,0.279-1.424,1.473-2.555,1.473c-1.09,0-4.019-2.271-3.165-4.299c-0.714-1.216-2.513-1.882-3.887-3.315
				c-0.785-0.822-1.495-2.779-2.86-2.946c-0.377-0.047-0.868,0.208-1.228,0.245c-0.865,0.09-2.399-0.093-3.374,0
				c-1.226,0.118-2.741,0.45-4.293,0.245c-0.999-0.13-2.241-0.363-3.271-0.49c-1.309-0.162-3.049-0.534-3.779-1.352
				c-0.454-0.503-0.637-2.112-1.435-2.332c-0.947-0.264-1.469,0.617-2.349,0.859c-1.874,0.515-3.438-0.462-4.704-1.473
				c-0.897-0.716-1.716-1.088-2.35-1.597c-1.554-1.25-1.833-5.009-4.192-5.037c-0.821-0.009-2.127,0.608-2.249,1.722
				c-0.08,0.782,0.777,2.233,1.126,2.826c1.147,1.941,3.252,2.67,3.885,5.279c0.423,0.198,1.286-0.447,1.737,0.124
				c0.396,1.12-0.005,3.197,0.919,3.685c4.249,0.843,5.462-1.954,7.362-3.93c1.102,0.865,0.738,1.622,1.123,2.577
				c0.392,0.98,1.006,1.749,1.737,2.09c0.513,0.236,1.172,0.016,1.944,0.366c0.483,0.22,2.498,2.512,2.558,3.319
				c0.051,0.722-1.324,3.182-1.742,3.805c-0.405,0.608-1.032,0.924-1.226,1.473c-0.145,0.425-0.098,1.327-0.205,1.597
				c-0.188,0.49-1.106,1.129-1.636,1.718c-0.558,0.626-1.208,1.113-1.737,1.597c-0.646,0.596-1.046,1.414-1.737,1.721
				c-1.36,0.602-2.654,0.344-3.781,1.228c-0.739,0.577-0.741,1.879-1.634,2.577c-0.934,0.729-2.533,0.735-3.887,1.476
				c-0.87,0.475-1.391,1.396-2.142,1.718c-0.308,0.13-0.692,0.019-1.025,0.124c-0.68,0.208-1.307,0.788-1.944,0.98
				c-0.504,0.155-1.038,0.077-1.533,0.248c-1.574,0.546-3.017,2.469-4.6,1.349c-0.746-2.069-0.867-4.674-1.737-6.51
				c-0.444-0.937-1.316-1.225-1.634-2.209c-0.044-0.79,0.748-0.574,0.815-1.228c-0.26-1.327-1.303-1.948-1.941-3.073
				c-0.313-0.549-0.457-1.331-0.818-1.963c-1.219-2.131-3.622-3.238-4.09-5.896c-0.126-0.723,0.021-1.29-0.1-1.842
				c-0.201-0.909-0.713-1.864-1.228-2.577c-0.39-0.546-1.187-0.918-1.634-1.721c-0.297-0.53-0.362-1.278-0.614-1.842
				c-1.017-2.28-2.488-4.293-4.089-5.896c-0.834,0.145-1.73,0.214-2.145,0.862c0.415,1.607,1.053,2.952,1.737,4.299
				c0.625,1.225,1.512,2.546,1.941,3.93c0.16,0.511,0.132,1.181,0.308,1.718c0.642,1.948,2.663,2.546,3.066,4.792
				c0.272,1.504-0.059,2.546,0.308,4.051c0.351,1.445,2.127,2.298,2.863,3.684c0.599,1.132,0.604,2.733,1.022,3.809
				c0.612,1.575,2.323,2.258,3.577,3.316c1.126,0.952,1.931,2.419,2.86,3.439c0.547,0.596,1.299,0.704,1.432,1.353
				c0.173,0.831-0.291,1.11-0.41,1.839c0.785,0.983,1.549,2.797,2.863,2.949c0.54,0.062,1.221-0.592,2.045-0.739
				c0.416-0.071,0.88,0.078,1.226,0c0.545-0.118,1.019-0.701,1.639-0.859c1.044-0.27,2.254-0.161,3.575-0.369
				c1.249-0.196,2.109-1.464,3.067-1.104c1.051,1.387,0.297,2.959,0,4.299c-0.104,0.471-0.104,0.958-0.201,1.352
				c-0.552,2.186-1.998,3.806-2.662,5.772c-0.204,0.602-0.168,1.341-0.405,1.964c-0.761,1.969-2.349,3.911-3.581,5.527
				c-0.694,0.909-1.306,1.73-2.044,2.456c-0.733,0.725-1.629,1.12-2.455,1.842c-1.636,1.439-3.34,3.502-4.496,5.406
				c-0.447,0.738-0.66,1.588-1.126,2.212c-0.666,0.893-1.695,1.334-2.248,2.211c-0.437,0.692-0.726,1.945-1.227,3.192
				c-0.562,1.405-1.737,2.354-1.533,4.298c0.077,0.744,0.632,1.207,0.818,1.967c0.317,1.308,0.074,2.41-0.104,3.805
				c0.578,1.684,0.994,3.558,2.045,4.668c0.126,2.485-0.171,4.897,0,7c0.108,1.34,0.542,2.327,0.103,3.561
				c-0.387,1.088-1.871,3.002-2.759,3.684c-0.965,0.748-2.442,0.943-3.477,1.847c-0.72,0.626-1.316,1.724-2.045,2.459
				c-1.205,1.207-2.857,2.335-2.963,3.56c-0.062,0.705,0.462,1.771,0.611,2.454c0.4,1.814,0.788,4.423,0.104,6.385
				c-0.741,2.125-4.488,1.684-4.907,3.93c-0.127,0.682,0.25,1.228,0.204,1.967c-0.037,0.626-0.721,2.884-1.023,3.56
				c-0.451,1.017-1.479,1.473-2.145,2.335c-0.836,1.089-1.26,2.664-2.148,3.805c-1.205,1.557-2.834,3.198-4.395,4.544
				c-1.358,1.179-3.795,2.4-5.927,2.58c-1.241,0.106-2.574-0.351-3.885-0.121c-0.48,0.081-1.001,0.611-1.637,0.736
				c-0.369,0.071-0.746-0.078-1.123,0c-0.643,0.13-1.244,0.744-1.84,0.738c-1.324-0.019-3.025-1.917-3.066-3.806
				c-0.016-0.729,0.519-1.421,0.511-2.09c-0.01-0.784-0.811-1.768-1.433-3.194c-0.596-1.371-0.831-2.925-1.43-4.048
				c-0.635-1.197-1.474-1.765-1.941-2.705c-0.942-1.888-1.011-4.124-1.329-6.389c-0.103-0.738-0.524-1.539-0.615-2.457
				c-0.111-1.128,0.114-2.382-0.101-3.315c-0.165-0.719-0.829-1.451-1.229-2.335c-0.72-1.592-1.226-3.673-1.838-4.91
				c-0.575-1.16-1.737-2.369-1.84-3.684c-0.07-0.894,0.093-2.559,0.204-3.44c0.111-0.863,0.643-1.545,0.819-2.454
				c0.116-0.605-0.023-1.299,0.101-1.966c0.521-2.811,3.098-3.833,2.762-7.248c-0.144-1.449-0.996-2.163-1.125-3.809
				c-0.059-0.769,0.32-1.445,0.307-2.211c-0.018-1.036-0.748-2.577-1.125-3.561c-1.035-2.71-1.67-5.188-3.167-7.245
				c-0.815-1.122-1.884-1.914-2.556-2.95c-0.55-0.843-1.218-2.422-1.228-3.069c-0.01-0.701,0.449-1.139,0.614-1.843
				c0.214-0.906,0.23-2.62,0.511-4.053c0.129-0.657,0.72-2.249,0.615-3.315c-0.103-1.027-1.376-2.996-2.455-3.315
				c-1.428-0.425-2.896,0.548-4.7,0.368C417.639,208.326,417.755,205.234,415.512,204.84z M472.039,248.81
				c0.473-0.902,1.066-3.44,0-4.054c-0.07,0-0.137,0-0.204,0C471.379,245.777,470.894,248.24,472.039,248.81z M470.607,223.139
				c0.346-0.85,1.156-1.749,1.022-2.822c-0.294-2.367-3.978-1.201-4.393,0.49c-0.282,1.138,0.167,2.04-0.207,3.194
				c0.402,0.909,1.412,1.089,2.659,0.981C470.377,224.619,470.292,223.92,470.607,223.139z M464.373,235.793
				c0.405-0.902-0.645-1.492-0.818-2.459c-0.202-1.133,0.229-2.463-0.615-3.071c-0.1,0-0.204,0-0.304,0
				C461.895,232.276,462.943,235.598,464.373,235.793z M534.086,113.83c-0.384-0.928-1.489,0.273-1.019,1.107
				C533.758,114.99,534.006,114.509,534.086,113.83z M510.271,118.867c1.657-0.385,0.018-3.566-1.229-3.194
				C507.414,116.162,509.141,119.127,510.271,118.867z M502.706,134.709c0.51-4.258-2.251-4.578-2.76-7.614
				c0.235,0.037,0.113-0.354,0.308-0.369c0.671-0.388,1.686,0.62,2.041-0.366c0.008-1.455-1.528-2.54-3.067-1.842
				c-0.443-0.366-0.503-1.194-0.612-1.966c-1.159-0.828-4.027-2.64-3.988-4.299c0.033-1.365,1.499-2.131,3.169-2.087
				c0.705-0.642,0.251-2.614-0.408-3.071c-2.643-0.695-4.052-0.226-5.726,1.229c-0.802,0.698-1.698,1.179-2.147,1.597
				c-0.413,0.385-0.965,1.436-0.918,1.963c0.065,0.76,0.971,1.206,1.329,2.211c0.183,0.518,0.144,1.166,0.307,1.597
				c0.447,1.185,1.59,1.951,2.453,2.946c0.609,0.704,2.318,2.23,2.351,3.07c0.031,0.701-0.524,0.856-0.713,1.597
				c-0.193,0.726-0.416,2.441-0.307,3.07c0.224,1.349,1.386,1.396,2.449,1.966c1.056,0.565,2.073,1.563,3.17,1.594
				C500.808,135.975,502.052,135.525,502.706,134.709z M478.683,125.867c2.771-0.601,1.505-3.415,0.101-4.42
				c-1.064-0.763-2.336-1.426-3.577-2.335c-0.72-0.527-3.457-1.523-3.474-2.577c-0.021-1.154,2.036-1.532,1.226-3.563
				c-1.399-0.409-4.726,0.235-4.496,2.087c0.132,1.07,1.188,0.477,1.43,1.597c-1.001,0.428-2.22,1.551-3.271,1.353
				c-1.252-0.235-1.574-2.084-2.248-3.195c-0.973,0.038-1.613-1.132-2.76-0.983c-1.202,0.158-1.84,2.255-2.454,3.319
				c-0.326,0.558-0.844,0.847-1.023,1.349c-0.105,0.304,0.01,0.788-0.1,1.228c-0.351,1.365-1.335,1.864-1.229,3.07
				c0.096,1.063,1.059,1.541,1.127,2.456c-0.068,0.943-1.328,0.453-1.227,1.597c1.829,1.814,1.931-0.856,2.863-1.228
				c0.749-0.301,2.217,0.248,3.167,0c0.767-0.202,1.37-1.079,2.249-1.473c0.537-0.242,1.201-0.456,1.944-0.494
				c3.252-0.161,5.351,2.382,8.177,2.456C476.04,126.137,477.714,126.077,478.683,125.867z M472.14,140.36
				c0.057-1.318-0.418-2.311-0.511-4.175c-1.887-1.368-3.297,1.269-5.212,0.98c-1.177-0.177-2.021-1.824-3.271-1.594
				c-0.689,0.124-1.03,1.194-1.74,1.349c-1.461,0.323-2.127-1.405-3.678-0.735c-2.189-2.003-3.167-5.266-3.681-8.966
				c-1.192-1.88-3.011-0.351-3.884,0.859c-0.537-0.006-1.208-0.356-1.327,0.369c-0.403,2.271,2.672,2.512,2.656,4.054
				c-0.01,1.002-1.2,0.909-1.737,1.594c-0.571,0.729-0.191,1.377-0.919,1.842c-2.016,0.292-2.685-1.033-2.659-3.192
				c-0.87-1.588-1.969-2.745-2.759-4.053c-0.292-0.484-0.728-1.238-0.818-1.966c-0.073-0.574,0.227-1.303,0.103-1.963
				c-0.222-1.172-2.04-2.056-3.17-2.701c-1.208-0.692-2.721-1.346-3.578-2.211c-0.607-0.615-0.893-1.681-1.43-2.087
				c-0.457-0.344-1.025-0.273-1.433-0.614c-0.56-0.471-0.467-1.257-1.226-1.476c-0.385-0.171-0.978,0.459-1.226,0.862
				c-0.498,2.68,1.316,2.863,2.145,4.051c0.571,0.816,0.854,2.044,1.433,2.58c0.617,0.574,1.456,0.468,2.248,0.859
				c0.548,0.27,0.903,1.089,1.43,1.473c0.976,0.713,2.543,0.837,2.659,2.211c-0.607,0.496-1.982-0.723-2.452,0.493
				c-0.121,0.797,0.527,1.207,0.511,1.963c-0.026,1.21-1.144,2.534-2.148,2.335c-0.101-0.72,0.534-1.308,0.511-2.09
				c-0.044-1.563-2.659-3.949-3.985-4.665c-0.622-0.338-1.379-0.356-1.944-0.738c-1.004-0.679-2.762-2.348-3.374-3.315
				c-0.731-1.164-1.355-3.316-2.963-3.195c-0.656,0.05-1.198,0.772-1.737,1.108c-0.491,0.3-1.032,0.58-1.533,0.98
				c-0.596,0.475-1.082,0.955-1.637,0.983c-1.283,0.065-2.372-1.144-3.474-0.859c-0.372,0.096-0.681,0.496-1.125,0.983
				c-0.016,0.716,0.178,1.175,0.103,1.963c-0.333,0.692-1.322,0.648-2.044,1.108c-1.059,0.67-2,2.047-2.863,3.07
				c-0.555,0.658-1.055,1.2-1.125,1.718c-0.055,0.406,0.286,1.176,0.206,1.722c-0.091,0.592-1.017,1.82-1.637,2.332
				c-0.361,0.298-0.842,0.338-1.226,0.614c-0.806,0.574-1.167,1.322-1.84,1.473c-1.786,0.4-5.034-0.431-5.008,1.842
				c0.016,1.519,1.722,1.526,2.76,1.473c1.445-0.068,2.674,0.37,3.474,0.124c0.552-0.167,1.156-0.912,1.737-1.228
				c0.367-0.198,0.746-0.202,1.022-0.369c0.612-0.369,0.958-0.968,1.433-1.229c0.935-0.512,2.674-0.912,3.678-0.983
				c1.378-0.096,2.819,0.171,4.6,0c0.635-0.059,1.262-0.549,1.944-0.614c1.113-0.105,2.576,0.528,3.474,0.493
				c0.622-0.025,1.317-0.751,2.044-0.738c0.824,0.016,1.691,0.72,1.84,1.353c0.085,0.359-0.173,0.933-0.103,1.473
				c0.119,0.893,0.756,1.262,0.717,1.842c-0.054,0.769-1.649,1.796-1.433,2.702c0.142,0.583,1.286,1.191,1.84,1.597
				c0.581,0.425,1.562,1.014,2.248,1.104c0.578,0.077,1.089-0.193,1.637-0.121c0.88,0.115,2.305,0.757,2.863,1.228
				c0.96,0.813,0.826,2.115,1.941,2.577c0.475,0.199,1.332,0.087,1.941,0.249c1.489,0.387,2.594,1.87,3.681,1.718
				c1.712-0.239,0.932-2.177,1.126-3.56c0.436-3.136,5.534-2.993,6.541-0.863c0.746,0.239,1.399,0.037,2.248,0.37
				c0.491,0.192,0.857,0.837,1.329,0.983c0.356,0.108,0.875-0.062,1.329,0c1.959,0.267,3.735,2.019,5.418,1.718
				c1.068-0.19,1.843-1.396,2.86-1.473c1.956-0.145,3.208,1.749,5.317,0.859c1.552-0.654,1.206-2.586,1.737-4.544
				C471.387,142.314,472.099,141.386,472.14,140.36z M582.333,98.477c0.405-1.563-0.225-3.142-1.023-4.175
				c-1.18,0.245-0.328,1.718-0.408,2.581c-0.116,1.219-1.193,2.066-1.126,3.316c-0.392,0.552-1.063,0.769-1.122,1.718
				c0.65,0.54,0.934-0.424,1.43-0.983C580.867,100.053,582.063,99.532,582.333,98.477z M555.552,55.86
				c-1.125,0-1.549,0.533-2.248,0.983c-0.385,0.245-1.167,0.382-0.919,1.104C553.366,57.804,555.318,57.271,555.552,55.86z
				 M512.417,70.967c2.403,0.673,3.531-2.587,1.941-4.423c-0.372-0.428-1.626-0.596-2.143-1.594
				c-0.626-1.201-0.539-2.804-2.047-2.456c-0.016,0.142,0.018,0.347-0.104,0.366c-0.141,2.686,3.113,3.362,3.067,5.527
				C513.108,69.522,512.109,69.643,512.417,70.967z"/>
			<path style="fill:#455A64;" d="M478.784,66.299c-0.297-1.328,1.799-1.114,1.432,0.124
				C479.889,66.793,478.993,66.761,478.784,66.299z"/>
			<path style="fill:#455A64;" d="M466.214,139.746c0.047-1.014,1.972-1.387,2.349-0.49
				C468.436,140.242,466.609,140.921,466.214,139.746z"/>
			<path style="fill:#455A64;" d="M431.153,133.115c1.066-1.036,3.438-0.335,4.907-0.369c-0.276,0.94-0.318,2.159-0.921,2.702
				C433.463,135.084,431.901,134.588,431.153,133.115z"/>
			<path style="fill:#455A64;" d="M423.69,126.605c1.404-1.762,2.878-0.831,2.352,2.577c-0.336,1.017-1.797,2.376-2.455,0.862
				C423.811,128.854,423.716,127.976,423.69,126.605z"/>
			<path style="fill:#455A64;" d="M425.734,122.675c0.116,1.039-0.245,1.504-0.715,1.842
				C423.672,124.232,424.696,121.326,425.734,122.675z"/>
			<path style="fill:#455A64;" d="M405.905,97.742c0.118-0.701-0.339-1.573-0.922-1.966c-0.336-0.227-0.849-0.121-1.226-0.369
				c-0.996-0.658-1.358-2.029-1.941-2.332c0.074-1.346-0.308-2.32,0-3.195c0.185-0.53,1.528-2.028,2.248-2.332
				c0.893-0.378,1.827-0.04,2.352-0.859c0.235-0.04,0.392,0.018,0.511,0.121c-0.005,0.775-0.547,0.902-0.614,1.597
				c0.126,1.116,1.763,0.418,1.941,1.473c-0.155,1.148-1.014,1.374-1.022,2.211c-0.003,0.729,1.239,2.112,1.841,3.071
				c0.449,0.71,1.234,1.237,1.636,1.966c0.351,0.636,0.428,1.393,0.715,1.718c0.537,0.611,1.75,0.713,1.841,1.597
				c0.118,1.173-1.213,1.635-1.022,2.946c-1.404,1.324-3.745,0.639-6.032,0.983c-1.035,0.158-2.176,1.396-3.271,0.369
				c-0.253-0.825,0.909-0.937,1.022-1.718c-0.08-0.726-0.844-0.623-1.022-1.229c0.297-0.955,1.224-1.15,1.126-2.58
				C404.635,98.468,405.732,98.751,405.905,97.742z"/>
			<path style="fill:#455A64;" d="M398.238,94.793c1.365-1.002,3.75-0.236,3.882,0.983c0.101,0.921-0.725,1.055-1.022,2.088
				c-0.266,0.939,0.052,2.056-0.305,2.704c-0.312,0.561-1.162,0.527-1.74,0.735c-1.285,0.462-3.768,2.277-4.804,0.245
				c0.15-1.088,1.028-1.305,1.33-2.208c0.018-0.71-0.612-1.085-0.511-1.842c0.124-0.927,0.705-0.608,1.533-0.983
				C397.203,96.238,397.461,95.364,398.238,94.793z"/>
			<path style="fill:#455A64;" d="M328.422,68.141c0.214,1.092-2.69,2.519-2.966,1.108C325.236,68.12,327.681,66.709,328.422,68.141
				z"/>
			<path style="fill:#455A64;" d="M325.048,344.975c-0.511,0-1.022,0-1.533,0C323.791,344.774,324.772,344.774,325.048,344.975z"/>
			<path style="fill:#455A64;" d="M320.448,59.423c0.132-0.171,0.483-0.171,0.615,0c-0.101,0.288-0.181,0.602-0.615,0.49
				C320.448,59.749,320.448,59.584,320.448,59.423z"/>
			<path style="fill:#455A64;" d="M311.352,78.95c0.021,0.676-2.031,1.796-2.251,0.49c-0.036-0.23,0.01-0.689,0.41-0.98
				C310.056,78.057,311.331,78.286,311.352,78.95z"/>
			<path style="fill:#455A64;" d="M268.827,193.049c-0.054,0.183-0.152,0.31-0.204,0.493
				C267.537,193.495,268.518,191.826,268.827,193.049z"/>
			<path style="fill:#455A64;" d="M227.326,107.199c0.717-0.503,1.404,0.757,0.922,1.352
				C227.457,108.734,227.256,107.648,227.326,107.199z"/>
			<path style="fill:#455A64;" d="M338.744,111.743c-0.477-0.143-1.128-0.115-1.737-0.245c-0.522-0.112-1.141-0.298-1.634-0.369
				c-1.262-0.18-2.628,0.261-3.374-0.614c1.216-1.942,2.832-3.855,4.396-5.527c0.464-0.499,1.464-0.841,1.226-1.842
				c-0.87-0.918-1.939,0.056-2.76,0.614c-0.862,0.583-1.889,1.424-2.863,1.597c-1.691,0.301-3.934-0.596-5.315,0.49
				c-0.191,0.928,1.572,0.568,1.327,1.966c-0.676,0.134-1.316,0.199-1.838-0.369c-0.475-0.515-0.204-1.287-0.511-1.597
				c-0.524-0.521-2.493-0.664-3.374-0.49c-1.074,0.211-2.023,0.983-2.148,2.087c1.291,0.726,3.418-0.747,3.885,1.107
				c-0.707,1.53-2.372,2.37-2.148,4.42c0.088,0.79,0.87,1.848,1.433,1.966c0.565,0.118,0.883-0.555,1.43-0.493
				c0.578,0.065,0.447,0.859,1.125,0.738c0.984-0.506,1.528-2.165,2.656-2.088c1.353,1.973-1.221,2.934-2.656,3.561
				c-1.637,0.714-3.763,1.092-5.01,1.722c-0.653,0.329-3.126,3.201-3.474,0.98c-0.251-1.6,1.223-1.138,1.533-2.456
				c-1.583-0.369-3.057,0.819-4.497,1.477c-2.055,0.934-5.537,1.526-6.032,4.299c-0.098,0.555,0.201,1.594-0.101,1.963
				c-0.245,0.298-1.711,0.35-2.352,0.614c-0.986,0.406-1.846,1.274-2.455,1.473c-0.46,0.152-1.138,0.108-1.43,0.248
				c-0.813,0.379-1.113,1.7-2.044,2.577c-0.382,0.36-1.229,0.62-1.533,0.983c-0.529,0.633-0.599,2.218-1.533,2.456
				c-0.594,0.062-1.076-0.536-1.637-0.123c-0.067,1.566,0.459,3.697-0.101,5.282c-1.211,1.184-2.54,2.025-4.089,3.07
				c-0.857,0.58-1.624,0.729-2.659,1.353c-0.733,0.44-1.404,1.489-2.248,2.087c-1.952,1.38-4.308,3.015-4.293,6.51
				c0.003,0.757,0.328,1.572,0.408,2.456c0.049,0.521-0.052,1.03,0,1.598c0.121,1.284,0.896,2.918,0,3.805
				c-1.376-0.679-3.126-0.909-4.089-2.087c-0.263-1.213,0.532-2.212,0.411-3.316c-0.098-0.887-1.136-2.466-1.74-2.58
				c-0.622-0.118-1.195,0.676-1.838,0.614c-0.764-0.071-1.474-1.337-2.455-1.473c-1.438-0.201-2.496,0.394-4.089,0.124
				c-1.541,0.99-1.993,2.752-3.882,2.577c-0.666-0.059-1.275-0.669-2.044-0.859c-0.834-0.208-2.099-0.561-2.966-0.49
				c-1.74,0.139-3.002,1.644-4.496,2.577c-1.319,0.825-3.186,1.852-3.578,3.564c-0.214,0.921-0.034,2.218-0.307,3.07
				c-0.181,0.561-0.576,1.061-0.819,1.594c-1.146,2.515-2.096,5.84-1.226,9.459c0.129,0.536,1.267,3.563,1.737,4.175
				c0.527,0.679,2.078,1.699,2.964,1.718c0.748,0.018,1.627-0.456,2.352-0.614c0.841-0.18,1.895-0.196,2.659-0.49
				c2.209-0.85,1.773-4.441,3.985-5.651c0.965-0.524,2.083-0.63,3.782-0.735c0.54,0.547,0.792,1.501,0.717,2.332
				c-0.057,0.627-0.552,1.194-0.818,2.088c-0.232,0.785-0.281,1.703-0.511,2.335c-0.305,0.828-0.984,1.433-1.226,2.211
				c-0.16,0.506-0.072,1.135-0.204,1.594c-0.235,0.81-1.136,1.38-0.717,2.211c2.189,1.045,4.837-0.298,6.747,0.124
				c0.805,0.177,2.468,1.334,2.452,2.825c-0.01,1.117-0.718,1.849-0.819,3.071c-0.124,1.538-0.658,3.421-0.715,4.665
				c-0.09,2.038,2.488,5.555,4.293,5.527c1.944-0.031,3.077-2.323,5.418-1.104c0.777,0.403,1.598,1.917,2.455,1.842
				c0.708-0.062,1.776-1.551,2.249-2.58c0.575-1.256,0.617-2.314,1.634-2.947c1.097-0.682,1.969-0.353,3.373-0.983
				c0.627-0.279,1.172-0.76,1.737-1.229c0.496-0.409,1.017-1.482,1.637-0.738c0.816,0.98-0.999,1.532-0.307,2.58
				c1.417,0.903,2.142-1.678,3.17-1.718c0.328-0.012,1.461,0.766,2.044,1.229c0.798,0.63,1.069,1.513,1.941,1.718
				c0.56,0.134,1.461-0.258,2.248-0.124c1.043,0.18,1.665,1.256,2.455,1.228c0.963-0.031,1.425-1.29,2.249-1.473
				c1.804-0.397,2.475,0.242,3.271,1.598c0.891,0.186,0.921-1.237,1.737-0.735c-0.446,1.07,0.153,1.563,0.511,2.456
				c0.232,0.574,0.193,0.98,0.41,1.228c0.488,0.558,1.43,0.558,2.145,1.104c0.754,0.57,1.18,1.631,2.044,2.825
				c0.891,1.222,2.388,2.487,3.578,2.577c1.123,0.087,2.037-0.382,2.966-0.245c2.114,0.313,3.428,1.582,4.907,2.95
				c0.826,0.762,1.572,1.293,1.838,2.208c0.186,0.638,0.096,1.495,0.307,2.212c0.452,1.528,2.308,2.266,1.637,4.913
				c0.307,0.775,0.996,1.054,1.737,1.596c0.594,0.438,1.095,1.349,1.737,1.474c0.415,0.081,0.868-0.15,1.226-0.125
				c1.162,0.099,1.96,0.639,2.966,1.108c0.625,0.289,1.425,0.403,1.841,0.741c0.519,0.419,0.586,1.833,1.226,2.206
				c0.418,0.244,1.348-0.093,2.044,0c1.097,0.155,2.587,0.961,3.578,0.986c0.602,0.015,1.1-0.298,1.634-0.248
				c2.504,0.232,3.924,3.83,6.34,4.913c0.749,0.338,1.936,0.103,2.452,0.369c0.906,0.471,1.67,3.802,1.737,5.278
				c0.206,4.464-2.646,5.896-4.293,8.846c-0.344,0.618-0.534,1.594-1.022,2.457c-0.981,1.734-2.073,2.094-1.941,5.281
				c0.036,0.875,0.408,1.728,0.408,2.702c0,1.188-0.085,2.742-0.307,3.808c-0.168,0.813-0.728,1.473-0.818,2.212
				c-0.091,0.747,0.183,1.327,0.103,1.966c-0.088,0.708-0.677,1.706-1.126,2.699c-0.945,2.097-1.151,4.562-3.067,5.402
				c-1.125,0.496-2.651,0.22-3.882,0.738c-0.498,0.211-1.128,0.763-1.74,1.104c-1.778,0.995-4.313,2.338-4.804,4.544
				c-0.436,1.966,0.609,3.532,0.307,5.774c-0.318,0.668-0.746,1.335-1.226,2.087c-0.441,0.698-0.661,1.517-1.125,2.212
				c-0.615,0.924-1.569,1.334-1.941,2.58c-0.127,0.422-0.047,0.924-0.204,1.594c-0.06,0.248-0.436,0.632-0.615,1.104
				c-0.165,0.437-0.157,0.996-0.307,1.355c-0.467,1.133-1.856,3.71-2.863,4.053c-2.122,0.714-4.36-1.082-5.826-0.741
				c0.212,1.232,0.955,1.104,1.433,1.967c0.279,0.509,0.431,1.182,0.816,1.719c0.459,0.639,0.865,0.874,0.921,1.596
				c0.116,1.514-0.865,3.037-1.534,3.563c-0.612,0.481-1.882,0.763-2.966,0.981c-0.756,0.152-2.708,0.161-3.066,0.741
				c-0.527,0.853,0.279,2.959-0.101,3.805c-0.764,1.796-2.819-0.049-3.885,0.49c-0.091,0.927,0.193,1.899,0.818,2.332
				c0.643,0.453,1.618-0.136,2.044,0.739c-0.209,1.222-1.303,1.38-1.533,2.58c0.029,1.172,0.328,1.479,0.204,2.208
				c-0.266,1.579-2.308,1.514-2.249,3.195c0.088,2.515,4.016,1.485,4.089,3.933c0.041,1.482-1.125,1.498-1.533,2.944
				c-0.22,0.775,0.126,0.955,0,1.596c-0.17,0.872-1.022,1.123-1.022,2.087c-0.003,1.176,1.43,2.469,2.145,3.44
				c0.7,0.953,1.598,2.31,2.556,2.95c1.435,0.952,3.572,0.738,4.192,2.456c-0.196,1.033-1.025,1.31-1.84,1.594
				c-0.067,0-0.137,0-0.204,0c-0.276-0.201-1.257-0.201-1.533,0c-0.477,0-0.955,0-1.43,0c-1.368-0.757-3.028-1.247-4.703-1.963
				c-0.604-0.258-1.285-0.872-1.942-1.225c-0.493-0.271-1.048-0.376-1.432-0.618c-0.88-0.555-1.871-2.354-2.76-3.068
				c-0.539-0.437-1.386-0.667-1.737-1.11c-0.335-0.419-0.519-1.327-0.818-1.839c-0.33-0.564-0.937-0.977-1.33-1.597
				c-0.849-1.356-1.933-3.179-1.941-4.178c-0.008-0.983,0.78-1.65,0.511-2.574c-0.25-0.872-1.82-0.683-2.044-1.724
				c-0.137-0.627,0.452-1.684,0.408-2.575c-0.023-0.517-0.828-1.222-0.51-1.969c0.366-0.86,1.058,0.071,1.636-0.366
				c-0.433-1.773,0.034-4.627-1.432-5.161c-0.754,0.763,0.769,2.479-0.512,2.95c-1.236-0.66-0.95-2.617-1.226-4.053
				c-0.18-0.949-0.573-1.803-0.612-2.825c-0.02-0.537,0.176-1.16,0.101-1.716c-0.217-1.656-1.75-3.012-1.841-4.671
				c-0.041-0.8,0.408-1.476,0.511-2.332c0.072-0.58-0.067-1.231,0-1.842c0.091-0.781,0.45-1.498,0.512-2.211
				c0.121-1.349-0.003-3.664-0.204-4.792c-0.253-1.417-1.19-2.623-1.33-4.172c-0.049-0.561,0.155-1.495,0.103-2.212
				c-0.049-0.667-0.354-1.327-0.408-2.09c-0.052-0.7,0.145-1.367,0.204-2.211c0.108-1.541-0.25-3.26-0.204-4.791
				c0.013-0.45,0.209-0.785,0.204-1.226c-0.013-1.268-0.364-2.546-0.41-3.808c-0.08-2.332,0.214-3.985-0.101-6.141
				c-0.238-1.632-0.532-4.132-1.022-5.155c-0.547-1.144-2.698-3.086-3.782-3.811c-0.715-0.477-1.572-0.642-2.351-1.104
				c-1.665-0.98-4.892-3.055-5.622-5.033c-0.212-0.575-0.184-1.332-0.41-1.967c-0.444-1.259-1.381-2.348-2.045-3.563
				c-1.262-2.318-2.282-5.222-3.578-7.614c-0.656-1.215-1.224-2.593-1.941-3.56c-0.421-0.571-1.768-1.104-1.941-1.967
				c-0.229-1.135-0.929-2.694-0.818-3.56c0.147-1.176,2.047-2.125,2.044-3.192c-0.003-0.912-1.015-1.442-1.226-2.211
				c-0.516-1.879,0.302-2.981,0.919-4.547c0.204-0.512,0.403-1.339,0.614-1.718c0.374-0.676,1.136-0.866,1.634-1.597
				c0.279-0.409,0.454-1.262,0.818-1.843c0.777-1.24,2.032-1.705,2.352-2.825c0.26-0.912,0.413-5.474,0.1-7
				c-0.178-0.881-0.862-1.618-1.123-2.457c-0.462-1.482-0.57-3.101-1.84-3.07c-0.785,0.019-1.337,1.061-1.841,1.719
				c-0.121,0.874-0.057,1.82-0.818,2.087c-1.162,0.412-1.608-1.471-2.964-1.964c-0.539-0.198-1.399-0.186-1.737-0.368
				c-0.988-0.534-1.309-2.274-2.351-2.95c-0.872-0.562-1.619-0.366-2.148-1.228c-0.22-0.592-0.047-1.662-0.101-2.456
				c-1.12-0.788-2.07-3.724-3.374-4.42c-0.865-0.462-2.189-0.419-3.271-0.859c-0.508-0.207-0.901-0.474-1.433-0.613
				c-0.656-0.177-1.33-0.187-1.838-0.494c-2.024-1.206-3.116-5.117-5.622-5.033c-1.069,0.034-2.098,1.234-3.067,1.228
				c-0.963-0.006-2.576-0.924-3.784-1.597c-1.255-0.701-2.643-1.082-3.679-1.718c-0.836-0.515-1.417-1.454-2.148-1.845
				c-0.56-0.298-1.378-0.35-1.838-0.611c-0.653-0.372-1.334-1.166-2.148-1.845c-0.772-0.642-1.606-1.622-1.637-2.453
				c-0.033-0.961,0.736-1.78,0.819-2.704c0.263-2.925-1.531-5.028-2.659-6.755c-0.836-1.284-1.817-2.373-2.656-3.561
				c0.047-0.788,0.047-0.931,0-1.718c-0.635-0.741-1.169-1.839-1.84-2.949c-0.607-1.002-1.789-2.069-1.941-3.192
				c-0.189-1.38,0.436-2.592,0-3.932c-0.728-2.224-3.296-1.219-2.966,1.721c0.093,0.81,1.043,1.898,1.329,2.702
				c0.294,0.818,0.238,1.839,0.511,2.825c0.264,0.946,1.056,1.762,1.329,2.825c0.433,1.681,0.421,3.493,0.818,4.544
				c0.351,0.934,1.645,1.818,0.919,2.947c-0.968,0.242-1.34-0.921-1.941-1.597c-0.336-0.375-1.551-1.089-1.737-1.963
				c-0.155-0.723,0.382-1.696,0.204-2.58c-0.351-1.734-3.263-1.777-3.273-3.561c-0.005-1.12,1.218-1.253,1.229-2.335
				c0.008-1.185-1.345-2.186-1.637-3.191c-0.266-0.921-0.31-2.388-0.408-3.685c-0.096-1.216,0.028-2.624-0.207-3.564
				c-0.209-0.843-1.265-2.004-1.941-2.456c-0.896-0.598-1.606-0.35-2.044-1.228c-0.382-0.766-0.632-2.366-0.715-3.191
				c-0.147-1.477-0.033-3.092-0.103-4.668c-0.067-1.579-0.201-3.092,0-4.789c0.506-1.188,1.428-1.774,1.944-2.949
				c0.359-0.819,0.41-1.83,0.816-2.701c0.749-1.604,2.38-3.086,3.477-4.668c1.182-1.703,2.272-3.334,2.964-5.282
				c0.248-0.691,0.914-2.223,0.818-3.07c-0.134-1.182-1.987-2.156-1.84-3.561c0.093-0.871,1.126-0.859,1.433-1.718
				c0.158-0.443,0.3-1.681,0.307-2.211c0.016-1.184-0.506-2.419-0.307-3.684c0.168-1.08,1.505-1.517,0.819-2.701
				c-0.682-1.172-1.905,0.632-2.659-0.124c-0.692-0.698,0.139-1.541,0.204-2.825c0.026-0.512-0.248-1.095-0.204-1.473
				c0.062-0.549,0.953-1.473,0.715-1.843c-0.553-0.84-1.172-2.974-2.352-3.684c-1.499-0.906-3.123-0.295-5.211-0.738
				c-1.281-0.27-1.887-1.709-3.067-1.594c-0.728,0.068-1.146,1.07-2.148,1.594c-0.992,0.521-2.287,0.344-3.271,0.614
				c-0.976,0.27-1.445,1.079-2.455,0.983c-0.841-0.077-0.847-0.989-1.838-1.104c-0.387-0.047-1.12,0.288-1.737,0.369
				c-1.58,0.198-4.432,0.295-6.033-0.124c-1.463-0.382-2.367-0.94-3.985-1.842c-1.216-0.676-3.472-1.511-3.374-2.58
				c0.062-0.689,2.138-1.417,2.964-1.718c1.332-0.487,2.153-1.275,3.17-1.353c0.392-0.028,0.908,0.292,1.43,0.249
				c0.524-0.047,1.169-0.627,1.84-0.739c1.427-0.239,3.44,0.087,3.27-1.597c-1.084-1.03-5.506,0.762-5.622-1.473
				c-0.07-1.353,1.678-1.762,2.966-2.087c1.172-0.298,2.95-0.8,3.985-0.738c1.167,0.071,2.702,1.64,3.374-0.121
				c0.325-1.252-0.398-2.304-0.615-3.318c0.868-1.439,2.465-1.259,3.681-1.473c1.389-0.245,2.522-0.543,3.885-1.229
				c1.195-0.602,2.465-1.005,3.883-1.228c1.389-0.217,2.736-0.846,3.988-0.983c1.03-0.112,1.975-0.013,2.963-0.245
				c0.875-0.205,1.8-0.788,2.762-0.735c0.643,0.035,1.193,0.599,1.838,0.735c0.606,0.127,1.301-0.037,1.944,0.124
				c0.493,0.124,0.937,0.524,1.43,0.614c0.774,0.14,1.605-0.13,2.351,0c0.687,0.118,1.27,0.633,1.941,0.735
				c1.575,0.245,3.376-0.099,4.907,0.248c0.581,0.13,1.105,0.475,1.737,0.614c0.599,0.13,1.257-0.019,1.84,0.121
				c0.813,0.195,1.492,1.119,2.352,1.229c1.582,0.198,3.358-0.825,5.008-0.984c1.195-0.111,2.426,0.059,3.681-0.245
				c1.141-0.276,2.246-0.806,3.271-0.859c0.557-0.028,1.025,0.205,1.533,0.124c0.529-0.086,1.164-0.85,1.737-0.738
				c0.761,0.146,0.627,1.303,1.433,1.597c0.891-0.555,1.779,0.037,2.759,0c0.955-0.04,1.81-0.567,2.863-0.369
				c1.861,0.351,4.461,2.54,5.926,1.352c0.369-0.3,0.281-0.819,0.615-1.597c0.452-1.058,1.342-2.301,1.125-3.809
				c-2.049,0.04-4.006,1.244-6.339,1.352c-2.357-1.774,0.63-2.875,2.351-3.684c1.42-0.67,2.543-2.156,4.296-2.456
				c1.43-0.248,3.002,0.378,4.7,0.614c0.991,0.137,1.982-0.084,2.555,0.121c1.004,0.363,1.52,1.557,2.352,1.843
				c0.358,0.124,0.947,0.111,1.43,0.248c0.919,0.254,1.742,0.838,2.659,0c0.72,0.155,0.805,1.076,1.534,1.229
				c0.679-0.441,1.203-1.56,2.248-1.842c0.454-0.124,0.932,0.092,1.43,0c0.834-0.161,1.944-1.517,2.455-0.248
				c-0.209,0.887-1.324,1.02-1.944,1.721c-0.55,0.623-1.397,2.053-1.327,2.702c0.122,1.172,1.583,0.719,1.634,2.211
				c-0.217,0.859-1.048,0.474-1.737,0.859c-0.63,0.351-0.865,1.076-1.533,1.229c-1.858,0.421-3.4-0.562-5.007-0.491
				c-0.075,0.838,0.795,1.325,1.226,1.594c1.458,0.921,2.646,0.794,4.701,0.739c1.053-0.028,2.264,0.378,3.17-0.37
				c0.573-0.471,0.542-1.51,1.022-2.087c0.578-0.691,1.91-1.396,2.76-1.228c0.464,0.093,1.117,0.757,1.125,1.228
				c0.016,1.116-1.314,0.76-1.329,1.966c0.865,0.623,3.149-0.682,3.271-1.721c0.087-0.757-0.744-1.194-0.715-1.964
				c0.049-1.287,1.504-1.265,1.329-2.58c-0.702-0.664-1.435,0.142-2.148,0c-1.004-0.202-1.908-1.647-2.351-2.581
				c0.444-0.66,1.374-0.22,2.044-0.121c0.751-1.25,2.15-1.737,4.089-1.966c0.689-0.081,1.608-0.409,1.943,0.369
				c0.165,1.163-1.432,1.861-1.125,3.195c1.376,0.412,1.827-1.818,2.966-2.705c0.501-0.391,1.218-0.651,1.941-0.98
				c0.63-0.289,1.325-1.002,1.84-0.983c0.565,0.018,0.666,0.577,1.226,0.859c0.503,0.254,1.162-0.174,1.329,0.614
				c-1.185,2.466-5.602,1.048-6.748,3.561c0.256,1.684-0.692,3.291,0.103,4.423c0.568,0.807,1.848,0.258,2.145,1.104
				c0.4,1.132-1.239,1.132-0.816,2.456c1.082,0.778,2.37-0.742,3.371-1.349c1.074-0.654,2.432-1.427,2.555-2.949
				c-0.539-1.247-2.553-0.282-2.86-1.594c-0.168-0.714,0.617-2.311,0.815-2.58c1.066-1.436,4.789-3.48,7.463-3.194
				c0.509,0.055,1.022,0.428,1.533,0.493c1.758,0.217,3.833-0.912,5.214,0c1.11-0.779,2.442,0.105,3.985-0.125
				c1.19,0.844,0.862,2.639,2.659,3.44c0.488,0.217,1.097,0.062,1.737,0.245c0.475,0.137,0.988,0.806,1.533,1.108
				c0.775,0.422,1.368,0.326,1.533,0.98c0.163,0.642-0.563,1.058-0.511,1.722c0.441,0.437,0.072,1.095,0.307,1.718
				c0.441,1.138,1.554,1.055,2.656,1.597c0.775,0.381,2.426,1.55,2.352,2.456c-0.049,0.608-1.552,1.674-2.044,1.966
				c-0.349,0.204-2.073,1.206-2.656,1.104c-0.965-0.171-1.342-2.519-2.659-2.456c-0.573,0.028-1.112,0.443-1.126,1.353
				c-0.021,1.613,1.502,1.674,1.533,3.07c0.041,1.669-0.759,1.783-1.941,2.822c-0.847-0.412-1.559-0.992-2.659-1.104
				c-0.653,0.933,1.074,1.268,0.511,2.456c-1.642,0.418-2.894-0.558-4.394-1.104c-0.47-0.171-1.146-0.103-1.533-0.369
				c-0.581-0.403-0.751-1.597-1.228-2.211c-0.552-0.713-1.655-1.724-2.556-1.718c-1.262,0.003-3.09,1.889-4.089,0.121
				c0.692-2.813,3.97-0.725,6.133-1.718c0.805-0.369,1.082-1.393,1.74-1.843c1.322-0.905,3.47-1.033,3.271-2.825
				c-0.101-0.903-1.151-0.89-1.737-1.353c-0.8-0.627-1.412-2.838-2.555-2.946c-0.589-0.056-1.012,0.543-1.637,0.614
				c-1.322,0.149-2.793-0.639-3.985,0c-0.555,0.382-0.181,0.992-0.614,1.718c-0.356,0.595-1.198,0.763-1.533,1.352
				c-0.392,0.691-0.312,1.551-0.819,2.087c-0.839,0.893-2.614,1.036-3.678,1.473c-0.475,0.195-1.074,0.865-1.533,0.862
				c-0.844-0.006-1.205-1.365-2.148-0.862c-0.082,1.315,1.157,1.849,1.941,2.456c0.849,0.657,1.742,1.312,2.045,2.456
				c-0.832,2.121-2.158-0.111-3.475-0.121c-1.45-0.013-3.567,3.319-4.803,0.614c0.307-1.433,1.621-1.656,1.941-3.07
				c-1.443,0.295-2.7,1.755-4.396,2.211c-0.713,0.189-1.407,0.143-2.045,0.366c-1.223,0.431-2.077,1.517-3.371,2.09
				c-0.506,0.224-1.11,0.155-1.637,0.366c-1.234,0.496-2.713,1.384-3.985,2.212c-1.301,0.847-2.77,1.737-3.578,2.58
				c-0.437,0.453-1.572,2.066-1.533,2.578c0.051,0.732,1.198,0.974,1.226,1.721c-0.026,0.453-0.663,1.43-0.204,2.087
				c0.418,0.599,1.257,0.115,2.145,0.245c1.562,0.233,2.584,1.783,3.781,2.581c0.906,0.601,2.251,1.318,3.273,1.473
				c1.404,0.211,2.976-0.493,3.167,0.86c0.186,1.299-1.322,1.764-1.43,2.58c0.756,1.2-0.514,1.774-0.511,2.826
				c0.003,0.853,0.872,2.131,1.634,2.208c1.03,0.105,2.537-1.219,2.966-2.456c0.508-1.473,0.292-3.471,1.226-4.544
				c4.762,0.158,8.792-2.599,8.485-8.473c-0.031-0.58-0.305-1.327-0.204-1.966c0.15-0.949,1.507-1.746,1.327-2.946
				c1.334-0.493,1.278-3.064,2.659-3.44c1.157-0.313,2.465,0.983,3.985,0.859c0.496-0.04,1.138-0.574,1.637-0.49
				c0.999,0.168,1.6,1.647,2.351,2.333c0.663,0.611,1.363,0.416,1.533,1.228c-0.199,1.377-1.004,1.411-0.922,2.701
				c0.075,1.126,1.048,1.979,1.534,2.09c0.746,0.168,1.812-0.313,2.555-0.738c1.368-0.779,2.54-3.123,3.681-2.826
				c0.901,0.236,1.605,3.675,1.737,4.913c0.142,1.327-0.15,2.342-0.101,3.563c0.132,2.072,2.303,1.861,3.372,2.947
				c0.322,0.329,0.449,1.169,0.717,1.597c0.519,0.831,1.146,0.831,1.226,1.718c0.191,2.121-1.6,2.301-1.433,4.668
				c-0.369,0.918-1.301,0.863-1.226,2.087c0.119,1.939,2.437,0.453,3.067,1.966c0.341,0.813-0.057,1.417-0.307,2.577
				c0.792,1.135,0.787,2.947-0.612,2.949C339.839,113.094,339.604,111.997,338.744,111.743z M228.247,108.551
				c0.483-0.595-0.204-1.854-0.922-1.352C227.256,107.648,227.457,108.734,228.247,108.551z M299.597,119.726
				c-0.426-0.499-1.815-0.357-2.762-0.245c-0.669,0.081-1.464,0.252-1.534,0.859C296.365,120.926,299.263,121.348,299.597,119.726z
				 M294.279,117.638c0.803-0.76,0.446-2.311-0.408-2.58c-0.336-0.106-0.782,0.297-1.33,0.248c-0.578-0.052-1.156-0.688-1.634-0.738
				c-0.816-0.084-1.644,0.4-1.944,0.859c-0.031,0.735,0.45,0.853,0.41,1.597c-0.994,0.853-0.467,3.706,0.511,3.809
				c1.038,0.109,1.574-3.154,2.963-3.439C293.353,117.288,293.61,117.738,294.279,117.638z M292.849,122.551
				c-1.453-0.62-2.795,0.422-3.985,0.614c-0.71,0.115-2.003-0.174-1.84,1.104c0.132,1.042,1.471,0.664,2.249,0.369
				C290.887,124.024,291.907,123.497,292.849,122.551z M288.353,113.216c2.036-1.042-0.402-4.252-1.329-4.544
				c-1.657-0.521-4.014,1.461-5.929,2.088c-1.079,0.353-2.106,0.385-2.352,1.476c0.968,1.923,2.881-0.422,4.293-0.124
				c0.715,0.152,1.133,1.327,1.84,1.473C285.358,113.684,288.159,113.315,288.353,113.216z M286.92,115.182
				c-0.423-0.599-2.716,0.071-3.374,0.614c-0.452,0.375-0.759,1.29-1.226,1.966c-0.483,0.698-1.022,1.237-1.43,1.842
				c-0.369,0.545-2.44,4.134-0.819,4.544c0.692,0.173,2.114-1.551,2.249-2.211c0.462-2.252,1.306-3.859,2.759-4.913
				C285.921,116.413,286.783,116.491,286.92,115.182z M274.142,101.427c1.141-0.05,1.913-4.1,0-3.563
				C272.862,98.223,272.552,101.495,274.142,101.427z M268.624,193.542c0.052-0.183,0.15-0.31,0.204-0.493
				C268.518,191.826,267.537,193.495,268.624,193.542z M225.384,90.742c0.023-0.232-0.116-0.273-0.101-0.493
				c-0.312-0.003-0.674-0.071-0.615,0.37C224.816,90.972,225.212,91.034,225.384,90.742z M332.818,71.457
				c0.503,0.074,0.787-0.118,0.715-0.735C333.078,70.338,332.415,70.843,332.818,71.457z M321.063,59.423
				c-0.132-0.171-0.483-0.171-0.615,0c0,0.161,0,0.326,0,0.49C320.882,60.025,320.962,59.711,321.063,59.423z M282.219,68.88
				c0.341-0.264,0.862-0.621,0.612-1.229c-1.128-0.636-3.036-0.152-4.701-0.369c-0.944-1.604-2.524-1.852-2.658,0.738
				C277.374,69.875,280.255,67.155,282.219,68.88z M263.921,81.531c0.581-0.242,1.386-0.118,1.533-0.862
				c-0.477-0.459-0.967-1.079-1.533-1.104c-0.741-0.031-1.097,0.757-1.84,1.229c-0.865,0.549-2.063,0.682-2.145,1.597
				C261.517,82.762,262.942,81.934,263.921,81.531z M263.409,72.685c0.653-0.133,1.324,0.22,1.74-0.49
				c-0.488-2.704-3.601-1.052-5.418-0.859c-0.382,0.769-0.893,1.384-1.022,2.457C260.118,74.22,261.819,73.01,263.409,72.685z
				 M294.075,198.209c0.808-0.158,0.573-2.388-0.408-1.846C292.926,196.776,293.311,198.355,294.075,198.209z"/>
			<path style="fill:#455A64;" d="M225.284,90.249c-0.016,0.22,0.124,0.261,0.101,0.493c-0.173,0.292-0.568,0.23-0.715-0.123
				C224.61,90.178,224.971,90.246,225.284,90.249z"/>
			<path style="fill:#455A64;" d="M222.217,97.497c-0.217,0.803-0.808,1.157-1.433,1.473c-0.196-0.177-0.366-0.382-0.511-0.614
				C220.317,97.19,221.698,96.331,222.217,97.497z"/>
		</g>
	</g>
</g>
<g id="Locators">
	<path style="fill:#0089D1;" d="M256.722,125.166c0-6.294-6.613-10.282-13.356-7.127c-1.523,0.713-2.783,1.919-3.548,3.401
		c-1.697,3.286-0.947,7.039,0.591,10.154l5.248,13.3c0.756,1.917,3.473,1.906,4.213-0.018l5.145-13.369
		C256.797,127.435,256.722,125.166,256.722,125.166z M250.387,130.643c-4.533,2.635-9.127-2.236-6.642-7.044
		c0.33-0.64,0.836-1.176,1.439-1.527c4.533-2.636,9.127,2.236,6.642,7.044C251.496,129.756,250.99,130.293,250.387,130.643z"/>
	<path style="fill:#0089D1;" d="M453.931,183.619c0-6.294-6.614-10.282-13.356-7.127c-1.523,0.712-2.783,1.919-3.548,3.401
		c-1.697,3.286-0.947,7.039,0.591,10.154l5.248,13.3c0.756,1.917,3.473,1.906,4.213-0.018l5.145-13.369
		C454.006,185.888,453.931,183.619,453.931,183.619z M447.596,189.096c-4.533,2.635-9.127-2.236-6.642-7.044
		c0.331-0.639,0.837-1.176,1.44-1.527c4.533-2.636,9.127,2.236,6.642,7.044C448.706,188.209,448.199,188.745,447.596,189.096z"/>
	<path style="fill:#0089D1;" d="M579.858,117.192c0-6.294-6.613-10.282-13.356-7.127c-1.523,0.713-2.783,1.919-3.548,3.401
		c-1.696,3.286-0.947,7.039,0.591,10.154l5.248,13.3c0.756,1.917,3.473,1.905,4.213-0.018l5.145-13.369
		C579.932,119.461,579.858,117.192,579.858,117.192z M573.523,122.669c-4.533,2.636-9.127-2.236-6.642-7.044
		c0.331-0.64,0.836-1.176,1.44-1.527c4.533-2.636,9.127,2.236,6.642,7.044C574.632,121.782,574.126,122.319,573.523,122.669z"/>
</g>
<g id="Character">
	<g>
		<g>
			<g>
				<g>
					<g>
						<g>
							<path style="fill:#0089D1;" d="M269.414,442.922l-4.583-8.864l-16.659,8.478l6.567,13.039l1.067-0.459
								c4.727-2.084,23.887-10.931,26.486-13.426C285.191,438.906,269.414,442.922,269.414,442.922z"/>
						</g>
					</g>
					<g style="opacity:0.5;">
						<g>
							<path style="fill:#FFFFFF;" d="M260.713,452.371c-0.946-1.271-2.378-2.171-3.933-2.47c-1.556-0.3-3.16-0.058-4.51,0.771
								l2.366,4.658L260.713,452.371z"/>
						</g>
					</g>
				</g>
				<g style="opacity:0.4;">
					<g>
						<path style="fill:#FFFFFF;" d="M277.249,441.207c0,0,5.689-1.094,5.486,0.038c-0.203,1.132-19.23,10.8-27.995,14.331
							l-0.163-0.386l22.289-11.088C276.866,444.101,276.299,441.741,277.249,441.207z"/>
					</g>
				</g>
				<g>
					<g>
						<g>
							<path style="fill:#263238;" d="M254.31,455.312c0.003,0.007,0.107-0.033,0.302-0.114c0.255-0.111,0.534-0.232,0.848-0.368
								c0.841-0.383,1.875-0.853,3.095-1.409c2.605-1.208,6.182-2.925,10.089-4.906c3.908-1.983,7.407-3.855,9.92-5.243
								c1.169-0.656,2.159-1.213,2.965-1.665c0.296-0.173,0.559-0.326,0.798-0.467c0.181-0.109,0.274-0.169,0.271-0.176
								c-0.004-0.007-0.105,0.04-0.293,0.136c-0.246,0.129-0.515,0.27-0.819,0.429c-0.815,0.435-1.816,0.97-2.999,1.601
								c-2.532,1.352-6.04,3.2-9.946,5.182c-3.906,1.98-7.469,3.719-10.055,4.963c-1.208,0.581-2.231,1.073-3.064,1.473
								c-0.308,0.151-0.581,0.285-0.83,0.407C254.404,455.252,254.307,455.305,254.31,455.312z"/>
						</g>
					</g>
				</g>
				<g>
					<g>
						<g>
							<path style="fill:#263238;" d="M276.993,444.362c0.066-0.023-0.255-0.771-0.169-1.733c0.069-0.964,0.504-1.65,0.443-1.684
								c-0.038-0.044-0.592,0.633-0.669,1.666C276.51,443.643,276.949,444.4,276.993,444.362z"/>
						</g>
					</g>
				</g>
				<g>
					<g>
						<g>
							<path style="fill:#263238;" d="M270.809,444.366c0.062,0.006,0.152-0.4,0.2-0.906c0.049-0.507,0.037-0.922-0.025-0.928
								c-0.062-0.006-0.152,0.4-0.201,0.906C270.735,443.945,270.746,444.361,270.809,444.366z"/>
						</g>
					</g>
				</g>
				<g>
					<g>
						<g>
							<path style="fill:#263238;" d="M269.097,444.339c0.058,0.022,0.232-0.287,0.388-0.691c0.156-0.404,0.235-0.749,0.177-0.772
								c-0.058-0.022-0.232,0.286-0.388,0.69C269.118,443.97,269.038,444.316,269.097,444.339z"/>
						</g>
					</g>
				</g>
				<g>
					<g>
						<g>
							<path style="fill:#263238;" d="M267.444,443.199c0.028,0.056,0.442-0.092,0.926-0.331c0.484-0.239,0.853-0.478,0.825-0.534
								c-0.028-0.056-0.442,0.092-0.926,0.331C267.786,442.904,267.417,443.143,267.444,443.199z"/>
						</g>
					</g>
				</g>
				<g>
					<g>
						<g>
							<path style="fill:#263238;" d="M266.588,442.239c0.007,0.059,0.528,0.035,1.114-0.211c0.587-0.243,0.971-0.596,0.934-0.643
								c-0.039-0.053-0.463,0.203-1.021,0.434C267.058,442.053,266.578,442.174,266.588,442.239z"/>
						</g>
					</g>
				</g>
				<g>
					<g>
						<g>
							<path style="fill:#263238;" d="M270.635,442.625c0.01,0.023,0.447-0.135,1.068-0.551c0.31-0.207,0.66-0.484,1.012-0.831
								c0.171-0.18,0.361-0.347,0.516-0.6c0.07-0.125,0.137-0.284,0.096-0.467c-0.037-0.183-0.215-0.32-0.38-0.345
								c-1.293-0.01-2.025,1.086-2.137,1.808c-0.072,0.376-0.034,0.688,0.014,0.892c0.05,0.205,0.106,0.308,0.119,0.303
								c0.045-0.005-0.142-0.458,0.023-1.161c0.082-0.345,0.273-0.737,0.613-1.059c0.321-0.304,0.844-0.608,1.32-0.562
								c0.234,0.04,0.269,0.273,0.138,0.482c-0.118,0.203-0.311,0.388-0.471,0.563c-0.334,0.345-0.666,0.628-0.957,0.847
								C271.026,442.384,270.618,442.593,270.635,442.625z"/>
						</g>
					</g>
				</g>
				<g>
					<g>
						<g>
							<path style="fill:#263238;" d="M270.94,442.538c0.021,0.004,0.04-0.35-0.254-0.806c-0.146-0.223-0.375-0.46-0.69-0.634
								c-0.31-0.141-0.719-0.345-1.169-0.093c-0.232,0.158-0.21,0.502-0.079,0.662c0.115,0.178,0.281,0.296,0.425,0.386
								c0.295,0.187,0.585,0.312,0.835,0.391c0.503,0.157,0.832,0.148,0.833,0.122c0.005-0.036-0.311-0.084-0.779-0.273
								c-0.233-0.095-0.502-0.229-0.775-0.415c-0.262-0.152-0.569-0.507-0.325-0.692c0.255-0.162,0.664-0.034,0.936,0.096
								c0.286,0.146,0.506,0.348,0.657,0.542C270.858,442.219,270.9,442.548,270.94,442.538z"/>
						</g>
					</g>
				</g>
				<g>
					<g>
						<g>
							<path style="fill:#263238;" d="M252.333,450.58c0.023,0.036,0.454-0.288,1.253-0.582c0.788-0.296,1.981-0.517,3.249-0.258
								c1.267,0.262,2.276,0.936,2.884,1.519c0.617,0.585,0.886,1.053,0.921,1.029c0.012-0.007-0.043-0.13-0.17-0.336
								c-0.127-0.207-0.336-0.492-0.638-0.806c-0.594-0.628-1.629-1.354-2.951-1.627c-1.321-0.271-2.559-0.012-3.353,0.33
								c-0.401,0.17-0.707,0.349-0.905,0.489C252.424,450.478,252.325,450.569,252.333,450.58z"/>
						</g>
					</g>
				</g>
				<g>
					<g>
						<g>
							<path style="fill:#263238;" d="M250.536,442.768c-0.056,0.028,0.658,1.593,1.595,3.496c0.937,1.904,1.742,3.424,1.798,3.396
								c0.056-0.028-0.658-1.593-1.595-3.496C251.398,444.261,250.593,442.74,250.536,442.768z"/>
						</g>
					</g>
				</g>
				<g>
					<g>
						<g>
							<path style="fill:#263238;" d="M261.985,449.68c0.019,0.056,1.196-0.318,2.555-0.995c1.362-0.673,2.371-1.384,2.338-1.434
								c-0.035-0.056-1.089,0.564-2.439,1.231C263.093,449.154,261.962,449.619,261.985,449.68z"/>
						</g>
					</g>
				</g>
				<g>
					<g>
						<g>
							<path style="fill:#263238;" d="M258.716,451.335c-0.02,0.061,0.206,0.185,0.444,0.379c0.241,0.19,0.411,0.384,0.467,0.351
								c0.054-0.028-0.048-0.307-0.325-0.528C259.026,451.315,258.732,451.277,258.716,451.335z"/>
						</g>
					</g>
				</g>
				<g>
					<g>
						<g>
							<path style="fill:#263238;" d="M256.707,450.429c-0.02,0.059,0.176,0.178,0.437,0.265c0.261,0.087,0.489,0.11,0.509,0.05
								c0.02-0.059-0.176-0.178-0.437-0.265C256.955,450.392,256.727,450.37,256.707,450.429z"/>
						</g>
					</g>
				</g>
				<g>
					<g>
						<g>
							<path style="fill:#263238;" d="M254.59,450.624c0.04,0.051,0.261-0.064,0.549-0.102c0.287-0.045,0.531,0.003,0.556-0.058
								c0.029-0.053-0.232-0.219-0.588-0.167C254.75,450.348,254.547,450.581,254.59,450.624z"/>
						</g>
					</g>
				</g>
				<g>
					<g>
						<g>
							<path style="fill:#263238;" d="M253.169,450.931c0.006,0.062,0.145,0.099,0.311,0.083c0.166-0.017,0.295-0.081,0.289-0.143
								c-0.006-0.062-0.146-0.099-0.311-0.083C253.291,450.805,253.162,450.869,253.169,450.931z"/>
						</g>
					</g>
				</g>
			</g>
		</g>
		<g>
			<g>
				<g>
					<g>
						<g>
							<path style="fill:#0089D1;" d="M160.37,449.922l3.971-9.155l-17.101-7.548l-5.951,13.332l1.03,0.536
								c4.603,2.345,23.571,11.597,27.147,12.034C173.456,459.607,160.37,449.922,160.37,449.922z"/>
						</g>
					</g>
					<g style="opacity:0.5;">
						<g>
							<path style="fill:#FFFFFF;" d="M147.548,449.154c0.387-1.536,0.178-3.215-0.573-4.609c-0.751-1.395-1.953-2.485-3.449-3.007
								l-2.113,4.778L147.548,449.154z"/>
						</g>
					</g>
				</g>
				<g style="opacity:0.4;">
					<g>
						<path style="fill:#FFFFFF;" d="M166.652,454.907c0,0,4.444,3.717,3.439,4.275c-1.005,0.558-20.525-8.071-28.802-12.631
							l0.196-0.37l22.683,10.26C164.167,456.441,165.638,454.509,166.652,454.907z"/>
					</g>
				</g>
				<g>
					<g>
						<g>
							<path style="fill:#263238;" d="M141.221,446.052c-0.003,0.007,0.093,0.063,0.28,0.162c0.247,0.127,0.517,0.267,0.822,0.424
								c0.828,0.41,1.847,0.913,3.048,1.507c2.583,1.255,6.174,2.941,10.18,4.716c4.007,1.775,7.67,3.302,10.334,4.372
								c1.247,0.491,2.305,0.906,3.164,1.244c0.321,0.12,0.606,0.226,0.866,0.324c0.199,0.072,0.305,0.106,0.308,0.099
								c0.003-0.007-0.097-0.056-0.291-0.141c-0.255-0.109-0.535-0.228-0.85-0.363c-0.852-0.356-1.9-0.794-3.136-1.311
								c-2.648-1.107-6.298-2.657-10.303-4.43c-4.003-1.774-7.603-3.436-10.202-4.653c-1.214-0.569-2.242-1.05-3.078-1.442
								c-0.312-0.143-0.588-0.27-0.84-0.386C141.328,446.087,141.225,446.045,141.221,446.052z"/>
						</g>
					</g>
				</g>
				<g>
					<g>
						<g>
							<path style="fill:#263238;" d="M164.046,456.705c0.06,0.036,0.436-0.685,1.236-1.227c0.79-0.556,1.598-0.653,1.585-0.721
								c0.01-0.057-0.865-0.059-1.714,0.535C164.297,455.875,163.988,456.694,164.046,456.705z"/>
						</g>
					</g>
				</g>
				<g>
					<g>
						<g>
							<path style="fill:#263238;" d="M160.132,451.915c0.035,0.052,0.406-0.135,0.829-0.418c0.423-0.283,0.738-0.554,0.703-0.606
								c-0.035-0.052-0.406,0.135-0.829,0.418C160.413,451.592,160.098,451.863,160.132,451.915z"/>
						</g>
					</g>
				</g>
				<g>
					<g>
						<g>
							<path style="fill:#263238;" d="M159.072,450.571c0.02,0.059,0.369-0.001,0.78-0.136c0.412-0.134,0.729-0.292,0.71-0.351
								c-0.02-0.06-0.369,0.001-0.78,0.136C159.37,450.355,159.052,450.512,159.072,450.571z"/>
						</g>
					</g>
				</g>
				<g>
					<g>
						<g>
							<path style="fill:#263238;" d="M158.91,448.571c-0.026,0.057,0.351,0.284,0.842,0.508c0.491,0.224,0.91,0.359,0.936,0.302
								c0.026-0.057-0.351-0.284-0.842-0.508C159.355,448.649,158.936,448.514,158.91,448.571z"/>
						</g>
					</g>
				</g>
				<g>
					<g>
						<g>
							<path style="fill:#263238;" d="M159.113,447.3c-0.042,0.043,0.307,0.431,0.867,0.729c0.56,0.301,1.076,0.376,1.088,0.317
								c0.016-0.063-0.45-0.23-0.981-0.517C159.554,447.547,159.156,447.251,159.113,447.3z"/>
						</g>
					</g>
				</g>
				<g>
					<g>
						<g>
							<path style="fill:#263238;" d="M161.372,450.68c-0.011,0.022,0.387,0.261,1.102,0.479c0.356,0.109,0.792,0.206,1.283,0.259
								c0.248,0.018,0.497,0.06,0.792,0.02c0.141-0.025,0.307-0.073,0.423-0.221c0.118-0.145,0.112-0.368,0.028-0.513
								c-0.81-1.008-2.122-0.882-2.752-0.512c-0.337,0.182-0.555,0.409-0.683,0.575c-0.127,0.169-0.171,0.277-0.16,0.284
								c0.032,0.031,0.265-0.4,0.915-0.716c0.319-0.154,0.744-0.254,1.208-0.195c0.439,0.057,1.005,0.27,1.27,0.668
								c0.117,0.206-0.041,0.382-0.286,0.411c-0.232,0.037-0.498,0.004-0.734-0.009c-0.479-0.041-0.907-0.119-1.261-0.206
								C161.806,450.831,161.386,450.646,161.372,450.68z"/>
						</g>
					</g>
				</g>
				<g>
					<g>
						<g>
							<path style="fill:#263238;" d="M161.632,450.861c0.01,0.019,0.296-0.19,0.464-0.707c0.08-0.254,0.119-0.581,0.055-0.935
								c-0.086-0.329-0.187-0.776-0.667-0.964c-0.269-0.08-0.521,0.155-0.563,0.358c-0.065,0.201-0.052,0.405-0.03,0.573
								c0.042,0.347,0.128,0.65,0.225,0.894c0.196,0.489,0.411,0.738,0.432,0.723c0.031-0.018-0.132-0.294-0.281-0.776
								c-0.074-0.241-0.14-0.534-0.169-0.863c-0.048-0.299,0.033-0.761,0.331-0.69c0.287,0.095,0.446,0.493,0.517,0.786
								c0.068,0.314,0.05,0.612-0.005,0.852C161.828,450.596,161.599,450.836,161.632,450.861z"/>
						</g>
					</g>
				</g>
				<g>
					<g>
						<g>
							<path style="fill:#263238;" d="M143.638,441.529c-0.013,0.04,0.51,0.17,1.243,0.603c0.728,0.423,1.654,1.208,2.254,2.354
								c0.599,1.147,0.714,2.356,0.646,3.195c-0.063,0.848-0.255,1.352-0.215,1.364c0.013,0.005,0.074-0.115,0.153-0.345
								c0.08-0.229,0.168-0.572,0.221-1.004c0.111-0.858,0.019-2.118-0.605-3.315c-0.626-1.195-1.608-1.99-2.376-2.389
								c-0.386-0.204-0.717-0.327-0.951-0.392C143.775,441.534,143.642,441.516,143.638,441.529z"/>
						</g>
					</g>
				</g>
				<g>
					<g>
						<g>
							<path style="fill:#263238;" d="M148.555,435.198c-0.057-0.026-0.818,1.517-1.7,3.446c-0.883,1.93-1.552,3.515-1.495,3.541
								c0.057,0.026,0.818-1.517,1.701-3.446C147.943,436.809,148.612,435.224,148.555,435.198z"/>
						</g>
					</g>
				</g>
				<g>
					<g>
						<g>
							<path style="fill:#263238;" d="M150.437,448.438c-0.031,0.05,1.002,0.726,2.386,1.351c1.383,0.629,2.571,0.962,2.589,0.905
								c0.021-0.063-1.126-0.488-2.495-1.111C151.545,448.964,150.47,448.381,150.437,448.438z"/>
						</g>
					</g>
				</g>
				<g>
					<g>
						<g>
							<path style="fill:#263238;" d="M147.088,446.952c-0.06,0.023-0.013,0.277-0.013,0.584c0.005,0.307-0.037,0.561,0.023,0.583
								c0.055,0.024,0.208-0.231,0.203-0.585C147.3,447.179,147.143,446.927,147.088,446.952z"/>
						</g>
					</g>
				</g>
				<g>
					<g>
						<g>
							<path style="fill:#263238;" d="M146.52,444.822c-0.059,0.022-0.027,0.249,0.071,0.506c0.098,0.258,0.224,0.448,0.283,0.426
								c0.058-0.022,0.027-0.249-0.071-0.507C146.705,444.991,146.579,444.8,146.52,444.822z"/>
						</g>
					</g>
				</g>
				<g>
					<g>
						<g>
							<path style="fill:#263238;" d="M145.031,443.305c-0.014,0.063,0.214,0.162,0.426,0.361c0.217,0.194,0.334,0.413,0.396,0.394
								c0.06-0.011,0.023-0.318-0.243-0.561C145.346,443.255,145.037,443.245,145.031,443.305z"/>
						</g>
					</g>
				</g>
				<g>
					<g>
						<g>
							<path style="fill:#263238;" d="M143.894,442.398c-0.044,0.044,0.015,0.175,0.133,0.293c0.118,0.118,0.249,0.177,0.293,0.133
								c0.044-0.044-0.015-0.175-0.133-0.293C144.07,442.413,143.938,442.354,143.894,442.398z"/>
						</g>
					</g>
				</g>
			</g>
		</g>
		<g>
			<g>
				<path style="fill:#D88876;" d="M242.056,278.621c0.734,0.207,1.602,0.428,2.637,0.643c0.888,0.182,1.801,0.205,2.699,0.08
					c1.088-0.151,2.526-0.411,3.27-0.798c0.919-0.478,1.943,0.41,1.525,1.254c-0.418,0.844-2.92,2.225-6.255,2.385
					c-3.334,0.161,0.896,3.276,2.417,4.439c1.521,1.163,6.059,4.982,6.072,5.733c0.019,1.101-1.158,1.324-2.65,0.127
					c-1.511-1.211-6.22-4.47-6.795-3.637c-0.567,0.82,7.258,6.635,7.258,6.635s1.873,0.972,1.241,1.957
					c-1.141,1.776-9.005-5.018-9.738-5.683c-0.509-0.462-1.167,0.421-0.594,0.888c0.59,0.481,7.941,5.618,6.795,7.438
					c-0.879,1.396-6.52-5.529-8.637-5.747c-2.117-0.219,4.812,4.817,3.918,6.115c-0.333,0.484-0.648,0.799-4.21-2.667
					c-1.729-1.682-4.506-5.088-6.949-8.206l-0.036,0.036c0,0-14.738-12.687-22.546-27.109c0,0-7.991-23.623-9.289-35.685
					l17.208-3.578c0,0,3.782,23.452,6.939,31.053C229.496,261.896,242.056,278.621,242.056,278.621z"/>
			</g>
		</g>
		<g>
			<g>
				<path style="fill:#455A64;" d="M179.628,203.171h-19.428c-5.083,0-9.204-4.121-9.204-9.204V190.6
					c0-5.083,4.121-9.204,9.204-9.204h19.428c5.083,0,9.204,4.121,9.204,9.204v3.368
					C188.831,199.05,184.711,203.171,179.628,203.171z"/>
				<g>
					<path style="fill:#263238;" d="M167.452,201.293c-0.055-0.115,1.605-0.446,3.534-2.159c0.958-0.842,1.931-2.047,2.643-3.574
						c0.713-1.518,1.116-3.383,0.906-5.304c-0.245-1.918-1.073-3.637-2.121-4.946c-1.049-1.318-2.277-2.263-3.405-2.857
						c-2.276-1.214-3.967-1.148-3.941-1.272c0-0.026,0.407-0.054,1.137,0.029c0.73,0.079,1.782,0.337,2.972,0.916
						c1.19,0.573,2.494,1.523,3.61,2.883c1.116,1.35,2.006,3.153,2.265,5.186c0.223,2.036-0.221,3.997-0.99,5.57
						c-0.767,1.584-1.813,2.812-2.836,3.647c-1.022,0.841-1.984,1.339-2.675,1.586C167.86,201.25,167.458,201.318,167.452,201.293z"
						/>
				</g>
				<g>
					<path style="fill:#263238;" d="M178.654,190.385c-0.017,0.148-1.003,0.142-2.201,0.242c-1.198,0.093-2.171,0.257-2.211,0.114
						c-0.042-0.132,0.912-0.534,2.169-0.633C177.669,190.004,178.674,190.247,178.654,190.385z"/>
				</g>
				<g>
					<path style="fill:#263238;" d="M179.007,191.982c-0.017,0.149-0.898,0.15-1.945,0.34c-1.049,0.179-1.877,0.479-1.944,0.345
						c-0.068-0.12,0.717-0.661,1.854-0.857C178.107,191.606,179.03,191.846,179.007,191.982z"/>
				</g>
			</g>
			<g>
				<path style="fill:#263238;" d="M177.133,203.172c-4.231-1.086-8.501-2.178-12.866-2.344c-4.365-0.166-8.892,0.666-12.491,3.14
					c-5.551,3.815-7.972,10.763-9.262,17.374c-2.36,12.099-2.083,24.538-1.796,36.862c0.12,5.164,0.346,10.668,3.314,14.896
					c4.096,5.836,12.183,7.381,19.269,6.601c7.087-0.78,13.908-3.366,21.022-3.832"/>
				<g>
					<path style="fill:#455A64;" d="M166.38,225.544c0.025,0.022-0.234,0.344-0.747,0.892c-0.537,0.52-1.341,1.255-2.427,2.036
						c-2.149,1.597-5.346,3.469-9.036,5.195c-1.848,0.86-3.644,1.602-5.318,2.179c-1.669,0.571-3.234,1.01-4.608,1.019
						c-0.344,0-0.658-0.004-0.984-0.071c-0.318-0.07-0.595-0.214-0.82-0.379c-0.448-0.339-0.721-0.722-0.941-1.023
						c-0.425-0.617-0.646-0.958-0.621-0.98c0.029-0.025,0.312,0.283,0.781,0.856c0.24,0.278,0.532,0.628,0.948,0.908
						c0.414,0.301,0.966,0.363,1.628,0.321c1.301-0.053,2.816-0.513,4.459-1.103c1.645-0.595,3.423-1.344,5.257-2.198
						c3.664-1.714,6.864-3.521,9.043-5.023C165.204,226.704,166.315,225.484,166.38,225.544z"/>
				</g>
				<path style="fill:#263238;" d="M141.246,239.603c-5.197,4.683-7.039,12.725-4.397,19.203c0.416,1.02,0.964,2.039,1.868,2.669
					c0.904,0.63,2.242,0.748,3.062,0.012c0.702-0.631,0.841-1.662,0.933-2.602c0.399-4.068,0.75-8.141,1.054-12.218
					c0.176-2.368,0.209-5.082-1.527-6.702"/>
			</g>
		</g>
		<g>
			<g>
				<path style="fill:#263238;" d="M140.248,440.11l21.442,9.948l38.438-68.51c5.012-18.072,9.839-81.697,9.839-81.697
					l-27.801,2.123c0,0-4.283,45.676-11.01,69.214L140.248,440.11z"/>
				<g>
					<path style="fill:#455A64;" d="M165.072,443.352c-0.031,0.065-1.276-0.443-3.263-1.315c-1.987-0.872-4.717-2.109-7.717-3.505
						c-3.002-1.396-5.707-2.686-7.654-3.644c-1.947-0.958-3.137-1.583-3.108-1.648c0.029-0.066,1.273,0.441,3.26,1.313
						c1.987,0.872,4.718,2.11,7.722,3.507c3.003,1.396,5.709,2.687,7.656,3.645C163.915,442.663,165.103,443.287,165.072,443.352z"
						/>
				</g>
			</g>
			<g>
				<path style="fill:#263238;" d="M169.473,274.243c-0.517,0.028-6.208,16.855-0.732,28.024c0.551,1.123,4.845,7.283,4.845,7.283
					c15.15,17.874,30.497,52.546,34.783,61.654c8.792,18.684,41.197,80.145,41.197,80.145l20.813-11.918l-30.433-78.245
					l-27.62-70.617L169.473,274.243z"/>
				<g>
					<path style="fill:#455A64;" d="M182.739,320c0.033-0.015,0.324,0.545,0.823,1.57c0.532,1.104,1.239,2.57,2.096,4.347
						c1.767,3.671,4.257,8.718,7.017,14.29c2.761,5.574,5.202,10.653,6.885,14.367c0.842,1.857,1.508,3.367,1.947,4.419
						c0.442,1.051,0.671,1.639,0.638,1.654c-0.033,0.015-0.324-0.545-0.823-1.57c-0.532-1.103-1.239-2.57-2.096-4.347
						c-1.767-3.671-4.257-8.719-7.018-14.293c-2.76-5.572-5.201-10.65-6.884-14.365c-0.842-1.857-1.508-3.367-1.947-4.419
						C182.935,320.603,182.706,320.015,182.739,320z"/>
				</g>
				<g>
					<path style="fill:#455A64;" d="M268.825,435.792c0.065,0.129-4.744,2.672-10.74,5.681c-5.997,3.009-10.91,5.344-10.974,5.216
						c-0.064-0.129,4.743-2.672,10.741-5.681C263.847,437.999,268.761,435.664,268.825,435.792z"/>
				</g>
			</g>
		</g>
		<g>
			<path style="fill:#263238;" d="M87.263,448.232c0.343,3.282-2.04,6.22-5.321,6.563s-6.22-2.04-6.563-5.321
				c-0.343-3.282,2.04-6.22,5.321-6.563C83.982,442.568,86.92,444.95,87.263,448.232z"/>
			<polygon style="fill:#455A64;" points="82.557,448.937 86.51,441.567 84.653,440.273 80.797,447.978 			"/>
			<polygon style="fill:#455A64;" points="123.115,350.353 148.161,292.308 152.364,294.641 128.037,352.177 			"/>
			<path style="fill:#0089D1;" d="M97.185,447.971l-27.099-12.086c-1.393-0.621-2.019-2.254-1.397-3.647l35.805-80.282
				c3.289-7.375,11.935-10.688,19.31-7.398l5.435,2.424c7.375,3.289,10.688,11.935,7.398,19.31l-35.805,80.282
				C100.211,447.967,98.578,448.593,97.185,447.971z"/>
			<polygon style="fill:#263238;" points="141.738,307.194 146.193,309.236 152.922,294.639 148.161,292.308 			"/>
			<g>
				<path style="fill:#263238;" d="M100.752,447.304c0,0,0.057-0.175,0.193-0.505c0.146-0.348,0.351-0.833,0.615-1.46
					c0.56-1.299,1.371-3.181,2.411-5.595c2.123-4.869,5.181-11.88,8.957-20.537c3.801-8.669,8.324-18.982,13.345-30.431
					c2.517-5.725,5.158-11.734,7.897-17.963c0.685-1.557,1.376-3.128,2.073-4.712c0.732-1.54,1.022-3.256,0.908-4.965
					c-0.264-3.426-2.509-6.67-5.753-8.081c-3.23-1.445-7.142-0.916-9.849,1.201c-1.339,1.068-2.411,2.44-3.054,4.02
					c-0.698,1.583-1.391,3.154-2.078,4.711c-2.749,6.226-5.4,12.232-7.926,17.954c-5.06,11.434-9.618,21.733-13.448,30.389
					c-3.839,8.628-6.949,15.617-9.108,20.469c-1.079,2.397-1.92,4.265-2.5,5.554c-0.284,0.618-0.505,1.096-0.662,1.439
					c-0.152,0.323-0.242,0.483-0.242,0.483s0.057-0.174,0.193-0.505c0.146-0.348,0.351-0.833,0.615-1.46
					c0.56-1.299,1.371-3.18,2.411-5.594c2.123-4.868,5.181-11.879,8.956-20.535c3.801-8.669,8.324-18.982,13.346-30.434
					c2.517-5.726,5.159-11.736,7.898-17.966c0.685-1.558,1.377-3.129,2.074-4.713c0.663-1.635,1.8-3.104,3.208-4.222
					c2.849-2.232,6.973-2.791,10.376-1.267c3.419,1.485,5.785,4.907,6.059,8.514c0.124,1.794-0.194,3.623-0.953,5.215
					c-0.698,1.583-1.391,3.153-2.077,4.71c-2.748,6.225-5.399,12.229-7.924,17.951c-5.06,11.433-9.617,21.73-13.447,30.386
					c-3.839,8.628-6.949,15.617-9.108,20.47c-1.079,2.397-1.92,4.265-2.501,5.555c-0.284,0.618-0.505,1.097-0.662,1.439
					C100.842,447.143,100.752,447.304,100.752,447.304z"/>
			</g>
			<g>
				<path style="fill:#263238;" d="M104.2,387.769c-0.056,0.133-3.063-1.007-6.715-2.545c-3.653-1.538-6.569-2.892-6.513-3.025
					c0.056-0.132,3.062,1.007,6.715,2.545C101.34,386.282,104.256,387.636,104.2,387.769z"/>
			</g>
		</g>
		<g>
			<path style="fill:#0089D1;" d="M208.263,198.744c0,0,12.665,0.404,15.258,24.498l0.741,14.645l-5.883,2.461l-11.087-41.129"/>
			<path style="fill:#0089D1;" d="M184.096,198.413c0,0-5.574,0.183-11.119,10.88c-4.406,8.5-7.335,81.207-7.335,81.207
				l52.737,1.643c0,0-0.447-16.743,0-37.43c0.739-34.189,0.95-49.536-8.412-55.97C204.229,194.8,194.893,194.697,184.096,198.413z"
				/>
			<g>
				<path style="fill:#263238;" d="M218.874,252.649c-0.144,0.003-0.433-7.37-0.647-16.467c-0.213-9.1-0.27-16.477-0.126-16.481
					c0.144-0.003,0.433,7.368,0.647,16.468C218.961,245.266,219.018,252.645,218.874,252.649z"/>
			</g>
			<path style="fill:#263238;" d="M218.284,227.481c0.001,0.021,1.88-17.114-2.827-25.02c0,0,3.117,3.412,4.273,6.131
				c1.156,2.719,2.694,15.626-1.35,22.977l0.316-3.541"/>
			<g>
				<path style="fill:#FAFAFA;" d="M217.743,217.656c0.018,0.01-0.134,0.339-0.584,0.802c-0.445,0.462-1.236,1.015-2.343,1.358
					c-1.103,0.345-2.505,0.461-4.011,0.22c-1.511-0.244-3.064-0.864-4.636-1.564c-1.571-0.703-3.046-1.402-4.451-1.813
					c-1.403-0.413-2.73-0.556-3.828-0.476c-2.236,0.149-3.333,1.189-3.379,1.085c-0.015-0.016,0.22-0.288,0.768-0.626
					c0.544-0.338,1.43-0.695,2.577-0.826c1.145-0.132,2.532-0.021,3.993,0.382c1.466,0.402,2.967,1.1,4.531,1.799
					c1.56,0.697,3.072,1.311,4.505,1.567c1.432,0.255,2.77,0.182,3.829-0.101C216.888,218.895,217.675,217.559,217.743,217.656z"/>
			</g>
			<g>
				<path style="fill:#FAFAFA;" d="M175.522,253.503c-0.04,0.156-1.907-0.465-4.21-0.064c-2.311,0.361-3.878,1.549-3.967,1.415
					c-0.108-0.077,1.415-1.536,3.882-1.928C173.689,252.504,175.6,253.396,175.522,253.503z"/>
			</g>
			<g>
				<path style="fill:#FAFAFA;" d="M217.543,256.898c-0.019,0.053-0.53-0.171-1.501-0.307c-0.971-0.136-2.406-0.076-4.104,0.395
					c-1.708,0.437-3.638,1.298-5.894,2.017c-2.256,0.72-4.841,1.198-7.575,1.293c-5.491,0.214-10.38-1.245-13.573-2.811
					c-0.814-0.37-1.509-0.788-2.13-1.129c-0.597-0.383-1.122-0.697-1.526-0.988c-0.802-0.594-1.234-0.935-1.212-0.964
					c0.068-0.104,1.787,1.312,5.022,2.748c3.193,1.461,8.007,2.835,13.401,2.625c2.686-0.093,5.225-0.548,7.45-1.231
					c2.226-0.681,4.193-1.516,5.947-1.916c1.744-0.436,3.24-0.441,4.227-0.238c0.493,0.104,0.868,0.215,1.109,0.327
					C217.427,256.82,217.55,256.881,217.543,256.898z"/>
			</g>
			<g>
				<path style="fill:#FAFAFA;" d="M217.923,283.108c-0.016,0.061-0.723-0.278-2.08-0.299c-1.354-0.042-3.299,0.387-5.506,1.415
					c-1.114,0.491-2.312,1.098-3.674,1.611c-1.36,0.52-2.906,0.856-4.54,0.957c-3.286,0.213-6.86-0.541-10.413-1.697
					c-3.56-1.159-6.866-2.472-9.999-3.197c-3.121-0.768-6.048-0.868-8.433-0.438c-2.389,0.409-4.189,1.291-5.294,2.065
					c-1.115,0.773-1.616,1.353-1.656,1.312c-0.013-0.012,0.108-0.158,0.353-0.425c0.241-0.27,0.633-0.64,1.185-1.052
					c1.089-0.839,2.91-1.797,5.346-2.262c1.214-0.234,2.571-0.348,4.025-0.305c1.454,0.052,2.997,0.274,4.583,0.638
					c3.185,0.711,6.515,2.019,10.05,3.169c3.524,1.147,7.029,1.895,10.226,1.714c1.593-0.086,3.086-0.394,4.419-0.884
					c1.338-0.484,2.544-1.069,3.676-1.544c2.248-0.996,4.274-1.388,5.66-1.28c0.693,0.038,1.22,0.168,1.564,0.284
					C217.759,283.004,217.928,283.095,217.923,283.108z"/>
			</g>
		</g>
		<g>
			<g>
				<g>
					<g>
						<path style="fill:#D88876;" d="M146.27,296.692c0.588-2.727,2.174-6.05,4.475-3.631c2.302,2.419,4.981,3.411,5.893,3.175
							c0.912-0.236,0.916-1.591-0.047-1.974c-0.779-0.31-1.915-1.229-2.741-1.954c-0.681-0.598-1.261-1.305-1.704-2.096
							c-0.514-0.923-0.914-1.725-1.237-2.415c0,0,4.45-20.438,8.14-27.795c3.689-7.357,18.968-25.547,18.968-25.547l-13.955-10.685
							c-8.281,8.866-20.937,30.353-20.937,30.353c-5.813,15.336-5.783,34.782-5.783,34.782l0.051,0.003
							c-0.225,1.148-0.429,2.087-0.607,2.902c-1.01,4.617,1.862,10.749,6.43,11.96L146.27,296.692"/>
						<g>
							<path style="fill:#A85547;" d="M144.114,302.164c-0.018,0.05-0.645-0.173-1.279-0.983c-0.641-0.796-1.14-2.161-1.227-3.686
								c-0.081-1.519,0.062-2.858,0.064-3.823c0.021-0.965-0.037-1.563,0.039-1.577c0.065-0.014,0.256,0.578,0.329,1.566
								c0.092,0.986,0.009,2.344,0.088,3.801c0.084,1.45,0.493,2.722,1.008,3.506C143.64,301.764,144.165,302.09,144.114,302.164z"
								/>
						</g>
						<g>
							<path style="fill:#A85547;" d="M143.324,303.696c0.013,0.061-0.618,0.145-1.411-0.375c-0.812-0.503-1.49-1.622-2.041-2.841
								c-1.147-2.484-1.322-4.722-1.188-4.729c0.151-0.027,0.55,2.11,1.662,4.513c0.547,1.207,1.124,2.25,1.786,2.761
								C142.777,303.559,143.337,303.616,143.324,303.696z"/>
						</g>
					</g>
				</g>
				<path style="fill:#0089D1;" d="M183.411,198.744c-1.108,0.496-15.513,4.031-23.124,17.289l-8.807,13.413l25.154,15.605
					l13.221-33.413L183.411,198.744z"/>
				<path style="fill:#263238;" d="M166.867,205.03c0,0,25.443-3.401,23.893,16.667c-1.55,20.068-30.477,49.334-30.477,49.334
					l-0.58,7.657c0,0,25.58-24.883,30.967-40.701c5.387-15.818,8.766-35.433-16.045-35.526L166.867,205.03z"/>
			</g>
			<g>
				<path style="fill:#263238;" d="M152.403,229.934c0.009-0.016,0.182,0.068,0.502,0.242c0.368,0.207,0.827,0.465,1.388,0.78
					c1.257,0.734,2.969,1.733,5.055,2.952c4.3,2.57,10.132,6.055,16.576,9.906l0.03,0.018l0.07,0.062
					c-0.037-0.055-0.108-0.074-0.156-0.068c-0.037,0.006-0.029,0.006-0.029,0.006c0.02-0.014,0.051-0.042,0.085-0.076
					c0.067-0.071,0.135-0.157,0.2-0.246c0.131-0.179,0.254-0.372,0.374-0.566c0.239-0.39,0.464-0.79,0.683-1.19
					c0.436-0.801,0.846-1.604,1.242-2.396c0.791-1.586,1.526-3.132,2.218-4.608c1.381-2.954,2.584-5.634,3.583-7.889
					c0.962-2.211,1.751-4.024,2.331-5.356c0.254-0.59,0.461-1.072,0.627-1.459c0.146-0.333,0.229-0.505,0.246-0.499
					c0.016,0.006-0.033,0.191-0.148,0.536c-0.115,0.345-0.294,0.851-0.537,1.497c-0.486,1.293-1.224,3.15-2.181,5.426
					c-0.957,2.276-2.126,4.974-3.486,7.945c-0.681,1.485-1.408,3.038-2.196,4.634c-0.395,0.798-0.805,1.606-1.244,2.417
					c-0.22,0.405-0.448,0.811-0.695,1.215c-0.124,0.202-0.251,0.402-0.397,0.601c-0.073,0.1-0.15,0.199-0.244,0.299
					c-0.048,0.05-0.102,0.102-0.18,0.155c-0.049,0.027-0.096,0.059-0.19,0.072c-0.112,0.018-0.231-0.03-0.314-0.126l0.07,0.061
					l-0.03-0.018c-6.414-3.902-12.218-7.434-16.497-10.037c-2.051-1.277-3.734-2.324-4.97-3.093
					c-0.541-0.349-0.983-0.635-1.338-0.864C152.549,230.063,152.394,229.949,152.403,229.934z"/>
			</g>
			<g>
				<path style="fill:#FAFAFA;" d="M191.03,217.732c0.02,0.038-0.4,0.265-1.081,0.787c-0.697,0.501-1.588,1.376-2.908,2.235
					c-1.311,0.865-3.297,1.383-5.365,0.904c-1.029-0.221-2.065-0.716-2.945-1.453c-0.888-0.731-1.612-1.665-2.31-2.614
					c-0.7-0.95-1.355-1.885-2.116-2.658c-0.757-0.77-1.624-1.372-2.517-1.81c-1.792-0.887-3.636-1.124-5.144-1.054
					c-3.068,0.189-4.663,1.479-4.707,1.349c-0.01-0.015,0.083-0.091,0.271-0.222c0.186-0.134,0.467-0.324,0.86-0.513
					c0.773-0.396,1.984-0.844,3.552-0.981c1.558-0.12,3.485,0.083,5.377,0.989c0.943,0.447,1.866,1.074,2.671,1.884
					c0.804,0.808,1.475,1.764,2.171,2.706c0.694,0.943,1.391,1.843,2.218,2.531c0.818,0.693,1.764,1.156,2.727,1.377
					c1.932,0.471,3.792,0.032,5.066-0.752c1.295-0.786,2.242-1.629,2.982-2.085C190.561,217.875,191.018,217.706,191.03,217.732z"/>
			</g>
		</g>
		<g>
			<g>
				<g>
					<g>
						<g>
							<g>
								<path style="fill:#D88876;" d="M198.702,207.003L198.702,207.003c5.326,0,9.481-4.613,8.926-9.91
									c-0.302-2.879-0.558-5.224-0.558-5.224s7.095-1.103,7.182-8.197c0.088-7.094-1.142-23.382-1.142-23.382l0,0
									c-8.212-3.529-17.69-2.338-24.772,3.114l-1.051,0.809l2.463,34.455C190.085,203.364,193.993,207.003,198.702,207.003z"/>
							</g>
							<g>
								<g>
									<path style="fill:#263238;" d="M211.517,171.926c-0.519-0.233-0.751-0.843-0.518-1.362
										c0.233-0.519,0.843-0.751,1.362-0.518c0.519,0.233,0.751,0.843,0.518,1.362
										C212.646,171.927,212.036,172.159,211.517,171.926z"/>
								</g>
								<g>
									<g>
										<path style="fill:#263238;" d="M213.061,170.316c-0.068,0.151-0.896-0.143-1.826,0.154
											c-0.935,0.284-1.449,0.997-1.59,0.911c-0.068-0.037-0.031-0.282,0.191-0.601c0.216-0.316,0.642-0.692,1.224-0.873
											c0.581-0.181,1.145-0.114,1.503,0.023C212.926,170.066,213.095,170.247,213.061,170.316z"/>
									</g>
								</g>
							</g>
							<g>
								<g>
									<path style="fill:#263238;" d="M202.61,171.304c0.484,0.298,0.636,0.932,0.338,1.417c-0.298,0.485-0.932,0.636-1.417,0.338
										c-0.485-0.298-0.636-0.932-0.338-1.417C201.491,171.158,202.126,171.006,202.61,171.304z"/>
								</g>
								<g>
									<g>
										<path style="fill:#263238;" d="M202.881,171.543c-0.051,0.158-0.906-0.044-1.798,0.354
											c-0.898,0.385-1.331,1.15-1.481,1.08c-0.071-0.029-0.061-0.277,0.124-0.618c0.18-0.338,0.563-0.758,1.121-1.002
											c0.558-0.244,1.126-0.239,1.496-0.142C202.719,171.31,202.907,171.471,202.881,171.543z"/>
									</g>
								</g>
							</g>
							<g>
								<g>
									<path style="fill:#263238;" d="M206.503,179.781c-0.007-0.076,0.597-0.199,1.58-0.335c0.256-0.028,0.456-0.086,0.475-0.223
										c0.046-0.154-0.053-0.427-0.183-0.732c-0.252-0.646-0.506-1.3-0.773-1.985c-1.067-2.828-1.816-5.164-1.673-5.219
										c0.144-0.054,1.125,2.194,2.192,5.022c0.252,0.69,0.494,1.349,0.732,2.001c0.094,0.296,0.271,0.641,0.14,1.062
										c-0.071,0.211-0.272,0.364-0.44,0.408c-0.169,0.051-0.313,0.051-0.436,0.057
										C207.126,179.874,206.51,179.858,206.503,179.781z"/>
								</g>
							</g>
							<g>
								<path style="fill:#FFFFFF;" d="M203.329,180.861c-1.018-0.606,2.803,1.489,4.791,1.392c0,0-1.141,1.823-3.186,1.075
									C202.811,182.551,203.329,180.861,203.329,180.861z"/>
							</g>
							<g>
								<path style="fill:#A85547;" d="M207.081,191.766c0,0-4.483,0.365-9.248-2.628c0,0,2.186,5.105,9.264,4.466L207.081,191.766z
									"/>
							</g>
						</g>
					</g>
					<g>
						<g>
							<path style="fill:#D88876;" d="M187.27,171.076c-0.157-0.048-5.287-0.396-4.436,5.584c0.852,5.98,6.61,3.143,6.596,2.969
								C189.416,179.457,187.27,171.076,187.27,171.076z"/>
						</g>
						<g>
							<g>
								<path style="fill:#A85547;" d="M187.299,177.792c-0.029-0.016-0.094,0.088-0.258,0.194
									c-0.161,0.103-0.448,0.199-0.776,0.127c-0.665-0.142-1.34-1.069-1.522-2.143c-0.093-0.542-0.053-1.077,0.079-1.533
									c0.12-0.464,0.36-0.809,0.67-0.911c0.306-0.118,0.558,0.04,0.656,0.198c0.104,0.156,0.083,0.281,0.116,0.286
									c0.019,0.013,0.114-0.118,0.031-0.359c-0.042-0.115-0.132-0.246-0.289-0.341c-0.16-0.096-0.38-0.126-0.598-0.07
									c-0.456,0.098-0.811,0.581-0.956,1.082c-0.17,0.507-0.228,1.11-0.124,1.718c0.21,1.2,0.987,2.239,1.887,2.366
									c0.436,0.05,0.769-0.127,0.93-0.294C187.309,177.939,187.322,177.8,187.299,177.792z"/>
							</g>
						</g>
					</g>
				</g>
				<path style="fill:#263238;" d="M184.206,164.428c0.072,1.962,1.687,3.987,2.376,5.824l0,0l0.151,1.206l1.955,6.956l2.906-1.307
					l-1.401-11.431c0,0-0.591-4.424,3.258-4.271c3.849,0.153,9.314,4.146,16.696,2.599c1.195-0.251,2.444-0.463,3.41-1.21
					c0.966-0.747,1.618-1.987,1.403-3.189c-0.215-1.202-1.469-2.2-2.654-1.905c1.617-0.147,2.816-2.039,2.258-3.564
					c-0.558-1.525-2.694-2.197-4.025-1.266c0.747-0.801,1.514-1.635,1.87-2.67c0.356-1.035,0.188-2.335-0.687-2.994
					c-0.862-0.648-2.106-0.477-3.07,0.007c-1.462,0.733-2.568,2.074-4.076,2.706c-1.525,0.639-3.25,0.471-4.894,0.645
					c-1.818,0.192-3.626,0.844-4.979,2.074c-1.353,1.229-2.196,3.078-1.981,4.894c-2.241-0.139-4.696-0.015-6.424,1.387
					C186.298,158.92,184.078,160.908,184.206,164.428z"/>
			</g>
			<g>
				<path style="fill:#263238;" d="M202.188,167.98c-0.089,0.279-1.138,0.166-2.225,0.607c-1.097,0.416-1.79,1.212-2.044,1.068
					c-0.12-0.07-0.098-0.395,0.163-0.822c0.254-0.423,0.774-0.93,1.502-1.215c0.727-0.285,1.453-0.268,1.927-0.13
					C201.991,167.624,202.228,167.847,202.188,167.98z"/>
			</g>
			<g>
				<path style="fill:#263238;" d="M212.154,166.625c-0.089,0.281-0.824,0.3-1.615,0.571c-0.8,0.243-1.408,0.656-1.644,0.48
					c-0.107-0.088-0.079-0.343,0.14-0.651c0.215-0.306,0.637-0.644,1.184-0.821c0.548-0.176,1.087-0.149,1.44-0.026
					C212.017,166.301,212.189,166.491,212.154,166.625z"/>
			</g>
			<path style="fill:#263238;" d="M190.384,173.888c0.536-1.218,1.845-1.987,2.295-3.24c0.251-0.698,0.203-1.463,0.147-2.203
				c-0.18-2.39-0.405-4.777-0.675-7.159c-0.024-0.212-0.058-0.443-0.213-0.589c-0.249-0.233-0.654-0.121-0.955,0.037
				c-1.406,0.735-2.369,2.169-2.755,3.707c-0.387,1.538-0.244,3.172,0.163,4.705c0.406,1.533,1.068,2.985,1.725,4.429"/>
		</g>
		<g style="opacity:0.3;">
			<path d="M167.526,253.289c-0.108-1.879,2.078-3.077,3.959-3.15c1.881-0.073,4.081,1.001,5.616-0.088
				c2.472-1.754,3.926-5.941,4.821-8.531c2.297-6.649,3.437-11.335,4.5-18.288c-3.607,7.306-6.935,14.046-10.542,21.351
				l-3.956-2.526c-0.876,0.569-3.292,3.665-3.73,5.377c-0.438,1.712-0.409,3.504-0.593,5.261"/>
		</g>
	</g>
</g>
</svg>
