<svg width="112" height="92" viewBox="0 0 112 92" fill="none" xmlns="http://www.w3.org/2000/svg">
<g clip-path="url(#clip0_2233_280)">
<path d="M35.1313 42.8481L22.7049 15.335H36.5968L46.9555 39.0718C50.9705 37.7431 62.6944 32.8379 72.5713 18.6118L65.1034 16.344L87.0856 0L91.0504 25.7848L83.8334 22.9775C77.8109 31.3493 62.5137 48.3627 37.4099 50.3807C37.2593 50.3807 36.5868 50.3807 35.5429 50.3807C22.9821 50.7075 10.6082 47.3026 0 40.6003C0 40.6003 17.6359 44.6663 35.1313 42.8481Z" fill="white"/>
<path d="M50.5992 51.3198L55.5477 61.7396L62.4636 46.3447C62.4636 46.3447 73.8762 42.5184 84.3152 28.1225L55.7083 92L40.7925 59.4019C26.1076 57.294 19.7137 52.6785 19.7137 52.6785C19.7137 52.6785 33.1239 56.205 50.5992 51.3198Z" fill="white"/>
</g>
<defs>
<clipPath id="clip0_2233_280">
<rect width="112" height="92" fill="white"/>
</clipPath>
</defs>
</svg>
