<svg width="125" height="27" viewBox="0 0 125 27" fill="none" xmlns="http://www.w3.org/2000/svg">
<path d="M10.5701 12.5778L6.84413 4.5H11.0281L14.1463 11.4677C17.3125 10.3242 20.019 8.22996 21.8713 5.49051L19.6163 4.82448L26.2402 0L27.4382 7.56546L25.2625 6.71158C23.4392 9.17078 18.8412 14.166 11.2748 14.7552H10.711C6.93344 14.8697 3.20578 13.895 0 11.9545C3.47371 12.6568 7.03417 12.8668 10.5701 12.5778Z" fill="#3A76FB"/>
<path d="M15.2474 15.0626L16.736 18.1195L18.8236 13.6024C18.8236 13.6024 22.2589 12.4753 25.4035 8.25708L16.7889 27.0427L12.3318 17.4364C7.92763 16.8131 5.97217 15.4639 5.97217 15.4639C9.05157 16.0635 12.2354 15.9257 15.2474 15.0626Z" fill="#183982"/>
<path d="M52.0227 6.19918L45.6102 21.5692H42.9677L36.5552 6.19918H38.9334C39.1566 6.19049 39.3765 6.25353 39.5588 6.3785C39.7195 6.50174 39.844 6.66367 39.92 6.84814L43.6636 16.2409C43.7869 16.5483 43.9102 16.8813 44.0247 17.2485C44.1392 17.6157 44.2449 17.9914 44.3418 18.3927C44.4299 17.9914 44.5268 17.6157 44.6325 17.2485C44.7078 16.9016 44.8049 16.5594 44.9232 16.2239L48.6579 6.83106C48.7284 6.65303 48.8508 6.49874 49.0103 6.38704C49.1864 6.24787 49.4085 6.17509 49.6356 6.1821L52.0227 6.19918Z" fill="#183982"/>
<path d="M56.4266 7.48867C56.4282 7.70954 56.3801 7.92808 56.2857 8.12909C56.1914 8.32262 56.0632 8.49885 55.9069 8.64996C55.7435 8.79828 55.556 8.91946 55.352 9.0086C55.1341 9.09539 54.9005 9.13894 54.6649 9.13668C54.4381 9.13714 54.2135 9.09359 54.0043 9.0086C53.8029 8.91933 53.6184 8.79812 53.4582 8.64996C53.3074 8.49621 53.1826 8.32044 53.0882 8.12909C53.0005 7.9263 52.9556 7.70855 52.9561 7.48867C52.9549 7.2632 52.9998 7.03974 53.0882 6.83118C53.2647 6.45206 53.578 6.14843 53.969 5.97729C54.1782 5.8923 54.4029 5.84875 54.6297 5.84921C54.8652 5.84694 55.0988 5.89049 55.3167 5.97729C55.5208 6.06643 55.7083 6.1876 55.8717 6.33592C56.0392 6.47558 56.1794 6.64335 56.2857 6.83118C56.3799 7.03826 56.428 7.26233 56.4266 7.48867ZM56.0566 10.6737V21.5949H53.326V10.6737H56.0566Z" fill="#183982"/>
<path d="M62.5394 21.7656C62.1265 21.792 61.7125 21.7343 61.3241 21.596C60.9357 21.4578 60.5815 21.2421 60.2844 20.9629C59.7339 20.3506 59.4525 19.5537 59.5005 18.7428V12.6375H58.3818C58.3138 12.6402 58.2459 12.6295 58.1823 12.606C58.1187 12.5826 58.0607 12.5468 58.0118 12.5009C57.9568 12.4475 57.9142 12.3833 57.8868 12.3126C57.8595 12.2419 57.848 12.1663 57.8533 12.091V11.0407L59.6678 10.759L60.2404 7.77034C60.2695 7.64153 60.3443 7.52671 60.4518 7.44586C60.5653 7.36215 60.7056 7.31983 60.8482 7.32631H62.2487V10.7419H66.9436L67.5249 7.74472C67.5543 7.61811 67.6254 7.50421 67.7275 7.42024C67.8411 7.33653 67.9814 7.29421 68.1239 7.3007H69.5244V10.7163H72.5369V12.6375H69.5244V18.5635C69.5075 18.8535 69.6016 19.1393 69.7887 19.3662C69.8748 19.4563 69.98 19.5274 70.097 19.5746C70.2141 19.6217 70.3403 19.6439 70.4669 19.6394C70.6075 19.6437 70.7478 19.6235 70.8809 19.5796C70.9869 19.548 71.09 19.508 71.1892 19.4601L71.4094 19.3405C71.4666 19.3026 71.534 19.2818 71.6032 19.2808C71.6761 19.2753 71.7484 19.2966 71.8058 19.3405C71.87 19.3891 71.9265 19.4466 71.9732 19.5113L72.7835 20.7922C72.3765 21.1108 71.9142 21.3566 71.4182 21.518C70.9062 21.679 70.371 21.7597 69.8327 21.7571C69.4184 21.7853 69.0025 21.7283 68.6124 21.59C68.2223 21.4517 67.8668 21.2351 67.569 20.9544C67.0128 20.3448 66.7278 19.5468 66.7762 18.7343V12.6375H62.2487V18.5635C62.2332 18.8519 62.3237 19.1363 62.5041 19.3662C62.5933 19.4625 62.7038 19.5379 62.8274 19.5867C62.951 19.6355 63.0844 19.6564 63.2176 19.6479C63.3611 19.6529 63.5044 19.6327 63.6404 19.5882C63.7435 19.5566 63.8437 19.5166 63.9399 19.4686L64.1601 19.3491C64.22 19.31 64.2905 19.2892 64.3627 19.2893C64.4327 19.2852 64.5018 19.3065 64.5565 19.3491C64.6207 19.3976 64.6771 19.4552 64.7239 19.5199L65.5342 20.8007C65.1288 21.1217 64.666 21.3677 64.1689 21.5265C63.6428 21.6918 63.0924 21.7725 62.5394 21.7656Z" fill="#183982"/>
<path d="M83.0016 21.5949H80.0332V6.22485H83.0016V21.5949Z" fill="#183982"/>
<path d="M88.4978 12.0141C88.7207 11.7935 88.9591 11.5881 89.2113 11.3993C89.4603 11.213 89.729 11.0527 90.0128 10.9211C90.2959 10.7923 90.5908 10.6893 90.8937 10.6137C91.2402 10.5361 91.595 10.4989 91.9507 10.5027C92.512 10.4939 93.0694 10.5955 93.589 10.8016C94.0482 10.9933 94.4552 11.2855 94.7782 11.6555C95.1093 12.0412 95.3552 12.4888 95.5005 12.9705C95.676 13.5234 95.7592 14.0999 95.7471 14.6783V21.6289H93.0341V14.6441C93.0744 14.0913 92.9087 13.5429 92.5673 13.0986C92.3863 12.9051 92.1619 12.7545 91.9115 12.6583C91.6611 12.5621 91.3912 12.5228 91.1227 12.5435C90.6659 12.5407 90.2153 12.6463 89.8102 12.8509C89.379 13.0749 88.9866 13.363 88.6475 13.7048V21.6033H85.9521V10.6735H87.6169C87.7714 10.661 87.9254 10.7023 88.0513 10.7899C88.1772 10.8775 88.2668 11.0058 88.304 11.1517L88.4978 12.0141Z" fill="#183982"/>
<path d="M108.141 5.77222V21.5948H106.476C106.322 21.6088 106.168 21.5679 106.044 21.4799C105.919 21.3919 105.831 21.2627 105.798 21.1166L105.569 20.0663C105.126 20.561 104.595 20.9746 104.001 21.2874C103.366 21.6123 102.657 21.774 101.94 21.757C101.353 21.7622 100.774 21.6335 100.248 21.3813C99.7283 21.1263 99.2761 20.758 98.9271 20.3054C98.519 19.7829 98.2199 19.1884 98.0463 18.5549C97.8315 17.7753 97.7278 16.9709 97.738 16.1641C97.7307 15.3999 97.8466 14.6393 98.0815 13.9098C98.2887 13.2528 98.6202 12.6389 99.0593 12.0995C99.4696 11.5966 99.9901 11.1883 100.583 10.9041C101.205 10.6085 101.89 10.4593 102.583 10.4686C103.138 10.4529 103.69 10.5519 104.203 10.7589C104.648 10.946 105.053 11.2092 105.401 11.536V5.77222H108.141ZM105.428 13.4572C105.162 13.1283 104.817 12.8674 104.424 12.6973C104.053 12.546 103.654 12.4704 103.252 12.4753C102.869 12.466 102.49 12.5419 102.142 12.6973C101.792 12.8422 101.488 13.075 101.261 13.3718C101.003 13.7167 100.82 14.1089 100.724 14.5246C100.584 15.0602 100.519 15.6116 100.53 16.1641C100.52 16.7089 100.573 17.2531 100.689 17.7864C100.775 18.1738 100.93 18.5436 101.147 18.8794C101.328 19.1434 101.581 19.3533 101.878 19.4857C102.178 19.6118 102.502 19.6757 102.829 19.6735C103.331 19.6868 103.827 19.5688 104.265 19.332C104.696 19.0728 105.077 18.7435 105.392 18.3586L105.428 13.4572Z" fill="#183982"/>
<path d="M114.007 7.48863C114.006 7.7101 113.955 7.92862 113.857 8.12905C113.766 8.32418 113.637 8.50088 113.479 8.64992C113.317 8.80007 113.129 8.92146 112.924 9.00856C112.709 9.09424 112.478 9.13777 112.245 9.13664C112.018 9.13877 111.794 9.09516 111.585 9.00856C111.382 8.92138 111.197 8.79994 111.039 8.64992C110.879 8.49841 110.752 8.31785 110.664 8.11858C110.576 7.91932 110.53 7.70525 110.528 7.48863C110.529 7.25983 110.577 7.03355 110.669 6.8226C110.754 6.62398 110.88 6.44397 111.039 6.29319C111.197 6.14318 111.382 6.02174 111.585 5.93455C111.794 5.84796 112.018 5.80434 112.245 5.80647C112.478 5.80534 112.709 5.84887 112.924 5.93455C113.129 6.02165 113.317 6.14304 113.479 6.29319C113.64 6.44364 113.769 6.62358 113.857 6.8226C113.956 7.03174 114.007 7.25882 114.007 7.48863ZM113.628 10.6736V21.5949H110.907V10.6736H113.628Z" fill="#183982"/>
<path d="M116.139 12.1935C117.41 11.0579 119.087 10.4456 120.816 10.4857C121.419 10.4756 122.018 10.583 122.578 10.8017C123.076 10.9863 123.525 11.2783 123.89 11.6556C124.258 12.0411 124.537 12.4981 124.709 12.9962C124.902 13.5458 124.998 14.1233 124.991 14.704V21.6034H123.758C123.555 21.6152 123.352 21.5771 123.168 21.4924C123.003 21.3883 122.886 21.226 122.842 21.0398L122.595 20.2542C122.33 20.4892 122.05 20.7087 121.758 20.9117C121.484 21.0999 121.188 21.2574 120.878 21.3814C120.58 21.515 120.266 21.6125 119.944 21.6717C119.579 21.7429 119.207 21.7772 118.834 21.7742C118.389 21.7802 117.946 21.7168 117.522 21.5863C117.135 21.4763 116.778 21.287 116.473 21.0313C116.177 20.7784 115.945 20.4628 115.795 20.1091C115.628 19.6988 115.544 19.2609 115.549 18.8197C115.548 18.5289 115.599 18.2401 115.698 17.9658C115.797 17.6758 115.956 17.4085 116.165 17.1802C116.408 16.9089 116.69 16.6731 117.002 16.48C117.397 16.2357 117.823 16.0433 118.27 15.9079C118.845 15.7273 119.434 15.5931 120.032 15.5066C120.8 15.4095 121.574 15.3639 122.349 15.37V14.7296C122.395 14.151 122.227 13.5754 121.873 13.1072C121.694 12.9243 121.476 12.7819 121.234 12.6904C120.992 12.5989 120.732 12.5604 120.472 12.5778C120.102 12.5676 119.732 12.6196 119.38 12.7315C119.113 12.8151 118.856 12.9268 118.614 13.0645C118.394 13.1926 118.2 13.3036 118.015 13.3975C117.836 13.5 117.632 13.5532 117.425 13.5512C117.251 13.5555 117.081 13.5045 116.94 13.406C116.812 13.3147 116.702 13.2019 116.614 13.073L116.139 12.1935ZM122.349 16.9326C121.687 16.9564 121.028 17.022 120.376 17.129C119.933 17.199 119.501 17.3224 119.089 17.4962C118.816 17.61 118.576 17.7892 118.394 18.017C118.263 18.2101 118.193 18.4353 118.191 18.666C118.173 18.852 118.202 19.0396 118.275 19.2122C118.349 19.3849 118.465 19.5374 118.614 19.6565C118.936 19.872 119.324 19.9772 119.715 19.9554C120.213 19.9688 120.708 19.8694 121.159 19.6651C121.603 19.4475 122.005 19.1588 122.349 18.8112V16.9326Z" fill="#183982"/>
</svg>
