<svg width="197" height="180" viewBox="0 0 197 180" fill="none" xmlns="http://www.w3.org/2000/svg">
<path d="M82.1345 35.8413C60.3788 37.9991 36.2825 27.1695 16.7963 41.4262C-1.50693 54.8502 -3.32964 81.4597 4.06781 100.469C22.1121 146.798 82.7031 137.39 120.655 123.154C155.49 110.09 205.906 68.1271 183.957 25.2046C175.6 8.8561 155.017 -2.38477 136.613 0.433061C111.201 4.31202 108.383 33.2418 82.1345 35.8413Z" fill="#ECF2FF"/>
<path d="M98.478 180.033C152.846 180.033 196.919 177.46 196.919 174.285C196.919 171.111 152.846 168.538 98.478 168.538C44.1103 168.538 0.0366211 171.111 0.0366211 174.285C0.0366211 177.46 44.1103 180.033 98.478 180.033Z" fill="#ECF2FF"/>
<path d="M82.1648 39.4661C82.2004 45.4826 77.8898 45.4216 77.9762 43.5532C78.0625 41.6848 76.9963 37.2119 77.9762 37.6434C78.9561 38.075 82.1496 36.8057 82.1648 39.4661Z" fill="#263238"/>
<path d="M79.4537 50.3615C80.0477 50.3158 81.2408 50.8692 81.3475 52.438C81.3752 52.8939 81.5084 53.337 81.7366 53.7326C81.9648 54.1282 82.2818 54.4654 82.6624 54.7177C82.6624 54.7177 80.6874 54.9563 79.3927 53.9307C78.3367 53.1032 77.8696 51.2906 78.423 50.8844C78.7262 50.64 79.0773 50.4619 79.4537 50.3615Z" fill="#263238"/>
<path d="M78.6767 46.0864C79.6921 46.9851 80.6212 49.3612 78.3314 50.4883C76.0416 51.6155 72.4419 48.9906 72.4419 48.9906L76.397 47.1577L78.6767 46.0864Z" fill="#263238"/>
<path d="M79.804 50.5798C79.7482 50.2509 79.6562 49.9291 79.5298 49.6202C79.519 49.5909 79.5016 49.5643 79.479 49.5426C79.4564 49.5209 79.4293 49.5045 79.3995 49.4947C79.3697 49.485 79.3381 49.4821 79.3071 49.4862C79.276 49.4904 79.2463 49.5015 79.2201 49.5187L77.8138 50.458C77.7855 50.477 77.7623 50.5027 77.7463 50.5328C77.7303 50.5629 77.7219 50.5965 77.7219 50.6306C77.7219 50.6647 77.7303 50.6983 77.7463 50.7284C77.7623 50.7585 77.7855 50.7842 77.8138 50.8032C78.0161 50.9516 78.234 51.0776 78.4636 51.1789C78.7937 51.3109 79.4791 50.9352 79.7126 50.7728C79.7447 50.7527 79.7703 50.7239 79.7865 50.6897C79.8027 50.6555 79.8088 50.6174 79.804 50.5798Z" fill="#407BFF"/>
<path opacity="0.3" d="M79.804 50.5798C79.7482 50.2509 79.6562 49.9291 79.5298 49.6202C79.519 49.5909 79.5016 49.5643 79.479 49.5426C79.4564 49.5209 79.4293 49.5045 79.3995 49.4947C79.3697 49.485 79.3381 49.4821 79.3071 49.4862C79.276 49.4904 79.2463 49.5015 79.2201 49.5187L77.8138 50.458C77.7855 50.477 77.7623 50.5027 77.7463 50.5328C77.7303 50.5629 77.7219 50.5965 77.7219 50.6306C77.7219 50.6647 77.7303 50.6983 77.7463 50.7284C77.7623 50.7585 77.7855 50.7842 77.8138 50.8032C78.0161 50.9516 78.234 51.0776 78.4636 51.1789C78.7937 51.3109 79.4791 50.9352 79.7126 50.7728C79.7447 50.7527 79.7703 50.7239 79.7865 50.6897C79.8027 50.6555 79.8088 50.6174 79.804 50.5798Z" fill="black"/>
<path d="M64.669 48.0868C64.1055 47.8989 62.8159 48.1528 62.3386 49.6556C62.203 50.0917 61.9684 50.4905 61.6531 50.8208C61.3378 51.1511 60.9503 51.4039 60.521 51.5596C60.521 51.5596 62.3843 52.2602 63.8872 51.5596C65.1057 51.0062 65.9688 49.351 65.5474 48.823C65.3112 48.517 65.0116 48.2658 64.669 48.0868Z" fill="#263238"/>
<path d="M70.2639 37.7554C68.2077 38.3139 65.4406 40.7509 66.6693 43.7414C65.4559 44.5689 63.9022 46.9501 65.7199 48.4733C67.6746 50.1132 72.4827 47.8133 72.4827 47.8133L72.5182 47.0314L73.0919 41.2129L70.2639 37.7554Z" fill="#263238"/>
<path d="M64.278 48.2191C64.4145 47.9117 64.5848 47.6205 64.7857 47.3509C64.8057 47.3264 64.8309 47.3068 64.8595 47.2932C64.888 47.2797 64.9192 47.2727 64.9508 47.2727C64.9823 47.2727 65.0135 47.2797 65.042 47.2932C65.0706 47.3068 65.0958 47.3264 65.1158 47.3509L66.2531 48.5948C66.276 48.6201 66.2925 48.6506 66.3013 48.6836C66.31 48.7166 66.3106 48.7513 66.3032 48.7846C66.2957 48.818 66.2803 48.849 66.2584 48.8752C66.2364 48.9013 66.2085 48.9219 66.1769 48.935C65.9462 49.029 65.7062 49.0988 65.461 49.1431C65.1056 49.1939 64.5573 48.6709 64.344 48.4577C64.3096 48.4297 64.2847 48.3917 64.2729 48.3489C64.261 48.3062 64.2628 48.2608 64.278 48.2191Z" fill="#407BFF"/>
<path opacity="0.3" d="M64.278 48.2191C64.4145 47.9117 64.5848 47.6205 64.7857 47.3509C64.8057 47.3264 64.8309 47.3068 64.8595 47.2932C64.888 47.2797 64.9192 47.2727 64.9508 47.2727C64.9823 47.2727 65.0135 47.2797 65.042 47.2932C65.0706 47.3068 65.0958 47.3264 65.1158 47.3509L66.2531 48.5948C66.276 48.6201 66.2925 48.6506 66.3013 48.6836C66.31 48.7166 66.3106 48.7513 66.3032 48.7846C66.2957 48.818 66.2803 48.849 66.2584 48.8752C66.2364 48.9013 66.2085 48.9219 66.1769 48.935C65.9462 49.029 65.7062 49.0988 65.461 49.1431C65.1056 49.1939 64.5573 48.6709 64.344 48.4577C64.3096 48.4297 64.2847 48.3917 64.2729 48.3489C64.261 48.3062 64.2628 48.2608 64.278 48.2191Z" fill="black"/>
<path d="M82.7793 58.947C83.7491 59.6984 84.8102 60.5006 85.8764 61.2318C86.9426 61.9629 88.0139 62.699 89.1156 63.3743C90.2174 64.0496 91.3344 64.6791 92.4615 65.2783L93.3094 65.7098L94.1725 66.1109C94.4568 66.248 94.7462 66.3699 95.0407 66.4816L95.4723 66.6592C95.6195 66.7151 95.7769 66.7862 95.8683 66.8116C96.3989 66.9742 96.9425 67.0914 97.493 67.1619C98.0921 67.2482 98.7217 67.3091 99.3614 67.3548C100.636 67.4361 101.946 67.4716 103.261 67.4767C104.576 67.4818 105.906 67.4767 107.231 67.4361C108.556 67.3954 109.897 67.365 111.217 67.3244L111.465 69.3197C108.799 69.8575 106.106 70.2557 103.398 70.5128C102.032 70.6347 100.661 70.7261 99.2598 70.7362C98.5592 70.7362 97.8484 70.7362 97.1173 70.6702C96.3311 70.6239 95.5518 70.4963 94.7919 70.2894C94.5584 70.2285 94.4111 70.1676 94.2385 70.1117L93.7308 69.934C93.3906 69.8223 93.0555 69.7005 92.7154 69.5634L91.7304 69.1674L90.7657 68.7409C89.491 68.1659 88.2487 67.5219 87.0441 66.8116C85.8459 66.1058 84.668 65.3747 83.5307 64.5928C82.3935 63.811 81.2968 63.0037 80.1798 62.0543L82.7793 58.947Z" fill="#E4897B"/>
<path d="M77.5091 56.667C78.7733 55.6821 83.9774 58.9061 85.5615 60.2515L84.4089 67.2225C84.4089 67.2225 76.9201 64.0848 76.4682 61.9422C76.0011 59.7032 76.5545 57.4185 77.5091 56.667Z" fill="#263238"/>
<path d="M110.663 67.4972L113.8 65.0652L114.049 68.8274C114.049 68.8274 111.886 70.1678 110.46 69.3351L110.663 67.4972Z" fill="#E4897B"/>
<path d="M116.598 64.6943L118.203 66.4815L114.029 68.8272L113.78 65.065L116.598 64.6943Z" fill="#E4897B"/>
<path d="M56.9873 169.325L60.9424 169.619L62.3843 160.516L58.4343 160.221L56.9873 169.325Z" fill="#E4897B"/>
<path d="M29.0066 156.601L32.3626 158.713L38.3384 151.626L34.9824 149.509L29.0066 156.601Z" fill="#E4897B"/>
<path d="M33.4239 157.957L30.2811 154.794C30.2274 154.739 30.1554 154.705 30.0787 154.7C30.002 154.694 29.9259 154.717 29.8648 154.764L27.0063 156.901C26.9366 156.957 26.8795 157.028 26.8387 157.108C26.7979 157.187 26.7744 157.275 26.7696 157.364C26.7648 157.454 26.7789 157.543 26.8109 157.627C26.843 157.711 26.8922 157.787 26.9556 157.85C28.0675 158.932 28.6615 159.399 30.0425 160.79C30.8904 161.648 32.0429 162.983 33.2157 164.166C34.3885 165.349 35.6172 164.248 35.2466 163.659C33.5305 160.983 33.8402 159.983 33.7234 158.622C33.7062 158.372 33.5999 158.136 33.4239 157.957Z" fill="#263238"/>
<path d="M61.2064 169.051H56.7486C56.6702 169.05 56.5943 169.078 56.534 169.128C56.4737 169.178 56.4329 169.248 56.4186 169.325L55.7129 172.848C55.6966 172.938 55.7008 173.029 55.7251 173.117C55.7495 173.204 55.7934 173.285 55.8536 173.353C55.9137 173.421 55.9885 173.474 56.0723 173.509C56.1561 173.544 56.2468 173.559 56.3374 173.554C57.891 173.529 58.6475 173.437 60.6073 173.437C61.8106 173.437 65.1767 173.559 66.8573 173.559C68.5378 173.559 68.7054 171.914 68.02 171.767C64.9483 171.097 62.8768 170.178 61.8766 169.294C61.6917 169.132 61.4525 169.045 61.2064 169.051Z" fill="#263238"/>
<path d="M62.3838 160.516L61.5816 165.573L57.6824 164.918L58.4287 160.227L62.3838 160.516Z" fill="#CE6F64"/>
<path d="M34.9826 149.513L38.3386 151.626L35.866 154.56L32.4338 152.534L34.9826 149.513Z" fill="#CE6F64"/>
<path d="M59.9927 77.7629L75.803 80.8448C83.9722 58.7235 82.1952 57.9975 82.1952 57.9975C81.0462 57.3662 79.8593 56.8066 78.6411 56.322L78.4279 56.2408C77.4125 55.8702 77.2094 55.8143 75.8589 55.4183C73.5335 54.8649 71.3656 54.4028 68.6797 54.0221L68.172 53.951C67.6643 53.89 67.2023 53.8393 66.7352 53.7936C66.4204 53.758 66.1056 53.7377 65.806 53.7174L64.7906 53.6616C63.0542 53.5753 61.8103 53.6006 61.8103 53.6006C62.2926 67.4156 61.5108 71.3809 59.9927 77.7629Z" fill="#263238"/>
<path d="M70.9645 46.0864C70.9645 48.4829 70.5939 52.8035 68.6747 54.0322C68.6747 54.0322 68.8524 56.4997 73.1426 57.3324C77.8644 58.2513 75.8538 55.4284 75.8538 55.4284C73.4015 54.3115 73.8229 52.4126 74.6353 50.7067L70.9645 46.0864Z" fill="#E4897B"/>
<path d="M72.4621 47.9702L74.6352 50.7068C74.4448 51.1023 74.2885 51.5134 74.1681 51.9355C73.2085 51.6004 72.0661 50.26 72.1372 49.209C72.1696 48.7798 72.2797 48.3601 72.4621 47.9702Z" fill="#CE6F64"/>
<path d="M70.736 40.5834C70.2283 44.4877 69.9186 46.1276 71.4824 48.4885C73.8331 52.0426 78.7376 51.8141 80.408 48.1433C81.9312 44.838 82.4998 39.0044 79.022 36.745C78.2584 36.2407 77.3786 35.94 76.4662 35.8715C75.5537 35.803 74.6389 35.9689 73.8086 36.3535C72.9783 36.7381 72.2602 37.3287 71.7224 38.069C71.1846 38.8093 70.8451 39.6748 70.736 40.5834Z" fill="#E4897B"/>
<path d="M83.4443 34.3989C83.5153 35.0181 83.4688 35.6451 83.3072 36.247C83.2703 36.0429 83.2211 35.8411 83.16 35.6428C81.7689 31.0429 75.5036 32.1396 73.6149 34.1197C70.5686 33.2464 67.6695 33.942 68.0554 37.6737C68.1036 38.6351 68.4496 39.5578 69.0455 40.3138C68.5733 41.6237 69.0455 43.7105 70.6042 43.7714C72.7975 43.8577 74.8791 40.9536 75.7169 39.3593C77.24 39.6183 79.4334 39.867 81.0987 39.4609C81.3779 39.6284 81.6064 39.7452 81.6064 39.7452C83.3783 38.7958 84.7289 37.8768 83.4443 34.3989Z" fill="#263238"/>
<path d="M69.3855 43.2485C69.3234 44.0061 69.5624 44.7577 70.0506 45.3403C70.7107 46.107 71.5738 45.6551 71.8835 44.7463C72.1424 43.9238 72.1069 42.5377 71.2235 42.1061C71.0288 42.0146 70.8144 41.9733 70.5997 41.9858C70.385 41.9984 70.1768 42.0644 69.9941 42.178C69.8115 42.2915 69.6601 42.4489 69.5538 42.6359C69.4475 42.8229 69.3897 43.0335 69.3855 43.2485Z" fill="#E4897B"/>
<path d="M75.5643 80.8448C75.5643 80.8448 75.6252 112.232 73.0562 124.052C70.3856 136.349 62.5312 164.324 62.5312 164.324L56.8447 163.588C56.8447 163.588 61.2974 135.328 63.1912 123.107C65.2576 109.79 63.9934 78.5906 63.9934 78.5906L75.5643 80.8448Z" fill="#407BFF"/>
<path opacity="0.3" d="M75.5643 80.8448C75.5643 80.8448 75.6252 112.232 73.0562 124.052C70.3856 136.349 62.5312 164.324 62.5312 164.324L56.8447 163.588C56.8447 163.588 61.2974 135.328 63.1912 123.107C65.2576 109.79 63.9934 78.5906 63.9934 78.5906L75.5643 80.8448Z" fill="black"/>
<path d="M63.5014 164.816L55.8704 163.831L56.1953 161.13L64.857 162.146L63.5014 164.816Z" fill="#263238"/>
<path d="M71.6296 80.0324C71.6296 80.0324 63.1152 105.972 58.8859 120.914C54.4281 136.679 37.3383 154.114 37.3383 154.114L32.4388 151.28C32.4388 151.28 44.1164 134.729 48.4066 120.02C57.1444 90.1614 53.5548 83.8352 59.9927 77.7629L71.6296 80.0324Z" fill="#407BFF"/>
<path opacity="0.3" d="M71.6296 80.0324C71.6296 80.0324 63.1152 105.972 58.8859 120.914C54.4281 136.679 37.3383 154.114 37.3383 154.114L32.4388 151.28C32.4388 151.28 44.1164 134.729 48.4066 120.02C57.1444 90.1614 53.5548 83.8352 59.9927 77.7629L71.6296 80.0324Z" fill="black"/>
<path d="M38.1354 154.901L31.3269 150.971L33.0227 148.544L40.5826 152.713L38.1354 154.901Z" fill="#263238"/>
<path d="M76.372 42.8017C76.311 43.1165 76.4278 43.4008 76.636 43.4415C76.8441 43.4821 77.0574 43.2587 77.1437 42.9337C77.23 42.6088 77.0878 42.3296 76.8797 42.2889C76.6715 42.2483 76.4329 42.487 76.372 42.8017Z" fill="#263238"/>
<path d="M79.9207 43.492C79.8597 43.8068 79.9765 44.0962 80.1847 44.1368C80.3929 44.1774 80.6061 43.954 80.667 43.6291C80.7279 43.3042 80.6112 43.0249 80.403 42.9894C80.1948 42.9538 79.9816 43.1722 79.9207 43.492Z" fill="#263238"/>
<path d="M80.3114 42.9947L81.1085 42.9287C81.1085 42.9287 80.6059 43.4415 80.3114 42.9947Z" fill="#263238"/>
<path d="M78.8802 43.8525C79.0203 44.6223 79.2663 45.369 79.6113 46.0713C79.4293 46.1565 79.2309 46.2006 79.0299 46.2006C78.829 46.2006 78.6306 46.1565 78.4486 46.0713L78.8802 43.8525Z" fill="#DE5753"/>
<path d="M77.118 47.0866C76.6937 47.0171 76.2924 46.846 75.9485 46.5879C75.6046 46.3297 75.3282 45.9922 75.143 45.6041C75.1381 45.5928 75.1355 45.5806 75.1354 45.5682C75.1353 45.5559 75.1377 45.5437 75.1424 45.5323C75.1471 45.5209 75.1541 45.5106 75.163 45.502C75.1718 45.4934 75.1823 45.4867 75.1938 45.4822C75.2168 45.4736 75.2421 45.4741 75.2648 45.4835C75.2874 45.4929 75.3056 45.5106 75.3157 45.533C75.493 45.8896 75.7518 46.1996 76.071 46.4377C76.3903 46.6759 76.7612 46.8355 77.1536 46.9038C77.1657 46.9057 77.1772 46.9099 77.1877 46.9163C77.1981 46.9227 77.2071 46.9311 77.2142 46.9411C77.2213 46.951 77.2263 46.9623 77.229 46.9742C77.2317 46.9861 77.2319 46.9984 77.2297 47.0104C77.2248 47.0352 77.2104 47.0571 77.1895 47.0714C77.1686 47.0856 77.1429 47.0911 77.118 47.0866Z" fill="#263238"/>
<path d="M75.5643 41.4511C75.5267 41.4508 75.4901 41.4393 75.4592 41.418C75.4283 41.3967 75.4045 41.3666 75.3908 41.3316C75.3771 41.2967 75.3743 41.2584 75.3826 41.2218C75.3909 41.1852 75.4099 41.1519 75.4373 41.1262C75.6551 40.9221 75.9184 40.7728 76.2053 40.6907C76.4923 40.6085 76.7947 40.596 77.0874 40.654C77.1354 40.6682 77.176 40.7005 77.2007 40.7441C77.2253 40.7877 77.232 40.8391 77.2194 40.8876C77.2064 40.9352 77.175 40.9757 77.1323 41.0004C77.0895 41.0252 77.0387 41.032 76.991 41.0196C76.7584 40.9783 76.5195 40.9917 76.2931 41.0587C76.0666 41.1257 75.8588 41.2444 75.6861 41.4055C75.6525 41.4351 75.6091 41.4514 75.5643 41.4511Z" fill="#263238"/>
<path d="M81.8907 42.1571C81.8535 42.1576 81.817 42.1466 81.7861 42.1257C81.7553 42.1049 81.7315 42.0751 81.7181 42.0403C81.631 41.8204 81.4939 41.6238 81.3177 41.466C81.1414 41.3083 80.9309 41.1938 80.7027 41.1315C80.6783 41.1272 80.655 41.1182 80.6342 41.1049C80.6133 41.0916 80.5953 41.0743 80.5812 41.054C80.567 41.0337 80.557 41.0108 80.5517 40.9867C80.5464 40.9625 80.546 40.9376 80.5503 40.9132C80.5613 40.8652 80.5897 40.8231 80.6301 40.7949C80.6704 40.7667 80.7198 40.7546 80.7687 40.7609C81.0583 40.8332 81.3264 40.9737 81.5507 41.1707C81.775 41.3676 81.9491 41.6153 82.0583 41.8931C82.0682 41.9161 82.0735 41.9408 82.0738 41.9658C82.074 41.9909 82.0693 42.0157 82.0599 42.0389C82.0504 42.062 82.0364 42.0831 82.0187 42.1008C82.001 42.1185 81.9799 42.1325 81.9567 42.1419L81.8907 42.1571Z" fill="#263238"/>
<path d="M76.7981 45.584C76.6409 45.5846 76.4857 45.5487 76.3447 45.4791C76.2038 45.4095 76.0809 45.3081 75.9858 45.1829C75.747 44.8105 75.5877 44.3928 75.5178 43.956C75.4479 43.5192 75.4689 43.0726 75.5796 42.6443C75.869 41.0399 76.8743 39.7351 77.8237 39.7351C77.9817 39.737 78.1373 39.7745 78.2788 39.8448C78.4203 39.9151 78.5442 40.0165 78.6411 40.1413C78.8791 40.5141 79.0379 40.9317 79.1077 41.3684C79.1776 41.8051 79.157 42.2515 79.0473 42.6799C78.7579 44.2843 77.7475 45.584 76.7981 45.584ZM77.8136 39.8773C76.925 39.8773 75.9705 41.1364 75.6913 42.6799C75.5136 43.6953 75.6557 44.6092 76.0721 45.1017C76.1567 45.2113 76.2651 45.3002 76.3891 45.3618C76.5131 45.4234 76.6495 45.4559 76.788 45.4571C77.6815 45.4571 78.631 44.203 78.9102 42.6596H78.9711H78.9102C79.018 42.2515 79.0397 41.8256 78.9742 41.4087C78.9086 40.9918 78.7572 40.593 78.5294 40.2378C78.4461 40.1288 78.3395 40.0399 78.2174 39.9775C78.0953 39.9152 77.9608 39.8809 77.8237 39.8773H77.8136Z" fill="#FAFAFA"/>
<path d="M80.743 46.0918C80.5788 46.0884 80.4175 46.0483 80.2708 45.9745C80.1241 45.9007 79.9957 45.7951 79.8951 45.6653C79.6672 45.3235 79.5129 44.9379 79.4421 44.5332C79.3713 44.1285 79.3855 43.7135 79.4839 43.3146C79.7428 41.8219 80.7176 40.6135 81.6569 40.6135C81.8215 40.6175 81.9831 40.6584 82.1298 40.7331C82.2766 40.8077 82.4047 40.9144 82.5048 41.0451C82.7312 41.3867 82.8846 41.7713 82.9554 42.175C83.0261 42.5786 83.0127 42.9925 82.9161 43.3907C82.6622 44.8885 81.6874 46.0918 80.743 46.0918ZM81.6417 40.7405C80.7583 40.7405 79.8444 41.9031 79.6108 43.34C79.5194 43.7206 79.5065 44.1159 79.5729 44.5017C79.6392 44.8875 79.7834 45.2558 79.9967 45.5841C80.086 45.6992 80.1997 45.793 80.3296 45.8589C80.4596 45.9247 80.6025 45.9609 80.7481 45.9649C81.6315 45.9649 82.5505 44.8073 82.779 43.3704C82.8699 42.99 82.883 42.5951 82.8176 42.2095C82.7522 41.8239 82.6095 41.4555 82.3982 41.1263C82.3094 41.0103 82.1959 40.9155 82.0659 40.8487C81.936 40.782 81.7928 40.745 81.6468 40.7405H81.6417Z" fill="#FAFAFA"/>
<path d="M34.5914 159.8C34.0837 159.8 33.5506 159.018 33.2764 158.566C33.2663 158.551 33.261 158.534 33.261 158.516C33.261 158.498 33.2663 158.48 33.2764 158.465C33.2876 158.45 33.3024 158.439 33.3193 158.432C33.3362 158.425 33.3546 158.422 33.3729 158.424C33.5353 158.46 34.9315 158.764 35.1092 159.242C35.1294 159.294 35.1349 159.351 35.1251 159.407C35.1152 159.462 35.0905 159.514 35.0534 159.556C35.0034 159.633 34.9348 159.696 34.8539 159.738C34.7731 159.781 34.6827 159.802 34.5914 159.8ZM33.5302 158.658C33.9212 159.247 34.302 159.597 34.5761 159.612C34.637 159.613 34.697 159.598 34.7503 159.568C34.8037 159.539 34.8486 159.496 34.8808 159.445C34.8979 159.427 34.9095 159.404 34.914 159.38C34.9185 159.356 34.9158 159.331 34.9062 159.308C34.8148 159.054 34.0887 158.8 33.5302 158.658Z" fill="#407BFF"/>
<path d="M33.7591 158.658C33.6053 158.66 33.4518 158.643 33.3022 158.607C33.2869 158.602 33.273 158.593 33.2616 158.582C33.2501 158.57 33.2415 158.556 33.2362 158.541C33.2243 158.512 33.2243 158.479 33.2362 158.45C33.2717 158.419 34.0485 157.653 34.6223 157.653H34.6629C34.7339 157.657 34.8032 157.677 34.8662 157.71C34.9292 157.743 34.9844 157.79 35.0284 157.846C35.0802 157.9 35.1123 157.97 35.1197 158.044C35.127 158.119 35.1092 158.194 35.069 158.257C34.9066 158.531 34.2567 158.658 33.7591 158.658ZM33.5307 158.46C34.0079 158.516 34.7796 158.379 34.937 158.15C34.9624 158.115 34.9827 158.059 34.9066 157.962C34.8801 157.925 34.8451 157.894 34.8045 157.873C34.7639 157.852 34.7188 157.841 34.673 157.84C34.2374 157.924 33.8384 158.14 33.5307 158.46Z" fill="#407BFF"/>
<path d="M62.6634 169.746C62.2433 169.734 61.8251 169.683 61.4144 169.594C61.3949 169.59 61.3771 169.58 61.3635 169.565C61.3498 169.551 61.341 169.532 61.3383 169.513C61.336 169.493 61.3397 169.474 61.3487 169.456C61.3578 169.439 61.3719 169.425 61.3891 169.416C61.5769 169.325 63.2067 168.512 63.6789 168.786C63.7219 168.814 63.7574 168.851 63.7822 168.895C63.8071 168.94 63.8204 168.99 63.821 169.04C63.8269 169.126 63.8119 169.212 63.7774 169.291C63.743 169.369 63.69 169.438 63.623 169.492C63.3405 169.682 63.0027 169.771 62.6634 169.746ZM61.7343 169.472C62.6025 169.614 63.2575 169.579 63.5113 169.36C63.5546 169.323 63.5885 169.276 63.6106 169.223C63.6326 169.17 63.6421 169.113 63.6383 169.056C63.6393 169.036 63.6351 169.017 63.6261 169C63.6172 168.983 63.6038 168.969 63.5875 168.959C63.3336 168.812 62.4299 169.157 61.7343 169.472Z" fill="#407BFF"/>
<path d="M61.4398 169.594C61.4216 169.599 61.4022 169.599 61.384 169.594C61.369 169.585 61.3573 169.571 61.35 169.555C61.3428 169.538 61.3405 169.52 61.3433 169.503C61.3433 169.432 61.587 167.817 62.4705 167.817H62.5466C62.8005 167.843 62.8716 167.969 62.8868 168.076C62.9579 168.523 61.9729 169.386 61.4753 169.599L61.4398 169.594ZM62.4552 167.99C61.8815 167.99 61.6277 168.924 61.5414 169.33C62.0491 169.031 62.7243 168.355 62.6837 168.086C62.6837 168.086 62.6837 168.005 62.506 167.99H62.4552Z" fill="#407BFF"/>
<path d="M76.7626 42.3042L77.5597 42.2332C77.5597 42.2332 77.057 42.751 76.7626 42.3042Z" fill="#263238"/>
<path d="M73.2744 60.7086C66.6741 58.2056 64.6127 54.4586 64.7701 53.6716L65.7855 53.7326H65.9582C66.2019 53.7326 66.4659 53.7681 66.7147 53.7986C67.1818 53.8392 67.6641 53.89 68.1515 53.956L68.6592 54.027C71.0825 54.3205 73.4817 54.7871 75.8384 55.4233C76.9147 55.738 77.2701 55.8396 77.8692 56.0528L78.4023 56.2458L78.6156 56.327C79.1436 57.4643 79.0268 59.7896 73.2744 60.7086Z" fill="#E4897B"/>
<path d="M73.2744 60.7086C66.6741 58.2056 64.6127 54.4586 64.7701 53.6716L65.7855 53.7326H65.9582C67.2985 55.6365 70.2332 58.2665 73.2236 58.627C75.6302 58.1192 77.8997 57.5404 77.8794 56.0528L78.4125 56.2458L78.6257 56.327C79.1436 57.4643 79.0268 59.7896 73.2744 60.7086Z" fill="#407BFF"/>
<path opacity="0.3" d="M73.2744 60.7086C66.6741 58.2056 64.6127 54.4586 64.7701 53.6716L65.7855 53.7326H65.9582C67.2985 55.6365 70.2332 58.2665 73.2236 58.627C75.6302 58.1192 77.8997 57.5404 77.8794 56.0528L78.4125 56.2458L78.6257 56.327C79.1436 57.4643 79.0268 59.7896 73.2744 60.7086Z" fill="black"/>
<path d="M59.937 76.7881L58.9216 78.0676C58.8454 78.164 58.9571 78.3011 59.1399 78.3367L75.722 81.5657C75.8641 81.5962 75.9961 81.5657 76.0215 81.4591L76.4378 80.0731C76.4683 79.9766 76.3617 79.87 76.2043 79.8395L60.1909 76.7221C60.1463 76.7128 60.1002 76.7138 60.0562 76.7253C60.0121 76.7367 59.9713 76.7583 59.937 76.7881Z" fill="#263238"/>
<path d="M61.7394 78.997L61.3129 78.9157C61.2266 78.9157 61.1707 78.8447 61.186 78.7888L61.7445 76.9915C61.7445 76.9357 61.846 76.9103 61.9272 76.9255L62.3588 77.0067C62.4451 77.0067 62.501 77.0829 62.4857 77.1337L61.9272 78.9361C61.907 78.9654 61.8776 78.9873 61.8436 78.9983C61.8097 79.0094 61.773 79.0089 61.7394 78.997Z" fill="#407BFF"/>
<path opacity="0.3" d="M61.7394 78.997L61.3129 78.9157C61.2266 78.9157 61.1707 78.8447 61.186 78.7888L61.7445 76.9915C61.7445 76.9357 61.846 76.9103 61.9272 76.9255L62.3588 77.0067C62.4451 77.0067 62.501 77.0829 62.4857 77.1337L61.9272 78.9361C61.907 78.9654 61.8776 78.9873 61.8436 78.9983C61.8097 79.0094 61.773 79.0089 61.7394 78.997Z" fill="black"/>
<path d="M62.8664 59.729C62.6734 60.9323 62.4907 62.2676 62.3587 63.5165C62.2267 64.7655 62.1099 66.0551 62.049 67.3549C62.0151 67.9946 61.9948 68.6343 61.988 69.2741C61.988 69.9087 61.988 70.5433 61.988 71.178C62.0131 72.4214 62.1098 73.6622 62.2774 74.8945C62.3732 75.3164 62.5453 75.7173 62.7851 76.0775C63.089 76.5719 63.4284 77.0436 63.8006 77.4889C64.6123 78.4517 65.4803 79.3655 66.4001 80.2255C67.3292 81.1191 68.304 81.9822 69.3042 82.825C70.3044 83.6679 71.3351 84.5056 72.3505 85.3129L71.259 86.9985C68.8696 85.6889 66.5848 84.1968 64.4251 82.5356C63.3101 81.6816 62.2581 80.7484 61.2772 79.7432C60.7542 79.2041 60.2739 78.6252 59.8404 78.0119C59.3041 77.2864 58.9222 76.4587 58.7183 75.5799L58.5305 74.5035C58.4645 74.1532 58.4188 73.8029 58.3782 73.4576C58.2766 72.757 58.2208 72.0614 58.1649 71.3658C58.0593 69.9825 58.0271 68.5944 58.0685 67.2076C58.1091 65.8317 58.1852 64.4609 58.3223 63.0951C58.4594 61.7294 58.632 60.389 58.9062 58.9775L62.8664 59.729Z" fill="#E4897B"/>
<path d="M59.495 54.6619C57.322 56.4186 57.8398 61.638 57.8398 61.638L65.151 64.0446C65.151 64.0446 64.8159 58.0281 64.4605 55.8652C64.0238 53.2911 61.6274 52.9306 59.495 54.6619Z" fill="#263238"/>
<path d="M71.457 84.9882L74.7622 83.7595L74.2545 86.9023C74.2545 86.9023 71.8581 87.7654 70.6294 86.6586L71.457 84.9882Z" fill="#E4897B"/>
<path d="M78.697 84.2266V86.6535L74.2545 86.9023L74.7622 83.7595L78.697 84.2266Z" fill="#E4897B"/>
<path d="M74.5085 81.4845L74.0821 81.4033C73.9958 81.4033 73.9399 81.3322 73.9551 81.2764L74.5136 79.479C74.5136 79.4232 74.6152 79.3978 74.7015 79.413L75.128 79.4943C75.2143 79.4943 75.2701 79.5704 75.2549 79.6212L74.6964 81.4236C74.6812 81.4744 74.6152 81.5048 74.5085 81.4845Z" fill="#407BFF"/>
<path opacity="0.3" d="M74.5085 81.4845L74.0821 81.4033C73.9958 81.4033 73.9399 81.3322 73.9551 81.2764L74.5136 79.479C74.5136 79.4232 74.6152 79.3978 74.7015 79.413L75.128 79.4943C75.2143 79.4943 75.2701 79.5704 75.2549 79.6212L74.6964 81.4236C74.6812 81.4744 74.6152 81.5048 74.5085 81.4845Z" fill="black"/>
<path d="M68.1264 80.2355L67.6949 80.1543C67.6086 80.1543 67.5527 80.0832 67.573 80.0273L68.1315 78.23C68.1315 78.1742 68.228 78.1488 68.3143 78.164L68.7459 78.2453C68.8271 78.2453 68.888 78.3214 68.8677 78.3722L68.3092 80.1746C68.294 80.2355 68.2127 80.2609 68.1264 80.2355Z" fill="#407BFF"/>
<path opacity="0.3" d="M68.1264 80.2355L67.6949 80.1543C67.6086 80.1543 67.5527 80.0832 67.573 80.0273L68.1315 78.23C68.1315 78.1742 68.228 78.1488 68.3143 78.164L68.7459 78.2453C68.8271 78.2453 68.888 78.3214 68.8677 78.3722L68.3092 80.1746C68.294 80.2355 68.2127 80.2609 68.1264 80.2355Z" fill="black"/>
<path d="M35.7899 109.841L62.11 167.325C62.7134 168.631 63.8091 169.646 65.158 170.147C66.5069 170.648 67.9993 170.596 69.3095 170L73.488 168.091L170.244 123.793C171.551 123.191 172.566 122.097 173.069 120.749C173.571 119.401 173.519 117.909 172.924 116.599L149.666 65.8267L146.62 59.1198C146.015 57.8143 144.919 56.8005 143.571 56.2993C142.222 55.7982 140.731 55.8502 139.42 56.4441L38.4808 102.646C37.1739 103.248 36.1577 104.342 35.6537 105.689C35.1496 107.037 35.1986 108.529 35.7899 109.841Z" fill="#407BFF"/>
<path opacity="0.1" d="M35.7899 109.841L62.11 167.325C62.7134 168.631 63.8091 169.646 65.158 170.147C66.5069 170.648 67.9993 170.596 69.3095 170L73.488 168.091L170.244 123.793C171.551 123.191 172.566 122.097 173.069 120.749C173.571 119.401 173.519 117.909 172.924 116.599L149.666 65.8267L146.62 59.1198C146.015 57.8143 144.919 56.8005 143.571 56.2993C142.222 55.7982 140.731 55.8502 139.42 56.4441L38.4808 102.646C37.1739 103.248 36.1577 104.342 35.6537 105.689C35.1496 107.037 35.1986 108.529 35.7899 109.841Z" fill="white"/>
<path d="M59.4415 161.496L170.252 110.762L157.284 82.4365L46.4729 133.17L59.4415 161.496Z" fill="#407BFF"/>
<path opacity="0.3" d="M59.4415 161.496L170.252 110.762L157.284 82.4365L46.4729 133.17L59.4415 161.496Z" fill="white"/>
<path d="M87.3104 137.737L157.336 105.677L152.695 95.5393L82.669 127.599L87.3104 137.737Z" fill="#407BFF"/>
<path opacity="0.8" d="M87.3104 137.737L157.336 105.677L152.695 95.5393L82.669 127.599L87.3104 137.737Z" fill="white"/>
<path d="M48.9466 138.585L159.758 87.8513L152.838 72.7374L42.0269 123.471L48.9466 138.585Z" fill="#407BFF"/>
<path opacity="0.3" d="M48.9466 138.585L159.758 87.8513L152.838 72.7374L42.0269 123.471L48.9466 138.585Z" fill="black"/>
<g style="mix-blend-mode:multiply">
<path d="M50.8388 110.562L73.4881 168.071L170.244 123.773C171.551 123.171 172.567 122.077 173.069 120.729C173.571 119.38 173.519 117.888 172.925 116.578L149.666 65.8064L53.9054 103.52C52.5678 104.05 51.4945 105.089 50.92 106.408C50.3454 107.728 50.3162 109.221 50.8388 110.562Z" fill="#407BFF"/>
</g>
<path d="M178.906 92.3844L178.427 92.5527L179.219 94.8089L179.698 94.6406L178.906 92.3844Z" fill="#407BFF"/>
<path opacity="0.1" d="M178.906 92.3844L178.427 92.5527L179.219 94.8089L179.698 94.6406L178.906 92.3844Z" fill="white"/>
<path d="M174.904 81.039L174.425 81.2073L177.547 90.0982L178.026 89.93L174.904 81.039Z" fill="#407BFF"/>
<path opacity="0.1" d="M174.904 81.039L174.425 81.2073L177.547 90.0982L178.026 89.93L174.904 81.039Z" fill="white"/>
<path d="M57.576 103.718L162.318 66.9335C163.677 66.4606 165.168 66.545 166.465 67.1682C167.761 67.7913 168.759 68.9026 169.238 70.2591L190.187 129.911C190.66 131.27 190.577 132.761 189.955 134.058C189.332 135.356 188.222 136.354 186.866 136.836L82.1242 173.62C80.7646 174.092 79.2737 174.007 77.9765 173.384C76.6792 172.761 75.6808 171.651 75.1989 170.295L54.2505 110.643C53.7774 109.283 53.8616 107.792 54.4848 106.494C55.1079 105.197 56.2192 104.198 57.576 103.718Z" fill="#407BFF"/>
<path opacity="0.1" d="M57.576 103.718L162.318 66.9335C163.677 66.4606 165.168 66.545 166.465 67.1682C167.761 67.7913 168.759 68.9026 169.238 70.2591L190.187 129.911C190.66 131.27 190.577 132.761 189.955 134.058C189.332 135.356 188.222 136.354 186.866 136.836L82.1242 173.62C80.7646 174.092 79.2737 174.007 77.9765 173.384C76.6792 172.761 75.6808 171.651 75.1989 170.295L54.2505 110.643C53.7774 109.283 53.8616 107.792 54.4848 106.494C55.1079 105.197 56.2192 104.198 57.576 103.718Z" fill="white"/>
<path d="M71.3814 159.417L186.37 119.036L177.257 93.0866L62.2686 133.468L71.3814 159.417Z" fill="#407BFF"/>
<path opacity="0.3" d="M71.3814 159.417L186.37 119.036L177.257 93.0866L62.2686 133.468L71.3814 159.417Z" fill="white"/>
<path d="M141.023 92.5102L164.793 84.1628L163.493 80.4599L139.723 88.8073L141.023 92.5102Z" fill="#407BFF"/>
<path opacity="0.8" d="M141.023 92.5102L164.793 84.1628L163.493 80.4599L139.723 88.8073L141.023 92.5102Z" fill="white"/>
<path d="M161.028 134.437L180.098 127.74L179.419 125.805L160.348 132.502L161.028 134.437Z" fill="#407BFF"/>
<path opacity="0.8" d="M161.028 134.437L180.098 127.74L179.419 125.805L160.348 132.502L161.028 134.437Z" fill="white"/>
<path d="M156.822 140.075L181.397 131.445L180.717 129.51L156.143 138.14L156.822 140.075Z" fill="#407BFF"/>
<path opacity="0.8" d="M156.822 140.075L181.397 131.445L180.717 129.51L156.143 138.14L156.822 140.075Z" fill="white"/>
<path d="M82.2672 166.257L94.5546 161.942L93.0927 157.779L80.8054 162.094L82.2672 166.257Z" fill="#407BFF"/>
<path opacity="0.8" d="M82.2672 166.257L94.5546 161.942L93.0927 157.779L80.8054 162.094L82.2672 166.257Z" fill="white"/>
<path d="M158.79 122.122L173.138 117.085C173.894 116.816 174.514 116.259 174.862 115.536C175.21 114.812 175.258 113.981 174.996 113.222C174.727 112.465 174.17 111.846 173.447 111.498C172.723 111.15 171.891 111.102 171.132 111.363L156.779 116.405C156.023 116.674 155.403 117.231 155.055 117.955C154.707 118.678 154.659 119.51 154.921 120.269C155.191 121.025 155.749 121.645 156.474 121.992C157.199 122.339 158.031 122.386 158.79 122.122Z" fill="#407BFF"/>
<path d="M134.211 130.753L148.564 125.711C149.315 125.441 149.929 124.887 150.276 124.168C150.622 123.45 150.673 122.624 150.417 121.868C150.147 121.113 149.59 120.494 148.866 120.147C148.143 119.8 147.312 119.753 146.553 120.015L132.205 125.057C131.449 125.326 130.829 125.883 130.481 126.606C130.133 127.33 130.085 128.161 130.347 128.92C130.621 129.672 131.18 130.286 131.903 130.629C132.626 130.972 133.455 131.016 134.211 130.753Z" fill="#407BFF"/>
<path d="M109.647 139.384L124 134.343C124.749 134.07 125.362 133.516 125.706 132.797C126.051 132.079 126.1 131.254 125.844 130.499C125.573 129.744 125.016 129.126 124.293 128.779C123.569 128.432 122.738 128.384 121.98 128.646L107.616 133.668C106.861 133.938 106.243 134.495 105.896 135.218C105.549 135.942 105.501 136.773 105.763 137.531C106.033 138.292 106.594 138.914 107.322 139.261C108.05 139.608 108.886 139.653 109.647 139.384Z" fill="#407BFF"/>
<path d="M85.059 148.016L99.4121 142.974C100.164 142.705 100.78 142.151 101.127 141.432C101.475 140.714 101.526 139.887 101.27 139.131C101 138.375 100.443 137.757 99.7194 137.41C98.996 137.063 98.1649 137.015 97.4066 137.278L83.0535 142.319C82.2971 142.588 81.6775 143.145 81.3296 143.869C80.9816 144.592 80.9333 145.424 81.1952 146.183C81.4694 146.935 82.0284 147.548 82.7514 147.891C83.4744 148.234 84.3033 148.279 85.059 148.016Z" fill="#407BFF"/>
<g opacity="0.8">
<path opacity="0.8" d="M158.79 122.122L173.138 117.086C173.894 116.817 174.514 116.26 174.862 115.536C175.21 114.813 175.258 113.981 174.996 113.222C174.727 112.466 174.17 111.846 173.446 111.498C172.723 111.15 171.891 111.102 171.132 111.364L156.779 116.406C156.023 116.675 155.403 117.232 155.055 117.955C154.707 118.679 154.659 119.51 154.921 120.269C155.191 121.026 155.749 121.645 156.474 121.992C157.198 122.339 158.031 122.386 158.79 122.122Z" fill="white"/>
<path opacity="0.8" d="M134.211 130.754L148.564 125.712C149.315 125.442 149.93 124.888 150.276 124.169C150.623 123.45 150.673 122.624 150.417 121.869C150.147 121.113 149.59 120.495 148.866 120.148C148.143 119.801 147.312 119.753 146.554 120.015L132.206 125.057C131.449 125.326 130.83 125.883 130.482 126.607C130.134 127.33 130.085 128.162 130.347 128.921C130.622 129.672 131.181 130.286 131.904 130.629C132.626 130.972 133.455 131.017 134.211 130.754Z" fill="white"/>
<path opacity="0.8" d="M109.648 139.385L124.001 134.343C124.75 134.071 125.362 133.516 125.707 132.798C126.051 132.079 126.1 131.254 125.844 130.5C125.574 129.744 125.016 129.126 124.293 128.779C123.57 128.432 122.739 128.385 121.98 128.647L107.617 133.668C106.861 133.938 106.243 134.496 105.896 135.219C105.549 135.942 105.502 136.773 105.764 137.532C106.034 138.292 106.594 138.914 107.323 139.262C108.051 139.609 108.887 139.653 109.648 139.385Z" fill="white"/>
<path opacity="0.8" d="M85.0588 148.016L99.412 142.975C100.164 142.705 100.779 142.152 101.127 141.433C101.475 140.714 101.526 139.888 101.27 139.131C101 138.376 100.443 137.757 99.7193 137.41C98.9959 137.063 98.1648 137.016 97.4065 137.278L83.0533 142.32C82.297 142.589 81.6774 143.146 81.3294 143.869C80.9815 144.593 80.9332 145.424 81.1951 146.183C81.4693 146.935 82.0283 147.549 82.7513 147.892C83.4743 148.235 84.3032 148.279 85.0588 148.016Z" fill="white"/>
</g>
<path d="M157.512 110.574L170.283 106.089C171.368 105.708 171.938 104.52 171.557 103.436L168.896 95.8572C168.515 94.7725 167.327 94.202 166.242 94.5829L153.471 99.0678C152.386 99.4487 151.816 100.637 152.197 101.722L154.858 109.3C155.239 110.385 156.427 110.955 157.512 110.574Z" fill="#407BFF"/>
<path opacity="0.3" d="M157.512 110.574L170.283 106.089C171.368 105.708 171.938 104.52 171.557 103.436L168.896 95.8572C168.515 94.7725 167.327 94.202 166.242 94.5829L153.471 99.0678C152.386 99.4487 151.816 100.637 152.197 101.722L154.858 109.3C155.239 110.385 156.427 110.955 157.512 110.574Z" fill="black"/>
<path d="M82.2308 118.421C80.3884 118.422 78.6129 117.73 77.256 116.484C75.899 115.238 75.0595 113.527 74.9036 111.692C74.7477 109.856 75.2867 108.028 76.4141 106.571C77.5414 105.114 79.1749 104.133 80.991 103.823C82.8071 103.513 84.6735 103.895 86.2207 104.896C87.7679 105.896 88.8831 107.441 89.3454 109.225C89.8078 111.008 89.5837 112.9 88.7174 114.526C87.8512 116.152 86.4059 117.394 84.6679 118.005C83.885 118.281 83.0609 118.422 82.2308 118.421ZM82.2308 104.205C81.4511 104.207 80.6771 104.339 79.941 104.596C78.2163 105.202 76.8029 106.469 76.0117 108.117C75.2205 109.765 75.1163 111.66 75.7219 113.385C76.1416 114.576 76.8807 115.629 77.8583 116.428C78.836 117.228 80.0146 117.743 81.2654 117.918C82.5162 118.093 83.791 117.921 84.9505 117.42C86.11 116.92 87.1097 116.11 87.8402 115.08C88.5707 114.05 89.004 112.839 89.0927 111.579C89.1814 110.319 88.9221 109.059 88.3431 107.937C87.7641 106.814 86.8878 105.872 85.8098 105.214C84.7319 104.556 83.4938 104.207 82.2308 104.205Z" fill="#407BFF"/>
<path opacity="0.8" d="M82.2308 118.421C80.3884 118.422 78.6129 117.73 77.256 116.484C75.899 115.238 75.0595 113.527 74.9036 111.692C74.7477 109.856 75.2867 108.028 76.4141 106.571C77.5414 105.114 79.1749 104.133 80.991 103.823C82.8071 103.513 84.6735 103.895 86.2207 104.896C87.7679 105.896 88.8831 107.441 89.3454 109.225C89.8078 111.008 89.5837 112.9 88.7174 114.526C87.8512 116.152 86.4059 117.394 84.6679 118.005C83.885 118.281 83.0609 118.422 82.2308 118.421ZM82.2308 104.205C81.4511 104.207 80.6771 104.339 79.941 104.596C78.2163 105.202 76.8029 106.469 76.0117 108.117C75.2205 109.765 75.1163 111.66 75.7219 113.385C76.1416 114.576 76.8807 115.629 77.8583 116.428C78.836 117.228 80.0146 117.743 81.2654 117.918C82.5162 118.093 83.791 117.921 84.9505 117.42C86.11 116.92 87.1097 116.11 87.8402 115.08C88.5707 114.05 89.004 112.839 89.0927 111.579C89.1814 110.319 88.9221 109.059 88.3431 107.937C87.7641 106.814 86.8878 105.872 85.8098 105.214C84.7319 104.556 83.4938 104.207 82.2308 104.205Z" fill="white"/>
<path d="M65.0092 117.131C65.4773 118.456 66.3273 119.612 67.452 120.454C68.5767 121.296 69.9256 121.785 71.3284 121.861C72.7312 121.937 74.125 121.595 75.3337 120.879C76.5424 120.163 77.5118 119.105 78.1196 117.838C78.7274 116.572 78.9462 115.154 78.7485 113.763C78.5508 112.372 77.9453 111.071 77.0086 110.024C76.072 108.977 74.846 108.231 73.4857 107.88C72.1253 107.53 70.6916 107.59 69.3655 108.053C68.4824 108.362 67.669 108.842 66.9718 109.466C66.2747 110.09 65.7075 110.845 65.3028 111.688C64.8981 112.532 64.6638 113.446 64.6135 114.381C64.5631 115.315 64.6976 116.249 65.0092 117.131Z" fill="#407BFF"/>
<path opacity="0.8" d="M65.0092 117.131C65.4773 118.456 66.3273 119.612 67.452 120.454C68.5767 121.296 69.9256 121.785 71.3284 121.861C72.7312 121.937 74.125 121.595 75.3337 120.879C76.5424 120.163 77.5118 119.105 78.1196 117.838C78.7274 116.572 78.9462 115.154 78.7485 113.763C78.5508 112.372 77.9453 111.071 77.0086 110.024C76.072 108.977 74.846 108.231 73.4857 107.88C72.1253 107.53 70.6916 107.59 69.3655 108.053C68.4824 108.362 67.669 108.842 66.9718 109.466C66.2747 110.09 65.7075 110.845 65.3028 111.688C64.8981 112.532 64.6638 113.446 64.6135 114.381C64.5631 115.315 64.6976 116.249 65.0092 117.131Z" fill="white"/>
</svg>
