<svg width="40" height="40" viewBox="0 0 19 22" fill="none" xmlns="http://www.w3.org/2000/svg">
<path d="M15.885 11.6262C15.8741 9.82294 16.714 8.46385 18.4102 7.46173C17.4615 6.13967 16.0263 5.41253 14.1345 5.27239C12.3432 5.1349 10.3834 6.28774 9.66581 6.28774C8.90744 6.28774 7.17325 5.31999 5.80873 5.31999C2.9927 5.36229 0 7.50403 0 11.8616C0 13.1492 0.241917 14.4792 0.725751 15.8489C1.37268 17.6522 3.70486 22.0705 6.13762 21.9991C7.40973 21.9701 8.30944 21.1213 9.96481 21.1213C11.5712 21.1213 12.403 21.9991 13.8219 21.9991C16.2764 21.9648 18.3857 17.9483 19 16.1398C15.7083 14.63 15.885 11.7188 15.885 11.6262V11.6262ZM13.0282 3.56164C14.4063 1.96988 14.2813 0.520893 14.2405 0C13.0227 0.0687473 11.6147 0.806459 10.8129 1.7134C9.92947 2.68643 9.4103 3.88951 9.52175 5.24595C10.8373 5.34378 12.0388 4.68539 13.0282 3.56164V3.56164Z" fill="#000"/>
</svg>
