<svg width="40" height="40" viewBox="0 0 40 40" fill="none" xmlns="http://www.w3.org/2000/svg">
<path fill-rule="evenodd" clip-rule="evenodd" d="M20 37.7143C29.7833 37.7143 37.7143 29.7833 37.7143 20C37.7143 10.2167 29.7833 2.28571 20 2.28571C10.2167 2.28571 2.28571 10.2167 2.28571 20C2.28571 29.7833 10.2167 37.7143 20 37.7143ZM20 40C31.0457 40 40 31.0457 40 20C40 8.9543 31.0457 0 20 0C8.9543 0 0 8.9543 0 20C0 31.0457 8.9543 40 20 40Z" fill="#000"/>
<path d="M16.9212 14.2519V17.0715H14.8572V20.5176H16.9212V30.7618H21.1638V20.5176H24.01C24.01 20.5176 24.2783 18.8652 24.4073 17.0571H21.1802V14.7024C21.1802 14.3481 21.643 13.8751 22.1017 13.8751H24.4114V10.2856H21.2683C16.8167 10.2856 16.9212 13.7359 16.9212 14.2519Z" fill="#000"/>
</svg>
