<svg width="40" height="40" viewBox="0 0 40 40" fill="none" xmlns="http://www.w3.org/2000/svg">
<path fill-rule="evenodd" clip-rule="evenodd" d="M20 37.7143C29.7833 37.7143 37.7143 29.7833 37.7143 20C37.7143 10.2167 29.7833 2.28571 20 2.28571C10.2167 2.28571 2.28571 10.2167 2.28571 20C2.28571 29.7833 10.2167 37.7143 20 37.7143ZM20 40C31.0457 40 40 31.0457 40 20C40 8.9543 31.0457 0 20 0C8.9543 0 0 8.9543 0 20C0 31.0457 8.9543 40 20 40Z" fill="#000"/>
<path d="M23.238 19.9999C23.238 19.1061 22.9218 18.3429 22.2894 17.7105C21.6569 17.0781 20.8938 16.7618 19.9999 16.7618C19.1061 16.7618 18.3429 17.0781 17.7105 17.7105C17.0781 18.3429 16.7618 19.1061 16.7618 19.9999C16.7618 20.8938 17.0781 21.6569 17.7105 22.2894C18.3429 22.9218 19.1061 23.238 19.9999 23.238C20.8938 23.238 21.6569 22.9218 22.2894 22.2894C22.9218 21.6569 23.238 20.8938 23.238 19.9999ZM24.9836 19.9999C24.9836 21.3829 24.4987 22.5592 23.5289 23.5289C22.5592 24.4987 21.3829 24.9836 19.9999 24.9836C18.617 24.9836 17.4407 24.4987 16.4709 23.5289C15.5012 22.5592 15.0163 21.3829 15.0163 19.9999C15.0163 18.617 15.5012 17.4407 16.4709 16.4709C17.4407 15.5012 18.617 15.0163 19.9999 15.0163C21.3829 15.0163 22.5592 15.5012 23.5289 16.4709C24.4987 17.4407 24.9836 18.617 24.9836 19.9999ZM26.3496 14.8139C26.3496 15.1344 26.2358 15.4084 26.0081 15.6361C25.7804 15.8638 25.5064 15.9776 25.1859 15.9776C24.8655 15.9776 24.5914 15.8638 24.3638 15.6361C24.1361 15.4084 24.0223 15.1344 24.0223 14.8139C24.0223 14.4935 24.1361 14.2194 24.3638 13.9917C24.5914 13.7641 24.8655 13.6502 25.1859 13.6502C25.5064 13.6502 25.7804 13.7641 26.0081 13.9917C26.2358 14.2194 26.3496 14.4935 26.3496 14.8139ZM19.9999 12.0312C19.9409 12.0312 19.6184 12.0291 19.0323 12.0249C18.4462 12.0206 18.0014 12.0206 17.6978 12.0249C17.3943 12.0291 16.9874 12.0417 16.4772 12.0628C15.9671 12.0839 15.5328 12.126 15.1744 12.1893C14.816 12.2525 14.5146 12.3305 14.27 12.4233C13.8484 12.5919 13.4774 12.8365 13.1569 13.1569C12.8365 13.4774 12.5919 13.8484 12.4233 14.27C12.3305 14.5146 12.2525 14.816 12.1893 15.1744C12.126 15.5328 12.0839 15.9671 12.0628 16.4772C12.0417 16.9874 12.0291 17.3943 12.0249 17.6978C12.0206 18.0014 12.0206 18.4462 12.0249 19.0323C12.0291 19.6184 12.0312 19.9409 12.0312 19.9999C12.0312 20.059 12.0291 20.3815 12.0249 20.9676C12.0206 21.5536 12.0206 21.9984 12.0249 22.302C12.0291 22.6056 12.0417 23.0125 12.0628 23.5226C12.0839 24.0328 12.126 24.4671 12.1893 24.8255C12.2525 25.1838 12.3305 25.4853 12.4233 25.7298C12.5919 26.1515 12.8365 26.5225 13.1569 26.8429C13.4774 27.1634 13.8484 27.4079 14.27 27.5766C14.5146 27.6693 14.816 27.7473 15.1744 27.8106C15.5328 27.8738 15.9671 27.916 16.4772 27.9371C16.9874 27.9581 17.3943 27.9708 17.6978 27.975C18.0014 27.9792 18.4462 27.9792 19.0323 27.975C19.6184 27.9708 19.9409 27.9687 19.9999 27.9687C20.059 27.9687 20.3815 27.9708 20.9676 27.975C21.5536 27.9792 21.9984 27.9792 22.302 27.975C22.6056 27.9708 23.0125 27.9581 23.5226 27.9371C24.0328 27.916 24.4671 27.8738 24.8255 27.8106C25.1838 27.7473 25.4853 27.6693 25.7298 27.5766C26.1515 27.4079 26.5225 27.1634 26.8429 26.8429C27.1634 26.5225 27.4079 26.1515 27.5766 25.7298C27.6693 25.4853 27.7473 25.1838 27.8106 24.8255C27.8738 24.4671 27.916 24.0328 27.9371 23.5226C27.9581 23.0125 27.9708 22.6056 27.975 22.302C27.9792 21.9984 27.9792 21.5536 27.975 20.9676C27.9708 20.3815 27.9687 20.059 27.9687 19.9999C27.9687 19.9409 27.9708 19.6184 27.975 19.0323C27.9792 18.4462 27.9792 18.0014 27.975 17.6978C27.9708 17.3943 27.9581 16.9874 27.9371 16.4772C27.916 15.9671 27.8738 15.5328 27.8106 15.1744C27.7473 14.816 27.6693 14.5146 27.5766 14.27C27.4079 13.8484 27.1634 13.4774 26.8429 13.1569C26.5225 12.8365 26.1515 12.5919 25.7298 12.4233C25.4853 12.3305 25.1838 12.2525 24.8255 12.1893C24.4671 12.126 24.0328 12.0839 23.5226 12.0628C23.0125 12.0417 22.6056 12.0291 22.302 12.0249C21.9984 12.0206 21.5536 12.0206 20.9676 12.0249C20.3815 12.0291 20.059 12.0312 19.9999 12.0312ZM29.7142 19.9999C29.7142 21.931 29.6931 23.2675 29.651 24.0096C29.5666 25.7636 29.0438 27.1212 28.0825 28.0825C27.1212 29.0438 25.7636 29.5666 24.0096 29.651C23.2675 29.6931 21.931 29.7142 19.9999 29.7142C18.0689 29.7142 16.7323 29.6931 15.9903 29.651C14.2363 29.5666 12.8787 29.0438 11.9173 28.0825C10.956 27.1212 10.4332 25.7636 10.3489 24.0096C10.3067 23.2675 10.2856 21.931 10.2856 19.9999C10.2856 18.0689 10.3067 16.7323 10.3489 15.9903C10.4332 14.2363 10.956 12.8787 11.9173 11.9173C12.8787 10.956 14.2363 10.4332 15.9903 10.3489C16.7323 10.3067 18.0689 10.2856 19.9999 10.2856C21.931 10.2856 23.2675 10.3067 24.0096 10.3489C25.7636 10.4332 27.1212 10.956 28.0825 11.9173C29.0438 12.8787 29.5666 14.2363 29.651 15.9903C29.6931 16.7323 29.7142 18.0689 29.7142 19.9999Z" fill="#000"/>
</svg>
