<svg width="40" height="40" viewBox="0 0 40 40" fill="none" xmlns="http://www.w3.org/2000/svg">
<path fill-rule="evenodd" clip-rule="evenodd" d="M20 37.7143C29.7833 37.7143 37.7143 29.7833 37.7143 20C37.7143 10.2167 29.7833 2.28571 20 2.28571C10.2167 2.28571 2.28571 10.2167 2.28571 20C2.28571 29.7833 10.2167 37.7143 20 37.7143ZM20 40C31.0457 40 40 31.0457 40 20C40 8.9543 31.0457 0 20 0C8.9543 0 0 8.9543 0 20C0 31.0457 8.9543 40 20 40Z" fill="#000"/>
<path d="M28.5713 21.2384V27.4285H24.8976V21.652C24.8976 20.202 24.3662 19.2125 23.0359 19.2125C22.021 19.2125 21.4159 19.8789 21.1502 20.5252C21.0542 20.7562 21.0285 21.0777 21.0285 21.3992V27.4285H17.353C17.353 27.4285 17.4028 17.647 17.353 16.634H21.0285V18.1627L21.0045 18.1978H21.0285V18.1643C21.517 17.4276 22.3879 16.3795 24.3405 16.3795C26.7576 16.3795 28.5713 17.9232 28.5713 21.2384ZM13.5079 11.4285C12.2513 11.4285 11.4285 12.2355 11.4285 13.2937C11.4285 14.3318 12.2273 15.1606 13.4599 15.1606H13.4839C14.7662 15.1606 15.5633 14.3301 15.5633 13.2937C15.5393 12.2355 14.7662 11.4285 13.5079 11.4285ZM11.6462 27.4285H15.3216V16.634H11.6462V27.4285Z" fill="#000"/>
</svg>
