<svg width="40" height="40" viewBox="0 0 40 40" fill="none" xmlns="http://www.w3.org/2000/svg">
<path fill-rule="evenodd" clip-rule="evenodd" d="M20 37.7143C29.7833 37.7143 37.7143 29.7833 37.7143 20C37.7143 10.2167 29.7833 2.28571 20 2.28571C10.2167 2.28571 2.28571 10.2167 2.28571 20C2.28571 29.7833 10.2167 37.7143 20 37.7143ZM20 40C31.0457 40 40 31.0457 40 20C40 8.9543 31.0457 0 20 0C8.9543 0 0 8.9543 0 20C0 31.0457 8.9543 40 20 40Z" fill="#000"/>
<path d="M30.2379 13.7484C29.4844 14.0761 28.6756 14.3013 27.8258 14.3996C28.694 13.8877 29.3574 13.0768 29.6728 12.1124C28.8455 12.5945 27.9428 12.9337 27.0027 13.1157C26.6072 12.7012 26.1315 12.3716 25.6045 12.147C25.0775 11.9224 24.5103 11.8075 23.9374 11.8093C21.6174 11.8093 19.7377 13.6624 19.7377 15.9455C19.7377 16.2691 19.7746 16.5844 19.8462 16.8874C18.1822 16.8084 16.5529 16.3834 15.0623 15.6395C13.5717 14.8956 12.2525 13.8492 11.1889 12.567C10.8153 13.1958 10.6187 13.9139 10.6197 14.6453C10.6197 16.0786 11.363 17.3482 12.4891 18.0873C11.8225 18.0664 11.1702 17.889 10.5849 17.5693V17.6205C10.5912 18.5818 10.9305 19.5111 11.545 20.2504C12.1596 20.9896 13.0113 21.493 13.9552 21.6748C13.3355 21.8386 12.6871 21.8624 12.0571 21.7444C12.3317 22.5714 12.8571 23.2923 13.5601 23.8071C14.2631 24.3219 15.109 24.6051 15.9803 24.6172C14.4855 25.7691 12.6502 26.3915 10.763 26.3864C10.4251 26.3864 10.0914 26.3659 9.76172 26.329C11.6874 27.5479 13.9204 28.1935 16.1994 28.1903C23.9271 28.1903 28.1514 21.8877 28.1514 16.4206L28.1371 15.8841C28.9608 15.3052 29.6726 14.5816 30.2379 13.7484Z" fill="#000"/>
</svg>
